<svg width="177" height="157" viewBox="0 0 177 157" fill="none" xmlns="http://www.w3.org/2000/svg">
<path d="M103.902 0.564941C104.678 -0.0838531 105.707 0.0750352 106.647 0.0750352C104.175 1.71688 101.774 3.46907 99.4705 5.336C93.0443 10.4955 86.8168 16.1095 82.2046 22.9991C78.8371 28.0482 76.542 34.2272 77.694 40.3532C78.9651 47.2649 83.7052 52.8612 88.644 57.5838C96.7429 65.1839 106.073 71.2923 114.481 78.5217C120.263 83.5576 125.921 89.1937 128.935 96.379C131.239 101.693 131.367 107.806 129.624 113.301C127.585 119.793 123.652 125.509 119.239 130.615C110.699 140.281 100.49 148.291 89.9813 155.693C89.178 156.284 88.3704 157.026 87.2979 156.96C84.0583 156.973 80.8099 157.105 77.5836 156.805C84.7954 152.14 91.632 146.888 98.0979 141.23C103.827 136.092 109.247 130.461 113.263 123.853C116.67 118.213 118.745 111.465 117.601 104.857C116.379 97.5927 112.111 91.2681 107.11 86.0336C100.234 78.9587 92.1969 73.1769 84.6586 66.8478C79.861 62.7035 75.0635 58.4003 71.5812 53.0466C69.6392 50.0631 68.2357 46.6425 68.1121 43.0543C67.8605 38.0714 69.8069 33.265 72.4197 29.1207C75.7299 23.895 80.0905 19.4418 84.6453 15.2974C90.6742 9.89963 97.1975 5.08002 103.902 0.564941Z" fill="#F58634"/>
<path d="M0.0108151 37.352C0.0593643 24.9234 -0.0818698 12.4948 0.081432 0.0662079C24.1574 0.10593 48.2334 0.0706214 72.305 0.0838621C74.3132 0.0926893 76.3213 0.0264858 78.3295 0.163306C73.0067 4.07372 67.4942 7.76346 62.5554 12.1726C57.0252 16.9834 51.7731 22.3768 48.3967 28.953C45.806 33.9447 45.0336 40.0045 47.0285 45.3361C48.9705 50.7074 52.7573 55.1342 56.7428 59.1153C63.0012 65.2325 70.0099 70.5023 76.5288 76.3238C80.5319 79.8546 84.3011 83.7077 87.3685 88.0903C90.5683 92.7246 92.753 98.2857 92.4308 103.992C92.1925 111.434 88.3924 118.217 83.9171 123.959C78.9033 130.386 72.8479 135.907 66.5365 141.031C59.7219 146.552 52.5102 151.557 45.1836 156.364C44.2259 157.096 42.968 156.986 41.8337 156.995C27.8913 156.907 13.94 157.114 0.00198775 156.889C0.0284691 117.043 0.00640152 77.1976 0.0108151 37.352Z" fill="#F58634"/>
<path d="M89.8445 0.622313C90.5154 0.110339 91.3495 0.0220678 92.1749 0C91.9277 0.56935 91.4422 0.95333 90.9523 1.29317C86.1592 4.67838 81.5514 8.32839 77.1555 12.2167C72.4727 16.5244 67.9532 21.1189 64.5857 26.552C62.2068 30.4492 60.4237 34.9113 60.6488 39.5544C60.7988 44.1003 63.1027 48.2182 65.8435 51.7226C72.7596 60.4305 82.081 66.711 90.4977 73.8389C97.1887 79.5236 103.994 85.6231 107.719 93.7529C110.332 99.2169 111.091 105.586 109.516 111.46C107.53 118.994 102.798 125.438 97.6168 131.109C88.6572 140.691 78.0206 148.512 67.1676 155.799C66.3158 156.373 65.4331 157.057 64.3473 156.977C61.6727 156.99 58.9937 157.043 56.3235 156.849C63.2175 152.396 69.8334 147.51 76.1757 142.298C82.6945 136.776 88.9706 130.822 93.8035 123.725C97.3078 118.575 99.9604 112.541 99.8192 106.208C99.7221 99.773 96.5443 93.8324 92.5279 88.973C84.5924 79.5192 74.2249 72.5987 65.3183 64.1467C60.3663 59.3889 55.5246 53.9205 53.8166 47.0971C52.4837 42.0436 53.5209 36.6326 55.8865 32.0513C58.6274 26.552 62.8114 21.931 67.2338 17.7249C74.1631 11.2678 81.9089 5.7597 89.8445 0.622313Z" fill="#F58634"/>
<path d="M98.7996 15.7608C104.859 9.92169 111.652 4.91229 118.524 0.079441C137.767 0.079441 157.006 0.0926817 176.244 0.0750275C176.39 52.3449 176.24 104.615 176.319 156.885C168.56 157.114 160.797 156.911 153.033 156.982C138.041 156.986 123.048 156.977 108.055 156.982C105.517 156.982 102.975 157.026 100.441 156.858C107.41 151.831 114.19 146.521 120.426 140.603C126.464 134.781 132.21 128.395 135.798 120.733C138.522 115.022 139.484 108.26 137.418 102.183C135.353 95.7832 130.877 90.5222 126.111 85.9233C119.062 79.3073 111.118 73.7639 103.602 67.7129C97.2548 62.5137 90.6919 56.9791 87.1301 49.4098C84.5835 44.2107 84.5261 37.9964 86.627 32.6427C89.178 26.0886 93.8476 20.6378 98.7996 15.7608Z" fill="#F58634"/>
</svg>
