<svg width="137" height="66" viewBox="0 0 137 66" fill="none" xmlns="http://www.w3.org/2000/svg">
<path d="M124.382 0C120.815 0 119.247 0.834157 117.272 2.91603L112.73 7.87522L108.204 2.91603C106.225 0.834157 104.659 0 101.091 0H95.8225C95.8225 0 104.089 10.2686 105.13 11.4529C106.88 13.4415 108.141 14.4165 110.58 14.4165H114.893C117.335 14.4165 118.582 13.4486 120.35 11.4529C121.387 10.2686 129.652 0 129.652 0H124.382Z" fill="#FDB913"/>
<path d="M121.454 13.3729C118.84 13.9009 117.383 14.4957 116.168 16.611L115.08 18.4782L114.002 20.3383C112.783 22.4466 112.998 24.0076 113.84 26.5311C114.348 28.0094 119.128 40.2947 119.128 40.2947L121.773 35.7386C123.555 32.6518 123.622 30.892 122.807 28.1449L120.761 21.7427L127.336 20.3066C130.125 19.6397 131.629 18.6929 133.413 15.6167L136.048 11.0605C136.048 11.0605 122.997 13.0614 121.454 13.3729Z" fill="#F47920"/>
<path d="M111.466 20.3383L110.383 18.4782L109.307 16.611C108.083 14.4957 106.622 13.9009 104.023 13.3729C102.47 13.0614 89.4219 11.0605 89.4219 11.0605L92.0658 15.6167C93.8437 18.7034 95.3412 19.6397 98.1385 20.3066L104.712 21.7427L102.659 28.1449C101.851 30.892 101.918 32.6571 103.702 35.7386L106.331 40.2947C106.331 40.2947 111.122 28.0094 111.63 26.5311C112.469 24.0076 112.685 22.4466 111.466 20.3383Z" fill="#F7941D"/>
<path d="M87.5151 43.8355C87.8343 43.6683 87.8414 43.6859 88.1271 43.4958C90.9174 41.9525 93.0181 39.1016 93.0181 35.6101C93.0146 28.8963 87.7373 26.2601 80.0401 26.2724C80.0401 26.2724 64.6228 26.2601 63.6263 26.2601C62.3511 26.2601 61.6879 26.9975 61.6879 28.2734V62.5653C61.6879 64.1351 62.3634 64.7493 63.4869 64.7493C64.614 64.7528 81.9997 64.7528 81.9997 64.7528C89.8415 64.7528 95.6127 61.1979 95.6127 53.3825C95.6127 48.5853 92.5948 44.9635 87.5151 43.8355ZM70.177 32.8419H78.7967C82.3066 32.8419 84.238 34.2163 84.238 37.1077C84.238 40.0307 82.0244 41.5319 79.0454 41.5319H70.1717L70.177 32.8419ZM79.8743 58.171H70.1717V47.8479H79.9608C83.9099 47.8479 86.7178 49.4616 86.7178 53.0974C86.7178 57.0993 83.2255 58.171 79.8743 58.171ZM52.2886 26.2601H47.0096C46.0889 26.2724 45.3375 27.008 45.3287 27.9337V63.0757C45.3375 64.0013 46.0854 64.7528 47.0096 64.7528H52.2886C53.2111 64.7493 53.9572 64.0013 53.9572 63.0757V27.9337C53.9572 27.008 53.2111 26.2601 52.2886 26.2601ZM37.6527 26.2601H32.9716C31.4388 26.2601 30.982 26.8532 30.4882 28.9826C28.7473 36.4477 26.6255 48.1699 22.4082 54.368C22.4082 54.368 21.4329 56.0029 20.1312 56.0029C18.8171 55.9959 17.8435 54.368 17.8435 54.368C13.6351 48.1699 10.776 36.4477 9.04927 28.9826C8.55012 26.8532 8.088 26.2601 6.56232 26.2566L1.87064 26.2601C0.29028 26.2601 -0.175362 27.5905 0.0556952 28.7467C1.53552 36.3914 4.07009 48.0415 10.0052 58.1112C12.815 62.8821 15.4465 65.5025 20.1259 65.5183C24.8017 65.5025 27.4421 62.8821 30.2412 58.1112C36.1782 48.0415 37.9931 36.3914 39.4694 28.752C39.7004 27.5905 39.2383 26.2601 37.6527 26.2601Z" fill="#0066B3"/>
</svg>