<svg xmlns="http://www.w3.org/2000/svg" width="368" height="213" viewBox="0 0 368 213">
  <g id="Group_14959" data-name="Group 14959" transform="translate(-501 -156)">
    <g id="Group_14954" data-name="Group 14954" transform="translate(-5094 -1621.345)">
      <path id="Path_31688" data-name="Path 31688" d="M5610.186,1804.7l18.381-18.357h33.76l13.56,13.56h60.385l9.814-9.815h57.242l7.872,7.872h40.575s8.542-7.933,11.211-11.212c5.44-.073,69.417,0,69.417,0l18.318,18.318v65.566l-11.728,11.727v39.381l11.728,11.727v35.124l-15.258,15.257h-98.33l-15.257-15.257h-71.234l-16.03,16.03s-114.548.021-120.274,0l-14.441-14.442v-68.288l10.29-10.29Z" transform="translate(2.089 0)" fill="#02102c" stroke="#D4B600" stroke-width="1"/>
      <g id="Group_14953" data-name="Group 14953" transform="translate(5595 1807.254)">
        <path id="Path_31689" data-name="Path 31689" d="M5115.048,1804.6v75.1l-6.384,6.417" transform="translate(-5104.862 -1799.465)" fill="#D4B600" stroke="#D4B600" stroke-width="0.7"/>
        <g id="Ellipse_1846" data-name="Ellipse 1846" transform="translate(7 0.091)" fill="#D4B600" stroke="#D4B600" stroke-width="1">
          <circle cx="3" cy="3" r="3" stroke="none"/>
          <circle cx="3" cy="3" r="2.5" fill="none"/>
        </g>
        <g id="Ellipse_1847" data-name="Ellipse 1847" transform="translate(0 84.091)" fill="#D4B600" stroke="#D4B600" stroke-width="1">
          <circle cx="3" cy="3" r="3" stroke="none"/>
          <circle cx="3" cy="3" r="2.5" fill="none"/>
        </g>
      </g>
    </g>
    <g id="Group_14955" data-name="Group 14955" transform="translate(575 159.177)">
      <path id="Path_31690" data-name="Path 31690" d="M5226.045,1784.973l9.058,9.058h45.087" transform="translate(-5221.736 -1779.352)" fill="none" stroke="#D4B600" stroke-width="0.7"/>
      <circle id="Ellipse_1848" data-name="Ellipse 1848" cx="3" cy="3" r="3" transform="translate(0 -0.177)" fill="#D4B600"/>
      <ellipse id="Ellipse_1849" data-name="Ellipse 1849" cx="4" cy="4.5" rx="4" ry="4.5" transform="translate(54 9.823)" fill="#D4B600"/>
    </g>
    <g id="Group_14956" data-name="Group 14956" transform="translate(776.089 154.762)">
      <path id="Path_31691" data-name="Path 31691" d="M5367.7,1782.907h63.729l19.558,19.557v25.245" transform="translate(-5361.052 -1778.794)" fill="none" stroke="#D4B600" stroke-width="0.7"/>
      <circle id="Ellipse_1850" data-name="Ellipse 1850" cx="3" cy="3" r="3" transform="translate(1.911 1.238)" fill="#D4B600"/>
      <circle id="Ellipse_1851" data-name="Ellipse 1851" cx="3" cy="3" r="3" transform="translate(86.911 45.238)" fill="#D4B600"/>
    </g>
    <g id="Group_14958" data-name="Group 14958" transform="translate(852.324 253.977)">
      <path id="Path_31692" data-name="Path 31692" d="M5425.163,1852.163l-4.388,4.387v33.281l11.178,11.177v41.373l-8.615,8.615" transform="translate(-5418.263 -1846.273)" fill="none" stroke="#D4B600" stroke-width="0.7"/>
      <circle id="Ellipse_1852" data-name="Ellipse 1852" cx="3" cy="3" r="3" transform="translate(5.676 1.023)" fill="#D4B600"/>
      <circle id="Ellipse_1853" data-name="Ellipse 1853" cx="3" cy="3" r="3" transform="translate(0.676 102.023)" fill="#D4B600"/>
    </g>
    <g id="Group_14957" data-name="Group 14957" transform="translate(645.746 352.541)">
      <path id="Path_31693" data-name="Path 31693" d="M5276.56,1929.555l11.895-11.895h21.686l8.138,8.138h35.406" transform="translate(-5271.524 -1917.661)" fill="none" stroke="#D4B600" stroke-width="0.7"/>
      <circle id="Ellipse_1854" data-name="Ellipse 1854" cx="3" cy="3" r="3" transform="translate(1.254 10.459)" fill="#D4B600"/>
      <circle id="Ellipse_1855" data-name="Ellipse 1855" cx="3" cy="3" r="3" transform="translate(78.254 5.459)" fill="#D4B600"/>
    </g>
  </g>
</svg>
