<svg width="22" height="18" viewBox="0 0 22 18" fill="none" xmlns="http://www.w3.org/2000/svg">
<path fill-rule="evenodd" clip-rule="evenodd" d="M2.80684 0.0294515C1.76945 0.201311 0.86674 0.913578 0.389409 1.93687C0.246746 2.24275 0.063444 2.79469 0.0965807 2.81856C0.766773 3.30178 10.9278 10.1547 10.9741 10.1547C11.0204 10.1547 21.1814 3.30178 21.8516 2.81856C21.8847 2.79469 21.7015 2.24284 21.559 1.93687C21.1505 1.06037 20.4507 0.427692 19.5465 0.11743L19.2261 0.00757597L11.1241 0.000665549C6.66805 -0.00314719 2.92524 0.00981594 2.80684 0.0294515ZM0 9.89629C0 14.0965 0.00865925 14.7606 0.0676451 15.0809C0.203921 15.8213 0.46297 16.3608 0.943087 16.9043C1.46676 17.497 2.09743 17.8455 2.83162 17.9479C3.33013 18.0174 18.6181 18.0174 19.1166 17.9479C20.2738 17.7866 21.2791 16.9256 21.7139 15.7237C21.9525 15.0639 21.9511 15.0996 21.9384 9.88304L21.9268 5.08042L16.7827 8.56755C13.9534 10.4855 11.5547 12.0963 11.4523 12.1471C11.2004 12.2723 10.7479 12.2723 10.4959 12.1472C10.3935 12.0963 8.02662 10.507 5.23619 8.61531C2.44577 6.72362 0.126116 5.15406 0.0813627 5.12741C0.0017147 5.08004 0 5.18008 0 9.89629Z" fill="white"/>
</svg>
