<svg width="22" height="28" viewBox="0 0 22 28" fill="none" xmlns="http://www.w3.org/2000/svg">
<path d="M16.4578 6.77746V8.48844C16.1045 8.37283 15.731 8.31503 15.3475 8.31503H14.6914V6.77746C14.6914 4.43064 13.026 2.52312 10.9771 2.52312C8.92815 2.52312 7.26275 4.41908 7.25266 6.75434V8.31503H6.60669C6.21305 8.31503 5.83959 8.37283 5.48633 8.5V6.77746C5.49642 3.30925 7.9491 0.5 10.9569 0.5C14.0051 0.5 16.4578 3.30925 16.4578 6.77746Z" fill="white"/>
<path d="M16.4329 7.5C19.4758 7.5 21.9429 10.3138 21.9429 13.7842V21.2158C21.9429 24.6862 19.4758 27.5 16.4329 27.5H5.50998C2.4671 27.5 0 24.6862 0 21.2158V13.7842C0 10.3138 2.4671 7.5 5.50998 7.5H16.4329ZM10.9649 14.5307C10.3353 14.5307 9.82379 15.1141 9.82379 15.8321V19.153C9.82379 19.8859 10.3353 20.4693 10.9649 20.4693C11.6075 20.4693 12.1191 19.8859 12.1191 19.153V15.8321C12.1191 15.1141 11.6075 14.5307 10.9649 14.5307Z" fill="white"/>
</svg>
