<svg width="50" height="50" viewBox="0 0 50 50" fill="none" xmlns="http://www.w3.org/2000/svg">
<path d="M15.625 20.0487C16.2974 18.6474 17.2475 17.4631 18.4449 16.4783C20.0674 15.1378 21.9286 14.3308 24.0153 14.0835C26.4664 13.7929 28.7701 14.2571 30.9002 15.5325C31.4295 15.8492 31.924 16.2093 32.3969 16.5998C32.514 16.6952 32.501 16.7516 32.4012 16.847C31.4338 17.8102 30.4664 18.7733 29.5076 19.745C29.3948 19.8578 29.3341 19.8492 29.2126 19.7581C26.4014 17.5932 22.3017 18.1789 20.2063 21.0422C19.8375 21.5454 19.5382 22.0877 19.3299 22.6777C19.3126 22.7298 19.2779 22.7775 19.2518 22.8296C18.6922 22.4044 18.1282 21.9793 17.5729 21.5498C16.9222 21.0509 16.2714 20.552 15.625 20.0487Z" fill="white"/>
<path d="M19.2503 26.8989C19.4369 27.3111 19.593 27.7406 19.8273 28.1267C20.8121 29.7405 22.2177 30.7774 24.0702 31.1461C25.7404 31.4802 27.3456 31.2546 28.8423 30.4173C28.8944 30.3913 28.9464 30.3652 28.9941 30.3392C29.0202 30.3652 29.0419 30.3956 29.0679 30.4173C30.1872 31.285 31.3108 32.1526 32.4301 33.0203C31.8921 33.5539 31.2804 33.9834 30.6297 34.3565C28.7425 35.4324 26.6992 35.8662 24.5474 35.7014C21.8663 35.4931 19.554 34.4346 17.6451 32.5257C16.8078 31.6884 16.118 30.7427 15.6191 29.6624C16.0833 29.3067 16.5475 28.9553 17.0117 28.5995C17.7579 28.0312 18.5041 27.4672 19.2503 26.8989Z" fill="white"/>
<path d="M32.435 33.0204C31.3157 32.1527 30.1921 31.285 29.0728 30.4174C29.0468 30.3957 29.0208 30.3653 28.9991 30.3393C29.3852 30.0399 29.78 29.7493 30.0967 29.3675C30.6259 28.7341 30.9773 28.0183 31.1595 27.2157C31.1812 27.1159 31.1639 27.0812 31.0641 27.0855C31.012 27.0899 30.9643 27.0855 30.9123 27.0855C29.1422 27.0855 27.3679 27.0812 25.5978 27.0899C25.4026 27.0899 25.3592 27.0378 25.3636 26.8513C25.3722 25.5932 25.3722 24.3351 25.3636 23.0769C25.3636 22.9164 25.407 22.873 25.5675 22.873C28.8125 22.8774 32.0576 22.8774 35.307 22.873C35.4458 22.873 35.5022 22.9078 35.5369 23.0553C35.8015 24.2483 35.7842 25.4457 35.6237 26.6517C35.4935 27.6148 35.2593 28.5476 34.8992 29.4499C34.3656 30.7818 33.5803 31.9445 32.5478 32.9423C32.5088 32.9726 32.4697 32.9943 32.435 33.0204Z" fill="white"/>
<path d="M19.2514 26.8991C18.5052 27.4674 17.7591 28.0314 17.0129 28.5997C16.5487 28.9511 16.0845 29.3068 15.6203 29.6626C15.2602 28.9945 15.0259 28.2873 14.835 27.5585C14.4706 26.1485 14.4142 24.7169 14.6138 23.2809C14.77 22.153 15.0953 21.0684 15.6203 20.0532C16.271 20.5521 16.9174 21.0554 17.5682 21.5543C18.1278 21.9838 18.6875 22.4089 19.2471 22.8341C19.1516 23.2983 19.0172 23.7538 18.9738 24.231C18.8957 25.0987 18.9781 25.9446 19.2254 26.7776C19.2428 26.8123 19.2471 26.8557 19.2514 26.8991Z" fill="white"/>
<rect x="0.5" y="0.5" width="49" height="49" rx="14.5" stroke="white"/>
</svg>
