<svg width="50" height="50" viewBox="0 0 50 50" fill="none" xmlns="http://www.w3.org/2000/svg">
<path d="M24.5 13C26.1415 13 27.767 13.3233 29.2835 13.9515C30.8001 14.5797 32.1781 15.5004 33.3388 16.6612C34.4996 17.8219 35.4203 19.1999 36.0485 20.7165C36.6767 22.233 37 23.8585 37 25.5C37 28.8152 35.683 31.9946 33.3388 34.3388C30.9946 36.683 27.8152 38 24.5 38C18.75 38 13.9375 34.15 12.45 28.9125L17.2375 30.8875C17.5625 32.5 19 33.725 20.7125 33.725C22.6625 33.725 24.25 32.1375 24.25 30.1875V30.025L28.5 26.9875H28.6C31.2 26.9875 33.3125 24.875 33.3125 22.275C33.3125 19.675 31.2 17.5625 28.6 17.5625C26 17.5625 23.875 19.675 23.875 22.275V22.3375L20.9125 26.6625L20.7125 26.65C19.975 26.65 19.2875 26.875 18.725 27.2625L12 24.5C12.5375 18.0625 17.9125 13 24.5 13ZM19.85 31.9625C20.85 32.375 22 31.9125 22.4125 30.9125C22.825 29.9125 22.35 28.775 21.375 28.3625L19.775 27.7C20.3875 27.475 21.075 27.4625 21.725 27.7375C22.3875 28 22.9 28.5125 23.1625 29.175C23.4375 29.825 23.4375 30.55 23.1625 31.2C22.625 32.55 21.0375 33.2 19.6875 32.6375C19.0625 32.375 18.5875 31.9 18.325 31.3375L19.85 31.9625ZM31.75 22.275C31.75 24.0125 30.3375 25.425 28.6 25.425C26.875 25.425 25.4625 24.0125 25.4625 22.275C25.4608 21.8625 25.5409 21.4538 25.698 21.0724C25.855 20.691 26.0861 20.3444 26.3778 20.0528C26.6694 19.7611 27.016 19.53 27.3974 19.373C27.7788 19.2159 28.1875 19.1358 28.6 19.1375C30.3375 19.1375 31.75 20.55 31.75 22.275ZM26.25 22.275C26.25 23.575 27.3 24.6375 28.6125 24.6375C29.9125 24.6375 30.9625 23.575 30.9625 22.275C30.9625 20.975 29.9125 19.9125 28.6125 19.9125C27.3 19.9125 26.25 20.975 26.25 22.275Z" fill="white"/>
<rect x="0.5" y="0.5" width="49" height="49" rx="14.5" stroke="white"/>
</svg>
