<svg width="20" height="24" viewBox="0 0 20 24" fill="none" xmlns="http://www.w3.org/2000/svg">
<path fill-rule="evenodd" clip-rule="evenodd" d="M9.0215 0.0599827C7.80567 0.261339 6.71939 0.868177 5.86797 1.82168C4.93396 2.86767 4.44992 4.07553 4.38336 5.52635C4.2904 7.55268 5.2343 9.48974 6.86168 10.6125C7.66213 11.1647 8.43417 11.4451 9.3693 11.5231C11.1026 11.6678 12.5805 11.0938 13.7737 9.81277C14.7182 8.79867 15.2012 7.69526 15.3188 6.28305C15.4759 4.39659 14.8021 2.63968 13.4514 1.4139C12.5802 0.623294 11.7764 0.232822 10.6688 0.0620934C10.1367 -0.0199408 9.50901 -0.0207382 9.0215 0.0599827ZM4.97799 11.6281C2.96464 11.8521 1.56948 13.3741 0.918892 16.0562C0.485077 17.8446 0.373506 19.9937 0.653456 21.1687C0.878378 22.1126 1.6201 23.0704 2.47927 23.5265C2.86955 23.7336 3.42709 23.9054 3.89198 23.9617C4.16743 23.9951 6.27013 24.0065 10.2904 23.9965L16.2785 23.9815L16.6569 23.8721C18.0618 23.4659 19.026 22.4742 19.3768 21.0749C19.5596 20.3459 19.5362 18.6112 19.3251 17.2405C18.8558 14.1935 17.6717 12.3641 15.7988 11.7923C15.3705 11.6616 14.6044 11.5622 14.3773 11.6079C14.16 11.6516 13.8563 11.8226 13.1707 12.287C12.4404 12.7817 12.3391 12.838 11.7922 13.0538C11.1588 13.3038 10.6361 13.4092 10.0294 13.4093C9.40238 13.4093 8.92288 13.3189 8.29046 13.0812C7.69325 12.8568 7.66738 12.8424 6.73471 12.2184C6.24288 11.8893 5.87901 11.6785 5.7344 11.639C5.48727 11.5715 5.48731 11.5715 4.97799 11.6281Z" fill="white"/>
</svg>
