<svg width="20" height="20" viewBox="0 0 20 20" fill="none" xmlns="http://www.w3.org/2000/svg">
<path d="M13.033 5.98748V6.93802C12.8367 6.8738 12.6293 6.84168 12.4162 6.84168H12.0517V5.98748C12.0517 4.68369 11.1265 3.62396 9.98817 3.62396C8.84987 3.62396 7.92465 4.67726 7.91904 5.97463V6.84168H7.56017C7.34148 6.84168 7.134 6.8738 6.93774 6.94444V5.98748C6.94335 4.06069 8.30595 2.5 9.97695 2.5C11.6704 2.5 13.033 4.06069 13.033 5.98748Z" fill="#69D6CF"/>
<path d="M13.0185 6.38867C14.709 6.38867 16.0796 7.95187 16.0796 9.8799V14.0086C16.0796 15.9366 14.709 17.4998 13.0185 17.4998H6.95026C5.25977 17.4998 3.88916 15.9366 3.88916 14.0086V9.8799C3.88916 7.95187 5.25977 6.38867 6.95026 6.38867H13.0185ZM9.98076 10.2946C9.631 10.2946 9.34682 10.6187 9.34682 11.0176V12.8625C9.34682 13.2697 9.631 13.5939 9.98076 13.5939C10.3378 13.5939 10.622 13.2697 10.622 12.8625V11.0176C10.622 10.6187 10.3378 10.2946 9.98076 10.2946Z" fill="#69D6CF"/>
</svg>
