<svg width="34" height="32" viewBox="0 0 34 32" fill="none" xmlns="http://www.w3.org/2000/svg">
<g filter="url(#filter0_d_128_58789)">
<path d="M6.63752 24.5C6.66951 24.6314 6.72752 24.7551 6.80812 24.8638C6.88873 24.9725 6.99029 25.0639 7.10682 25.1326C7.22334 25.2014 7.35246 25.2461 7.48656 25.2641C7.62065 25.2821 7.75699 25.273 7.88752 25.2375C13.8463 23.5875 20.1413 23.5875 26.1 25.2375C26.2306 25.273 26.3669 25.2821 26.501 25.2641C26.6351 25.2461 26.7642 25.2014 26.8807 25.1326C26.9973 25.0639 27.0988 24.9725 27.1794 24.8638C27.26 24.7551 27.318 24.6314 27.35 24.5L30.5375 10.9625C30.5813 10.7813 30.5735 10.5914 30.5151 10.4144C30.4567 10.2374 30.35 10.0802 30.207 9.9606C30.064 9.84101 29.8905 9.76377 29.7059 9.73759C29.5213 9.71141 29.3331 9.73734 29.1625 9.81246L22.8375 12.625C22.6083 12.7259 22.3499 12.7383 22.1121 12.6598C21.8743 12.5813 21.6741 12.4175 21.55 12.2L17.875 5.57496C17.7885 5.41866 17.6618 5.28837 17.5079 5.19765C17.354 5.10693 17.1787 5.05908 17 5.05908C16.8214 5.05908 16.646 5.10693 16.4921 5.19765C16.3383 5.28837 16.2115 5.41866 16.125 5.57496L12.45 12.2C12.326 12.4175 12.1257 12.5813 11.8879 12.6598C11.6501 12.7383 11.3917 12.7259 11.1625 12.625L4.83752 9.81246C4.66691 9.73734 4.47871 9.71141 4.29414 9.73759C4.10958 9.76377 3.93601 9.84101 3.79302 9.9606C3.65002 10.0802 3.54331 10.2374 3.48491 10.4144C3.42651 10.5914 3.41876 10.7813 3.46252 10.9625L6.63752 24.5Z" stroke="url(#paint0_linear_128_58789)" stroke-width="2" stroke-linecap="round" stroke-linejoin="round"/>
<path d="M13 20.2127C15.6589 19.9252 18.3411 19.9252 21 20.2127" stroke="url(#paint1_linear_128_58789)" stroke-width="2" stroke-linecap="round" stroke-linejoin="round"/>
</g>
<defs>
<filter id="filter0_d_128_58789" x="-1" y="0" width="36" height="36" filterUnits="userSpaceOnUse" color-interpolation-filters="sRGB">
<feFlood flood-opacity="0" result="BackgroundImageFix"/>
<feColorMatrix in="SourceAlpha" type="matrix" values="0 0 0 0 0 0 0 0 0 0 0 0 0 0 0 0 0 0 127 0" result="hardAlpha"/>
<feOffset dy="2"/>
<feGaussianBlur stdDeviation="1"/>
<feComposite in2="hardAlpha" operator="out"/>
<feColorMatrix type="matrix" values="0 0 0 0 0 0 0 0 0 0 0 0 0 0 0 0 0 0 0.09 0"/>
<feBlend mode="normal" in2="BackgroundImageFix" result="effect1_dropShadow_128_58789"/>
<feBlend mode="normal" in="SourceGraphic" in2="effect1_dropShadow_128_58789" result="shape"/>
</filter>
<linearGradient id="paint0_linear_128_58789" x1="18.1531" y1="10.2012" x2="18.6163" y2="25.2609" gradientUnits="userSpaceOnUse">
<stop stop-color="#FFEF8A"/>
<stop offset="1" stop-color="#FFB966"/>
</linearGradient>
<linearGradient id="paint1_linear_128_58789" x1="17" y1="21.5001" x2="17" y2="18.5001" gradientUnits="userSpaceOnUse">
<stop stop-color="#FFE8C7"/>
<stop offset="1" stop-color="white"/>
</linearGradient>
</defs>
</svg>
