<svg width="58" height="59" viewBox="0 0 58 59" fill="none" xmlns="http://www.w3.org/2000/svg">
<g filter="url(#filter0_d_1_300227)">
<g filter="url(#filter1_dd_1_300227)">
<circle cx="29" cy="26" r="20" fill="#261632"/>
<circle cx="29" cy="26" r="19.5" stroke="url(#paint0_linear_1_300227)"/>
</g>
<g filter="url(#filter2_d_1_300227)">
<path d="M15.9807 19.9998H16.0625C16.0732 20.0008 16.084 19.998 16.0926 19.992C16.1012 19.9861 16.1069 19.9774 16.1087 19.9677C16.3255 18.9597 16.976 18.3145 17.9641 18.1315C17.9754 18.1286 17.9851 18.1221 17.9916 18.1133C17.9981 18.1045 18.001 18.0939 17.9997 18.0834C17.9977 18.076 17.9977 18.0683 17.9997 18.0609C17.9985 18.0524 17.9944 18.0445 17.9881 18.0382C17.9817 18.0319 17.9734 18.0275 17.9641 18.0256C16.8978 17.8298 16.2473 17.1171 16.0767 16H16.0198C16.0093 16.0006 15.9994 16.0045 15.9916 16.0109C15.9838 16.0173 15.9787 16.0259 15.9771 16.0353C15.7888 17.1492 15.1063 17.8522 14.0364 18.0288C14.0263 18.0303 14.0172 18.0351 14.0107 18.0421C14.0042 18.0492 14.0007 18.0581 14.0008 18.0673V18.0673C13.9986 18.0783 14.001 18.0897 14.0076 18.0992C14.0141 18.1087 14.0244 18.1157 14.0364 18.1187C15.0672 18.2888 15.739 18.9501 15.9558 19.9934L15.9807 19.9998Z" fill="#B047F1" fill-opacity="0.37" shape-rendering="crispEdges"/>
</g>
<g filter="url(#filter3_d_1_300227)">
<path d="M37.4855 15.9999H37.5468C37.5549 16.0006 37.563 15.9985 37.5694 15.994C37.5759 15.9895 37.5802 15.983 37.5815 15.9758C37.7441 15.2198 38.232 14.7359 38.9731 14.5986C38.9816 14.5964 38.9889 14.5916 38.9937 14.585C38.9986 14.5784 39.0007 14.5704 38.9998 14.5625C38.9983 14.557 38.9983 14.5512 38.9998 14.5457C38.9989 14.5393 38.9958 14.5334 38.991 14.5287C38.9863 14.5239 38.98 14.5206 38.9731 14.5192C38.1733 14.3723 37.6855 13.8378 37.5575 13H37.5149C37.507 13.0005 37.4995 13.0033 37.4937 13.0082C37.4879 13.013 37.4841 13.0194 37.4829 13.0265C37.3416 13.8619 36.8297 14.3892 36.0273 14.5216C36.0197 14.5228 36.0129 14.5263 36.008 14.5316C36.0031 14.5369 36.0005 14.5436 36.0006 14.5505V14.5505C35.9989 14.5588 36.0007 14.5673 36.0057 14.5744C36.0106 14.5815 36.0183 14.5868 36.0273 14.589C36.8004 14.7166 37.3042 15.2126 37.4669 15.995L37.4855 15.9999Z" fill="#B047F1" fill-opacity="0.37" shape-rendering="crispEdges"/>
</g>
<g filter="url(#filter4_d_1_300227)">
<path d="M32.9904 42.9999H33.0312C33.0366 43.0004 33.042 42.999 33.0463 42.996C33.0506 42.993 33.0535 42.9887 33.0543 42.9839C33.1627 42.4799 33.488 42.1573 33.9821 42.0658C33.9877 42.0643 33.9926 42.0611 33.9958 42.0567C33.9991 42.0522 34.0005 42.0469 33.9998 42.0417C33.9989 42.038 33.9989 42.0341 33.9998 42.0305C33.9992 42.0262 33.9972 42.0223 33.994 42.0191C33.9909 42.0159 33.9867 42.0137 33.9821 42.0128C33.4489 41.9149 33.1236 41.5586 33.0383 41H33.0099C33.0047 41.0003 32.9997 41.0022 32.9958 41.0054C32.9919 41.0087 32.9894 41.013 32.9886 41.0177C32.8944 41.5746 32.5531 41.9261 32.0182 42.0144C32.0132 42.0152 32.0086 42.0175 32.0053 42.0211C32.0021 42.0246 32.0003 42.0291 32.0004 42.0337V42.0337C31.9993 42.0392 32.0005 42.0449 32.0038 42.0496C32.0071 42.0544 32.0122 42.0578 32.0182 42.0593C32.5336 42.1444 32.8695 42.4751 32.9779 42.9967L32.9904 42.9999Z" fill="#B047F1" fill-opacity="0.37" shape-rendering="crispEdges"/>
</g>
<path d="M41.0853 31.68L42.6046 32.0184L43.8505 31.0853L43.5121 32.6047L44.4451 33.8506L42.9258 33.5121L41.6799 34.4452L42.0184 32.9259L41.0853 31.68Z" fill="white" fill-opacity="0.09"/>
<path opacity="0.2" d="M21.5427 11.8397L22.3023 12.009L22.9253 11.5424L22.756 12.3021L23.2226 12.925L22.4629 12.7558L21.84 13.2223L22.0092 12.4627L21.5427 11.8397Z" fill="white" fill-opacity="0.17"/>
<path d="M12.628 32.5202L14.9069 33.0278L16.7758 31.6283L16.2681 33.9072L17.6677 35.7761L15.3887 35.2684L13.5199 36.668L14.0275 34.389L12.628 32.5202Z" fill="white" fill-opacity="0.12"/>
<path d="M23.4883 34H27.0273V28.668H30.2852C33.8477 28.668 36.2266 26.3711 36.2266 22.8906V22.8672C36.2266 19.3867 33.8477 17.0898 30.2852 17.0898H23.4883V34ZM29.418 19.8906C31.4453 19.8906 32.6406 20.957 32.6406 22.8789V22.9023C32.6406 24.8242 31.4453 25.9023 29.418 25.9023H27.0273V19.8906H29.418Z" fill="white"/>
</g>
<defs>
<filter id="filter0_d_1_300227" x="5" y="6" width="48" height="48" filterUnits="userSpaceOnUse" color-interpolation-filters="sRGB">
<feFlood flood-opacity="0" result="BackgroundImageFix"/>
<feColorMatrix in="SourceAlpha" type="matrix" values="0 0 0 0 0 0 0 0 0 0 0 0 0 0 0 0 0 0 127 0" result="hardAlpha"/>
<feOffset dy="4"/>
<feGaussianBlur stdDeviation="2"/>
<feComposite in2="hardAlpha" operator="out"/>
<feColorMatrix type="matrix" values="0 0 0 0 0 0 0 0 0 0 0 0 0 0 0 0 0 0 0.25 0"/>
<feBlend mode="normal" in2="BackgroundImageFix" result="effect1_dropShadow_1_300227"/>
<feBlend mode="normal" in="SourceGraphic" in2="effect1_dropShadow_1_300227" result="shape"/>
</filter>
<filter id="filter1_dd_1_300227" x="0" y="0" width="58" height="59" filterUnits="userSpaceOnUse" color-interpolation-filters="sRGB">
<feFlood flood-opacity="0" result="BackgroundImageFix"/>
<feColorMatrix in="SourceAlpha" type="matrix" values="0 0 0 0 0 0 0 0 0 0 0 0 0 0 0 0 0 0 127 0" result="hardAlpha"/>
<feOffset dy="4"/>
<feGaussianBlur stdDeviation="4.5"/>
<feComposite in2="hardAlpha" operator="out"/>
<feColorMatrix type="matrix" values="0 0 0 0 0 0 0 0 0 0 0 0 0 0 0 0 0 0 0.09 0"/>
<feBlend mode="normal" in2="BackgroundImageFix" result="effect1_dropShadow_1_300227"/>
<feColorMatrix in="SourceAlpha" type="matrix" values="0 0 0 0 0 0 0 0 0 0 0 0 0 0 0 0 0 0 127 0" result="hardAlpha"/>
<feOffset dy="-2"/>
<feGaussianBlur stdDeviation="2"/>
<feComposite in2="hardAlpha" operator="out"/>
<feColorMatrix type="matrix" values="0 0 0 0 0.905882 0 0 0 0 0.4 0 0 0 0 0.698039 0 0 0 0.37 0"/>
<feBlend mode="normal" in2="effect1_dropShadow_1_300227" result="effect2_dropShadow_1_300227"/>
<feBlend mode="normal" in="SourceGraphic" in2="effect2_dropShadow_1_300227" result="shape"/>
</filter>
<filter id="filter2_d_1_300227" x="5" y="11" width="22" height="22" filterUnits="userSpaceOnUse" color-interpolation-filters="sRGB">
<feFlood flood-opacity="0" result="BackgroundImageFix"/>
<feColorMatrix in="SourceAlpha" type="matrix" values="0 0 0 0 0 0 0 0 0 0 0 0 0 0 0 0 0 0 127 0" result="hardAlpha"/>
<feOffset dy="4"/>
<feGaussianBlur stdDeviation="4.5"/>
<feComposite in2="hardAlpha" operator="out"/>
<feColorMatrix type="matrix" values="0 0 0 0 0.690196 0 0 0 0 0.278431 0 0 0 0 0.945098 0 0 0 0.17 0"/>
<feBlend mode="normal" in2="BackgroundImageFix" result="effect1_dropShadow_1_300227"/>
<feBlend mode="normal" in="SourceGraphic" in2="effect1_dropShadow_1_300227" result="shape"/>
</filter>
<filter id="filter3_d_1_300227" x="27" y="8" width="21" height="21" filterUnits="userSpaceOnUse" color-interpolation-filters="sRGB">
<feFlood flood-opacity="0" result="BackgroundImageFix"/>
<feColorMatrix in="SourceAlpha" type="matrix" values="0 0 0 0 0 0 0 0 0 0 0 0 0 0 0 0 0 0 127 0" result="hardAlpha"/>
<feOffset dy="4"/>
<feGaussianBlur stdDeviation="4.5"/>
<feComposite in2="hardAlpha" operator="out"/>
<feColorMatrix type="matrix" values="0 0 0 0 0.690196 0 0 0 0 0.278431 0 0 0 0 0.945098 0 0 0 0.17 0"/>
<feBlend mode="normal" in2="BackgroundImageFix" result="effect1_dropShadow_1_300227"/>
<feBlend mode="normal" in="SourceGraphic" in2="effect1_dropShadow_1_300227" result="shape"/>
</filter>
<filter id="filter4_d_1_300227" x="23" y="36" width="20" height="20" filterUnits="userSpaceOnUse" color-interpolation-filters="sRGB">
<feFlood flood-opacity="0" result="BackgroundImageFix"/>
<feColorMatrix in="SourceAlpha" type="matrix" values="0 0 0 0 0 0 0 0 0 0 0 0 0 0 0 0 0 0 127 0" result="hardAlpha"/>
<feOffset dy="4"/>
<feGaussianBlur stdDeviation="4.5"/>
<feComposite in2="hardAlpha" operator="out"/>
<feColorMatrix type="matrix" values="0 0 0 0 0.690196 0 0 0 0 0.278431 0 0 0 0 0.945098 0 0 0 0.17 0"/>
<feBlend mode="normal" in2="BackgroundImageFix" result="effect1_dropShadow_1_300227"/>
<feBlend mode="normal" in="SourceGraphic" in2="effect1_dropShadow_1_300227" result="shape"/>
</filter>
<linearGradient id="paint0_linear_1_300227" x1="9" y1="6" x2="53.9945" y2="13.5965" gradientUnits="userSpaceOnUse">
<stop stop-color="#8B7EFF"/>
<stop offset="0.0001" stop-color="#D749ED"/>
<stop offset="1" stop-color="#FD8F5A"/>
</linearGradient>
</defs>
</svg>
