<svg width="35" height="32" viewBox="0 0 35 32" fill="none" xmlns="http://www.w3.org/2000/svg">
<g filter="url(#filter0_d_128_58704)">
<path d="M23.5 8L31.5 15" stroke="url(#paint0_linear_128_58704)" stroke-width="2" stroke-linecap="round" stroke-linejoin="round"/>
<path d="M23.5 24L31.5 17" stroke="url(#paint1_linear_128_58704)" stroke-width="2" stroke-linecap="round" stroke-linejoin="round"/>
<path d="M11.5 8L3.5 15" stroke="url(#paint2_linear_128_58704)" stroke-width="2" stroke-linecap="round" stroke-linejoin="round"/>
<path d="M11.5 24L3.5 17" stroke="url(#paint3_linear_128_58704)" stroke-width="2" stroke-linecap="round" stroke-linejoin="round"/>
<path d="M30.5 8H4.5C3.94772 8 3.5 8.44772 3.5 9V23C3.5 23.5523 3.94772 24 4.5 24H30.5C31.0523 24 31.5 23.5523 31.5 23V9C31.5 8.44772 31.0523 8 30.5 8Z" stroke="url(#paint4_linear_128_58704)" stroke-width="2" stroke-linecap="round" stroke-linejoin="round"/>
<path d="M17.5 20C19.7091 20 21.5 18.2091 21.5 16C21.5 13.7909 19.7091 12 17.5 12C15.2909 12 13.5 13.7909 13.5 16C13.5 18.2091 15.2909 20 17.5 20Z" stroke="url(#paint5_linear_128_58704)" stroke-width="2" stroke-linecap="round" stroke-linejoin="round"/>
</g>
<defs>
<filter id="filter0_d_128_58704" x="-0.5" y="0" width="36" height="36" filterUnits="userSpaceOnUse" color-interpolation-filters="sRGB">
<feFlood flood-opacity="0" result="BackgroundImageFix"/>
<feColorMatrix in="SourceAlpha" type="matrix" values="0 0 0 0 0 0 0 0 0 0 0 0 0 0 0 0 0 0 127 0" result="hardAlpha"/>
<feOffset dy="2"/>
<feGaussianBlur stdDeviation="1"/>
<feComposite in2="hardAlpha" operator="out"/>
<feColorMatrix type="matrix" values="0 0 0 0 0 0 0 0 0 0 0 0 0 0 0 0 0 0 0.09 0"/>
<feBlend mode="normal" in2="BackgroundImageFix" result="effect1_dropShadow_128_58704"/>
<feBlend mode="normal" in="SourceGraphic" in2="effect1_dropShadow_128_58704" result="shape"/>
</filter>
<linearGradient id="paint0_linear_128_58704" x1="26.7857" y1="6.46875" x2="28.4376" y2="17.041" gradientUnits="userSpaceOnUse">
<stop stop-color="#BCFF9C"/>
<stop offset="1" stop-color="#90EE64"/>
</linearGradient>
<linearGradient id="paint1_linear_128_58704" x1="26.7857" y1="15.4688" x2="28.4376" y2="26.041" gradientUnits="userSpaceOnUse">
<stop stop-color="#BCFF9C"/>
<stop offset="1" stop-color="#90EE64"/>
</linearGradient>
<linearGradient id="paint2_linear_128_58704" x1="6.78571" y1="6.46875" x2="8.43763" y2="17.041" gradientUnits="userSpaceOnUse">
<stop stop-color="#BCFF9C"/>
<stop offset="1" stop-color="#90EE64"/>
</linearGradient>
<linearGradient id="paint3_linear_128_58704" x1="6.78571" y1="15.4688" x2="8.43763" y2="26.041" gradientUnits="userSpaceOnUse">
<stop stop-color="#BCFF9C"/>
<stop offset="1" stop-color="#90EE64"/>
</linearGradient>
<linearGradient id="paint4_linear_128_58704" x1="15" y1="4.5" x2="17.5" y2="29" gradientUnits="userSpaceOnUse">
<stop stop-color="#BCFF9C"/>
<stop offset="1" stop-color="#90EE64"/>
</linearGradient>
<linearGradient id="paint5_linear_128_58704" x1="17.4993" y1="19.4234" x2="17.4993" y2="13.2897" gradientUnits="userSpaceOnUse">
<stop stop-color="#CDB8D2"/>
<stop offset="0.06" stop-color="#D7C0D7"/>
<stop offset="0.29" stop-color="#E6DCE9"/>
<stop offset="0.52" stop-color="#F5EFF5"/>
<stop offset="0.76" stop-color="#FDFBFD"/>
<stop offset="1" stop-color="white"/>
</linearGradient>
</defs>
</svg>
