<svg width="78" height="86" viewBox="0 0 78 86" fill="none" xmlns="http://www.w3.org/2000/svg">
<g filter="url(#filter0_dd_1_2269)">
<rect x="9" y="13" width="60" height="60" rx="30" fill="url(#paint0_linear_1_2269)" shape-rendering="crispEdges"/>
<path d="M39 55C45.6274 55 51 49.6274 51 43C51 36.3726 45.6274 31 39 31C32.3726 31 27 36.3726 27 43C27 49.6274 32.3726 55 39 55Z" stroke="white" stroke-width="2" stroke-linecap="round" stroke-linejoin="round"/>
<path d="M39 51C39.8284 51 40.5 50.3284 40.5 49.5C40.5 48.6716 39.8284 48 39 48C38.1716 48 37.5 48.6716 37.5 49.5C37.5 50.3284 38.1716 51 39 51Z" fill="white"/>
<path d="M39 45V44C39.6922 44 40.3689 43.7947 40.9445 43.4101C41.5201 43.0256 41.9687 42.4789 42.2336 41.8394C42.4985 41.1999 42.5678 40.4961 42.4327 39.8172C42.2977 39.1383 41.9644 38.5146 41.4749 38.0251C40.9854 37.5356 40.3617 37.2023 39.6828 37.0673C39.0039 36.9322 38.3001 37.0015 37.6606 37.2664C37.0211 37.5313 36.4744 37.9799 36.0899 38.5555C35.7053 39.1311 35.5 39.8078 35.5 40.5" stroke="white" stroke-width="2" stroke-linecap="round" stroke-linejoin="round"/>
<rect x="9.5" y="13.5" width="59" height="59" rx="29.5" stroke="url(#paint1_linear_1_2269)" shape-rendering="crispEdges"/>
</g>
<defs>
<filter id="filter0_dd_1_2269" x="0" y="0" width="78" height="86" filterUnits="userSpaceOnUse" color-interpolation-filters="sRGB">
<feFlood flood-opacity="0" result="BackgroundImageFix"/>
<feColorMatrix in="SourceAlpha" type="matrix" values="0 0 0 0 0 0 0 0 0 0 0 0 0 0 0 0 0 0 127 0" result="hardAlpha"/>
<feOffset dy="4"/>
<feGaussianBlur stdDeviation="4.5"/>
<feComposite in2="hardAlpha" operator="out"/>
<feColorMatrix type="matrix" values="0 0 0 0 0 0 0 0 0 0 0 0 0 0 0 0 0 0 0.09 0"/>
<feBlend mode="normal" in2="BackgroundImageFix" result="effect1_dropShadow_1_2269"/>
<feColorMatrix in="SourceAlpha" type="matrix" values="0 0 0 0 0 0 0 0 0 0 0 0 0 0 0 0 0 0 127 0" result="hardAlpha"/>
<feOffset dy="-4"/>
<feGaussianBlur stdDeviation="4.5"/>
<feComposite in2="hardAlpha" operator="out"/>
<feColorMatrix type="matrix" values="0 0 0 0 0.87451 0 0 0 0 0.337255 0 0 0 0 0.827451 0 0 0 0.17 0"/>
<feBlend mode="normal" in2="effect1_dropShadow_1_2269" result="effect2_dropShadow_1_2269"/>
<feBlend mode="normal" in="SourceGraphic" in2="effect2_dropShadow_1_2269" result="shape"/>
</filter>
<linearGradient id="paint0_linear_1_2269" x1="9" y1="13" x2="76.4918" y2="24.3947" gradientUnits="userSpaceOnUse">
<stop stop-color="#8B7EFF"/>
<stop offset="0.0001" stop-color="#D749ED"/>
<stop offset="1" stop-color="#FD8F5A"/>
</linearGradient>
<linearGradient id="paint1_linear_1_2269" x1="39" y1="13" x2="39" y2="60.5" gradientUnits="userSpaceOnUse">
<stop stop-color="white" stop-opacity="0.37"/>
<stop offset="1" stop-color="white" stop-opacity="0"/>
</linearGradient>
</defs>
</svg>
