<svg width="33" height="35" viewBox="0 0 33 35" fill="none" xmlns="http://www.w3.org/2000/svg">
<g filter="url(#filter0_d_1_2265)">
<path d="M16.5 22C22.0228 22 26.5 17.5228 26.5 12C26.5 6.47715 22.0228 2 16.5 2C10.9772 2 6.5 6.47715 6.5 12C6.5 17.5228 10.9772 22 16.5 22Z" stroke="#8F8A93" stroke-width="2" stroke-linecap="round" stroke-linejoin="round"/>
<path d="M16.5 18C19.8137 18 22.5 15.3137 22.5 12C22.5 8.68629 19.8137 6 16.5 6C13.1863 6 10.5 8.68629 10.5 12C10.5 15.3137 13.1863 18 16.5 18Z" stroke="#8F8A93" stroke-width="2" stroke-linecap="round" stroke-linejoin="round"/>
<path d="M22.5 20V30L16.5 27L10.5 30V20" stroke="#8F8A93" stroke-width="2" stroke-linecap="round" stroke-linejoin="round"/>
</g>
<defs>
<filter id="filter0_d_1_2265" x="-1.5" y="0" width="36" height="36" filterUnits="userSpaceOnUse" color-interpolation-filters="sRGB">
<feFlood flood-opacity="0" result="BackgroundImageFix"/>
<feColorMatrix in="SourceAlpha" type="matrix" values="0 0 0 0 0 0 0 0 0 0 0 0 0 0 0 0 0 0 127 0" result="hardAlpha"/>
<feOffset dy="2"/>
<feGaussianBlur stdDeviation="1"/>
<feComposite in2="hardAlpha" operator="out"/>
<feColorMatrix type="matrix" values="0 0 0 0 0 0 0 0 0 0 0 0 0 0 0 0 0 0 0.09 0"/>
<feBlend mode="normal" in2="BackgroundImageFix" result="effect1_dropShadow_1_2265"/>
<feBlend mode="normal" in="SourceGraphic" in2="effect1_dropShadow_1_2265" result="shape"/>
</filter>
</defs>
</svg>
