<svg width="22" height="22" viewBox="0 0 22 22" fill="none" xmlns="http://www.w3.org/2000/svg" xmlns:xlink="http://www.w3.org/1999/xlink">
<rect width="22" height="22" fill="url(#pattern0)"/>
<circle cx="10.0827" cy="10.9999" r="6.41667" fill="#19E77C"/>
<path d="M9.13163 4.52052C9.51547 3.84842 10.4845 3.84842 10.8684 4.52052L12.3344 7.08763C12.4766 7.33658 12.7188 7.51254 12.9995 7.57083L15.894 8.17186C16.6518 8.32922 16.9513 9.25085 16.4307 9.8236L14.4423 12.0112C14.2494 12.2233 14.1569 12.508 14.1882 12.793L14.5111 15.7316C14.5956 16.501 13.8116 17.0706 13.106 16.7524L10.411 15.5373C10.1497 15.4195 9.85032 15.4195 9.58897 15.5373L6.89398 16.7524C6.1884 17.0706 5.40441 16.501 5.48893 15.7316L5.81177 12.793C5.84307 12.508 5.75057 12.2233 5.55774 12.0112L3.56931 9.8236C3.04871 9.25085 3.34817 8.32922 4.10599 8.17186L7.0005 7.57083C7.2812 7.51254 7.52338 7.33658 7.66556 7.08763L9.13163 4.52052Z" fill="#292C43"/>
<defs>
<pattern id="pattern0" patternContentUnits="objectBoundingBox" width="1" height="1">
<use xlink:href="#image0_1_15678" transform="scale(0.00195312)"/>
</pattern>
</defs>
</svg>
