<svg width="24" height="24" viewBox="0 0 24 24" fill="none" xmlns="http://www.w3.org/2000/svg">
<path d="M12 21C16.9706 21 21 16.9706 21 12C21 7.02944 16.9706 3 12 3C7.02944 3 3 7.02944 3 12C3 16.9706 7.02944 21 12 21Z" stroke="url(#paint0_linear_1_15686)" stroke-width="2" stroke-miterlimit="10"/>
<path d="M12 7.5V12.75" stroke="url(#paint1_linear_1_15686)" stroke-width="2" stroke-linecap="round" stroke-linejoin="round"/>
<path d="M12 17.25C12.6213 17.25 13.125 16.7463 13.125 16.125C13.125 15.5037 12.6213 15 12 15C11.3787 15 10.875 15.5037 10.875 16.125C10.875 16.7463 11.3787 17.25 12 17.25Z" fill="url(#paint2_linear_1_15686)"/>
<defs>
<linearGradient id="paint0_linear_1_15686" x1="12" y1="3" x2="12" y2="21" gradientUnits="userSpaceOnUse">
<stop stop-color="#FF7E7E"/>
<stop offset="1" stop-color="#E33535"/>
</linearGradient>
<linearGradient id="paint1_linear_1_15686" x1="12.5" y1="7.5" x2="12.5" y2="12.75" gradientUnits="userSpaceOnUse">
<stop stop-color="#FF7E7E"/>
<stop offset="1" stop-color="#E33535"/>
</linearGradient>
<linearGradient id="paint2_linear_1_15686" x1="12" y1="15" x2="12" y2="17.25" gradientUnits="userSpaceOnUse">
<stop stop-color="#FF7E7E"/>
<stop offset="1" stop-color="#E33535"/>
</linearGradient>
</defs>
</svg>
