<svg width="22" height="100" viewBox="0 0 22 100" fill="none" xmlns="http://www.w3.org/2000/svg">
<path d="M9.48829 86.7457C10.2858 85.8248 11.7145 85.8248 12.512 86.7457L21.1246 96.6907C22.2463 97.986 21.3262 100 19.6127 100H2.38757C0.674062 100 -0.246042 97.986 0.87571 96.6907L9.48829 86.7457Z" fill="url(#paint0_linear_0_1)"/>
<path d="M9.48814 13.2543C10.2857 14.1752 11.7143 14.1752 12.5119 13.2543L21.1244 3.30931C22.2462 2.01402 21.3261 0 19.6126 0H2.38742C0.673915 0 -0.246189 2.01402 0.875563 3.30931L9.48814 13.2543Z" fill="url(#paint1_linear_0_1)"/>
<defs>
<linearGradient id="paint0_linear_0_1" x1="10.9979" y1="98.9189" x2="10.9979" y2="87.4182" gradientUnits="userSpaceOnUse">
<stop stop-color="#CDB8D2"/>
<stop offset="0.06" stop-color="#D7C0D7"/>
<stop offset="0.29" stop-color="#E6DCE9"/>
<stop offset="0.52" stop-color="#F5EFF5"/>
<stop offset="0.76" stop-color="#FDFBFD"/>
<stop offset="1" stop-color="white"/>
</linearGradient>
<linearGradient id="paint1_linear_0_1" x1="11" y1="-2" x2="11" y2="15.5" gradientUnits="userSpaceOnUse">
<stop stop-color="#CDB8D2"/>
<stop offset="0.06" stop-color="#D7C0D7"/>
<stop offset="0.29" stop-color="#E6DCE9"/>
<stop offset="0.52" stop-color="#F5EFF5"/>
<stop offset="0.76" stop-color="#FDFBFD"/>
<stop offset="1" stop-color="white"/>
</linearGradient>
</defs>
</svg>
