<svg width="46" height="46" viewBox="0 0 46 46" fill="none" xmlns="http://www.w3.org/2000/svg">
<g filter="url(#filter0_d_0_1)">
<rect x="9" y="5" width="28" height="28" rx="6" fill="#44365A"/>
<rect x="9.5" y="5.5" width="27" height="27" rx="5.5" stroke="url(#paint0_linear_0_1)"/>
</g>
<path d="M18.0742 12.8105H27.9214L27.306 21.48L24.2287 28.911H21.7669L18.0742 20.8608V12.8105Z" fill="white"/>
<g filter="url(#filter1_d_0_1)">
<path d="M33 19.003C32.995 21.4615 32.0983 23.8336 30.4782 25.674C28.858 27.5144 26.6259 28.6964 24.201 28.9981C24.1469 29.0034 24.0922 28.9974 24.0405 28.9805C23.9888 28.9636 23.9411 28.9361 23.9005 28.8998C23.8599 28.8634 23.8271 28.819 23.8044 28.7693C23.7816 28.7196 23.7693 28.6657 23.7682 28.611V21.3252H26.0762C26.1814 21.3254 26.2855 21.3039 26.3821 21.262C26.4787 21.2201 26.5658 21.1587 26.6379 21.0816C26.71 21.0046 26.7656 20.9134 26.8013 20.8139C26.837 20.7143 26.8521 20.6084 26.8455 20.5028C26.8285 20.3026 26.7366 20.1164 26.5885 19.9817C26.4404 19.847 26.247 19.7739 26.0473 19.7771H23.7682V17.4549C23.7682 17.0443 23.9303 16.6505 24.2189 16.3602C24.5074 16.0699 24.8988 15.9068 25.3069 15.9068H26.8455C26.9507 15.907 27.0548 15.8855 27.1514 15.8436C27.2481 15.8017 27.3351 15.7403 27.4072 15.6632C27.4793 15.5862 27.5349 15.495 27.5706 15.3954C27.6063 15.2959 27.6214 15.19 27.6148 15.0843C27.5978 14.8842 27.5059 14.698 27.3578 14.5633C27.2097 14.4286 27.0163 14.3555 26.8166 14.3587H25.3069C24.4907 14.3587 23.708 14.6849 23.1309 15.2655C22.5538 15.8462 22.2296 16.6337 22.2296 17.4549V19.7771H19.9217C19.8165 19.7769 19.7123 19.7984 19.6157 19.8403C19.5191 19.8822 19.4321 19.9435 19.3599 20.0206C19.2878 20.0977 19.2322 20.1888 19.1965 20.2884C19.1608 20.388 19.1458 20.4939 19.1524 20.5995C19.1694 20.7997 19.2612 20.9859 19.4094 21.1206C19.5575 21.2552 19.7509 21.3284 19.9505 21.3252H22.2296V28.611C22.2299 28.6653 22.2188 28.719 22.1971 28.7687C22.1754 28.8183 22.1436 28.8629 22.1037 28.8993C22.0638 28.9358 22.0167 28.9635 21.9655 28.9805C21.9143 28.9975 21.8601 29.0035 21.8065 28.9981C16.729 28.3788 12.8055 23.9376 13.0075 18.6257C13.1208 16.0024 14.2488 13.5275 16.1506 11.7295C18.0524 9.93141 20.5774 8.95252 23.1867 9.00177C25.7959 9.05102 28.2826 10.1245 30.1161 11.9931C31.9496 13.8616 32.9845 16.3773 33 19.003V19.003Z" fill="#367AFF"/>
</g>
<defs>
<filter id="filter0_d_0_1" x="0" y="0" width="46" height="46" filterUnits="userSpaceOnUse" color-interpolation-filters="sRGB">
<feFlood flood-opacity="0" result="BackgroundImageFix"/>
<feColorMatrix in="SourceAlpha" type="matrix" values="0 0 0 0 0 0 0 0 0 0 0 0 0 0 0 0 0 0 127 0" result="hardAlpha"/>
<feOffset dy="4"/>
<feGaussianBlur stdDeviation="4.5"/>
<feComposite in2="hardAlpha" operator="out"/>
<feColorMatrix type="matrix" values="0 0 0 0 0 0 0 0 0 0 0 0 0 0 0 0 0 0 0.09 0"/>
<feBlend mode="normal" in2="BackgroundImageFix" result="effect1_dropShadow_0_1"/>
<feBlend mode="normal" in="SourceGraphic" in2="effect1_dropShadow_0_1" result="shape"/>
</filter>
<filter id="filter1_d_0_1" x="4" y="4" width="38" height="38" filterUnits="userSpaceOnUse" color-interpolation-filters="sRGB">
<feFlood flood-opacity="0" result="BackgroundImageFix"/>
<feColorMatrix in="SourceAlpha" type="matrix" values="0 0 0 0 0 0 0 0 0 0 0 0 0 0 0 0 0 0 127 0" result="hardAlpha"/>
<feOffset dy="4"/>
<feGaussianBlur stdDeviation="4.5"/>
<feComposite in2="hardAlpha" operator="out"/>
<feColorMatrix type="matrix" values="0 0 0 0 0 0 0 0 0 0 0 0 0 0 0 0 0 0 0.09 0"/>
<feBlend mode="normal" in2="BackgroundImageFix" result="effect1_dropShadow_0_1"/>
<feBlend mode="normal" in="SourceGraphic" in2="effect1_dropShadow_0_1" result="shape"/>
</filter>
<linearGradient id="paint0_linear_0_1" x1="23" y1="5" x2="23" y2="33" gradientUnits="userSpaceOnUse">
<stop stop-color="#665483"/>
<stop offset="1" stop-color="#665483" stop-opacity="0"/>
</linearGradient>
</defs>
</svg>
