<svg width="28" height="28" viewBox="0 0 28 28" fill="none" xmlns="http://www.w3.org/2000/svg">
<circle cx="14" cy="14" r="13.5" fill="#69D6CF" fill-opacity="0.17" stroke="#69D6CF"/>
<path d="M22.25 9.5H5.75C5.33579 9.5 5 9.83579 5 10.25V13.25C5 13.6642 5.33579 14 5.75 14H22.25C22.6642 14 23 13.6642 23 13.25V10.25C23 9.83579 22.6642 9.5 22.25 9.5Z" stroke="white" stroke-width="1.5" stroke-linecap="round" stroke-linejoin="round"/>
<path d="M21.5 14V20.75C21.5 20.9489 21.421 21.1397 21.2803 21.2803C21.1397 21.421 20.9489 21.5 20.75 21.5H7.25C7.05109 21.5 6.86032 21.421 6.71967 21.2803C6.57902 21.1397 6.5 20.9489 6.5 20.75V14" stroke="white" stroke-width="1.5" stroke-linecap="round" stroke-linejoin="round"/>
<path d="M14 9.5V21.5" stroke="white" stroke-width="1.5" stroke-linecap="round" stroke-linejoin="round"/>
<path d="M18.2469 8.44043C17.1781 9.4998 14 9.4998 14 9.4998C14 9.4998 14 6.32168 15.0594 5.25293C15.4821 4.83024 16.0554 4.59277 16.6531 4.59277C17.2509 4.59277 17.8242 4.83024 18.2469 5.25293C18.6696 5.67562 18.907 6.2489 18.907 6.84668C18.907 7.44445 18.6696 8.01774 18.2469 8.44043V8.44043Z" stroke="white" stroke-width="1.5" stroke-linecap="round" stroke-linejoin="round"/>
<path d="M9.7539 8.44043C10.8227 9.4998 14.0008 9.4998 14.0008 9.4998C14.0008 9.4998 14.0008 6.32168 12.9414 5.25293C12.5187 4.83024 11.9454 4.59277 11.3477 4.59277C10.7499 4.59277 10.1766 4.83024 9.7539 5.25293C9.33121 5.67562 9.09375 6.2489 9.09375 6.84668C9.09375 7.44445 9.33121 8.01774 9.7539 8.44043V8.44043Z" stroke="white" stroke-width="1.5" stroke-linecap="round" stroke-linejoin="round"/>
</svg>
