<svg width="46" height="46" viewBox="0 0 46 46" fill="none" xmlns="http://www.w3.org/2000/svg">
<g filter="url(#filter0_d_1_27825)">
<rect x="9" y="5" width="28" height="28" rx="6" fill="#44365A"/>
<rect x="9.5" y="5.5" width="27" height="27" rx="5.5" stroke="url(#paint0_linear_1_27825)"/>
</g>
<g filter="url(#filter1_d_1_27825)">
<path d="M14.3637 26.5048H17.5457V18.777L13 15.3677V25.141C13 25.8956 13.6114 26.5048 14.3637 26.5048Z" fill="#4285F4"/>
<path d="M28.4551 26.5048H31.6371C32.3917 26.5048 33.0008 25.8933 33.0008 25.141V15.3677L28.4551 18.777" fill="#34A853"/>
<path d="M28.4551 12.8676V18.7771L33.0008 15.3678V13.5495C33.0008 11.863 31.0757 10.9016 29.7279 11.913" fill="#FBBC04"/>
<path d="M17.5449 18.7771V12.8677L22.9998 16.9588L28.4547 12.8677V18.7771L22.9998 22.8683" fill="#EA4335"/>
<path d="M13 13.5495V15.3678L17.5457 18.7771V12.8676L16.2729 11.913C14.9229 10.9016 13 11.863 13 13.5495Z" fill="#C5221F"/>
</g>
<defs>
<filter id="filter0_d_1_27825" x="0" y="0" width="46" height="46" filterUnits="userSpaceOnUse" color-interpolation-filters="sRGB">
<feFlood flood-opacity="0" result="BackgroundImageFix"/>
<feColorMatrix in="SourceAlpha" type="matrix" values="0 0 0 0 0 0 0 0 0 0 0 0 0 0 0 0 0 0 127 0" result="hardAlpha"/>
<feOffset dy="4"/>
<feGaussianBlur stdDeviation="4.5"/>
<feComposite in2="hardAlpha" operator="out"/>
<feColorMatrix type="matrix" values="0 0 0 0 0 0 0 0 0 0 0 0 0 0 0 0 0 0 0.09 0"/>
<feBlend mode="normal" in2="BackgroundImageFix" result="effect1_dropShadow_1_27825"/>
<feBlend mode="normal" in="SourceGraphic" in2="effect1_dropShadow_1_27825" result="shape"/>
</filter>
<filter id="filter1_d_1_27825" x="4" y="6.5" width="38.0009" height="33.0049" filterUnits="userSpaceOnUse" color-interpolation-filters="sRGB">
<feFlood flood-opacity="0" result="BackgroundImageFix"/>
<feColorMatrix in="SourceAlpha" type="matrix" values="0 0 0 0 0 0 0 0 0 0 0 0 0 0 0 0 0 0 127 0" result="hardAlpha"/>
<feOffset dy="4"/>
<feGaussianBlur stdDeviation="4.5"/>
<feComposite in2="hardAlpha" operator="out"/>
<feColorMatrix type="matrix" values="0 0 0 0 0 0 0 0 0 0 0 0 0 0 0 0 0 0 0.09 0"/>
<feBlend mode="normal" in2="BackgroundImageFix" result="effect1_dropShadow_1_27825"/>
<feBlend mode="normal" in="SourceGraphic" in2="effect1_dropShadow_1_27825" result="shape"/>
</filter>
<linearGradient id="paint0_linear_1_27825" x1="23" y1="5" x2="23" y2="33" gradientUnits="userSpaceOnUse">
<stop stop-color="#665483"/>
<stop offset="1" stop-color="#665483" stop-opacity="0"/>
</linearGradient>
</defs>
</svg>
