<svg width="46" height="46" viewBox="0 0 46 46" fill="none" xmlns="http://www.w3.org/2000/svg">
<g filter="url(#filter0_d_1_54578)">
<rect x="9" y="5" width="28" height="28" rx="6" fill="#44365A"/>
<rect x="9.5" y="5.5" width="27" height="27" rx="5.5" stroke="url(#paint0_linear_1_54578)"/>
</g>
<g filter="url(#filter1_d_1_54578)">
<path d="M19.6675 19C19.6675 17.1591 21.1594 15.6664 23.0004 15.6664C24.8414 15.6664 26.3341 17.1591 26.3341 19C26.3341 20.8409 24.8414 22.3336 23.0004 22.3336C21.1594 22.3336 19.6675 20.8409 19.6675 19ZM17.8653 19C17.8653 21.836 20.1643 24.1349 23.0004 24.1349C25.8365 24.1349 28.1355 21.836 28.1355 19C28.1355 16.164 25.8365 13.8651 23.0004 13.8651C20.1643 13.8651 17.8653 16.164 17.8653 19ZM27.1387 13.6615C27.1386 13.8989 27.2089 14.1309 27.3407 14.3283C27.4725 14.5257 27.6598 14.6796 27.8791 14.7705C28.0983 14.8614 28.3396 14.8852 28.5724 14.839C28.8052 14.7928 29.0191 14.6786 29.187 14.5109C29.3549 14.3431 29.4693 14.1293 29.5157 13.8966C29.5621 13.6638 29.5384 13.4225 29.4477 13.2032C29.3569 12.9839 29.2032 12.7964 29.0059 12.6645C28.8086 12.5326 28.5766 12.4621 28.3393 12.462H28.3388C28.0206 12.4621 27.7156 12.5886 27.4905 12.8135C27.2655 13.0384 27.139 13.3434 27.1387 13.6615ZM18.9602 27.1398C17.9852 27.0954 17.4553 26.933 17.1031 26.7958C16.6362 26.614 16.3031 26.3975 15.9528 26.0478C15.6026 25.698 15.3858 25.3652 15.2048 24.8983C15.0675 24.5463 14.9051 24.0162 14.8608 23.0413C14.8123 21.9872 14.8026 21.6706 14.8026 19.0001C14.8026 16.3296 14.8131 16.0138 14.8608 14.9589C14.9052 13.9839 15.0688 13.4549 15.2048 13.1018C15.3866 12.635 15.6031 12.3018 15.9528 11.9516C16.3026 11.6014 16.6354 11.3846 17.1031 11.2036C17.4551 11.0663 17.9852 10.9039 18.9602 10.8596C20.0144 10.8111 20.331 10.8014 23.0004 10.8014C25.6698 10.8014 25.9868 10.8119 27.0418 10.8596C28.0168 10.904 28.5458 11.0676 28.8989 11.2036C29.3658 11.3846 29.6989 11.6018 30.0492 11.9516C30.3994 12.3014 30.6154 12.635 30.7972 13.1018C30.9345 13.4538 31.0969 13.9839 31.1412 14.9589C31.1897 16.0138 31.1994 16.3296 31.1994 19.0001C31.1994 21.6706 31.1897 21.9863 31.1412 23.0413C31.0968 24.0162 30.9336 24.5462 30.7972 24.8983C30.6154 25.3652 30.3989 25.6983 30.0492 26.0478C29.6994 26.3972 29.3658 26.614 28.8989 26.7958C28.5469 26.933 28.0168 27.0954 27.0418 27.1398C25.9876 27.1882 25.671 27.1979 23.0004 27.1979C20.3298 27.1979 20.014 27.1882 18.9602 27.1398ZM18.8774 9.06056C17.8128 9.10904 17.0854 9.27784 16.4501 9.52504C15.7921 9.78032 15.2351 10.1228 14.6785 10.6785C14.122 11.2342 13.7804 11.792 13.5251 12.4499C13.2779 13.0856 13.109 13.8126 13.0606 14.8772C13.0113 15.9434 13 16.2843 13 19C13 21.7157 13.0113 22.0566 13.0606 23.1228C13.109 24.1874 13.2779 24.9144 13.5251 25.5501C13.7804 26.2076 14.122 26.7661 14.6785 27.3215C15.235 27.877 15.7921 28.219 16.4501 28.475C17.0866 28.7222 17.8128 28.891 18.8774 28.9394C19.9443 28.9879 20.2846 29 23.0004 29C25.7162 29 26.0571 28.9887 27.1234 28.9394C28.188 28.891 28.915 28.7222 29.5507 28.475C30.2083 28.219 30.7657 27.8772 31.3223 27.3215C31.8788 26.7658 32.2197 26.2076 32.4757 25.5501C32.723 24.9144 32.8926 24.1874 32.9402 23.1228C32.9887 22.0558 33 21.7157 33 19C33 16.2843 32.9887 15.9434 32.9402 14.8772C32.8918 13.8126 32.723 13.0852 32.4757 12.4499C32.2197 11.7924 31.878 11.235 31.3223 10.6785C30.7666 10.1219 30.2083 9.78032 29.5515 9.52504C28.915 9.27784 28.188 9.10824 27.1242 9.06056C26.0579 9.01208 25.717 9 23.0012 9C20.2854 9 19.9443 9.01128 18.8774 9.06056Z" fill="url(#paint1_radial_1_54578)"/>
<path d="M19.6675 19C19.6675 17.1591 21.1594 15.6664 23.0004 15.6664C24.8414 15.6664 26.3341 17.1591 26.3341 19C26.3341 20.8409 24.8414 22.3336 23.0004 22.3336C21.1594 22.3336 19.6675 20.8409 19.6675 19ZM17.8653 19C17.8653 21.836 20.1643 24.1349 23.0004 24.1349C25.8365 24.1349 28.1355 21.836 28.1355 19C28.1355 16.164 25.8365 13.8651 23.0004 13.8651C20.1643 13.8651 17.8653 16.164 17.8653 19ZM27.1387 13.6615C27.1386 13.8989 27.2089 14.1309 27.3407 14.3283C27.4725 14.5257 27.6598 14.6796 27.8791 14.7705C28.0983 14.8614 28.3396 14.8852 28.5724 14.839C28.8052 14.7928 29.0191 14.6786 29.187 14.5109C29.3549 14.3431 29.4693 14.1293 29.5157 13.8966C29.5621 13.6638 29.5384 13.4225 29.4477 13.2032C29.3569 12.9839 29.2032 12.7964 29.0059 12.6645C28.8086 12.5326 28.5766 12.4621 28.3393 12.462H28.3388C28.0206 12.4621 27.7156 12.5886 27.4905 12.8135C27.2655 13.0384 27.139 13.3434 27.1387 13.6615ZM18.9602 27.1398C17.9852 27.0954 17.4553 26.933 17.1031 26.7958C16.6362 26.614 16.3031 26.3975 15.9528 26.0478C15.6026 25.698 15.3858 25.3652 15.2048 24.8983C15.0675 24.5463 14.9051 24.0162 14.8608 23.0413C14.8123 21.9872 14.8026 21.6706 14.8026 19.0001C14.8026 16.3296 14.8131 16.0138 14.8608 14.9589C14.9052 13.9839 15.0688 13.4549 15.2048 13.1018C15.3866 12.635 15.6031 12.3018 15.9528 11.9516C16.3026 11.6014 16.6354 11.3846 17.1031 11.2036C17.4551 11.0663 17.9852 10.9039 18.9602 10.8596C20.0144 10.8111 20.331 10.8014 23.0004 10.8014C25.6698 10.8014 25.9868 10.8119 27.0418 10.8596C28.0168 10.904 28.5458 11.0676 28.8989 11.2036C29.3658 11.3846 29.6989 11.6018 30.0492 11.9516C30.3994 12.3014 30.6154 12.635 30.7972 13.1018C30.9345 13.4538 31.0969 13.9839 31.1412 14.9589C31.1897 16.0138 31.1994 16.3296 31.1994 19.0001C31.1994 21.6706 31.1897 21.9863 31.1412 23.0413C31.0968 24.0162 30.9336 24.5462 30.7972 24.8983C30.6154 25.3652 30.3989 25.6983 30.0492 26.0478C29.6994 26.3972 29.3658 26.614 28.8989 26.7958C28.5469 26.933 28.0168 27.0954 27.0418 27.1398C25.9876 27.1882 25.671 27.1979 23.0004 27.1979C20.3298 27.1979 20.014 27.1882 18.9602 27.1398ZM18.8774 9.06056C17.8128 9.10904 17.0854 9.27784 16.4501 9.52504C15.7921 9.78032 15.2351 10.1228 14.6785 10.6785C14.122 11.2342 13.7804 11.792 13.5251 12.4499C13.2779 13.0856 13.109 13.8126 13.0606 14.8772C13.0113 15.9434 13 16.2843 13 19C13 21.7157 13.0113 22.0566 13.0606 23.1228C13.109 24.1874 13.2779 24.9144 13.5251 25.5501C13.7804 26.2076 14.122 26.7661 14.6785 27.3215C15.235 27.877 15.7921 28.219 16.4501 28.475C17.0866 28.7222 17.8128 28.891 18.8774 28.9394C19.9443 28.9879 20.2846 29 23.0004 29C25.7162 29 26.0571 28.9887 27.1234 28.9394C28.188 28.891 28.915 28.7222 29.5507 28.475C30.2083 28.219 30.7657 27.8772 31.3223 27.3215C31.8788 26.7658 32.2197 26.2076 32.4757 25.5501C32.723 24.9144 32.8926 24.1874 32.9402 23.1228C32.9887 22.0558 33 21.7157 33 19C33 16.2843 32.9887 15.9434 32.9402 14.8772C32.8918 13.8126 32.723 13.0852 32.4757 12.4499C32.2197 11.7924 31.878 11.235 31.3223 10.6785C30.7666 10.1219 30.2083 9.78032 29.5515 9.52504C28.915 9.27784 28.188 9.10824 27.1242 9.06056C26.0579 9.01208 25.717 9 23.0012 9C20.2854 9 19.9443 9.01128 18.8774 9.06056Z" fill="url(#paint2_radial_1_54578)"/>
</g>
<defs>
<filter id="filter0_d_1_54578" x="0" y="0" width="46" height="46" filterUnits="userSpaceOnUse" color-interpolation-filters="sRGB">
<feFlood flood-opacity="0" result="BackgroundImageFix"/>
<feColorMatrix in="SourceAlpha" type="matrix" values="0 0 0 0 0 0 0 0 0 0 0 0 0 0 0 0 0 0 127 0" result="hardAlpha"/>
<feOffset dy="4"/>
<feGaussianBlur stdDeviation="4.5"/>
<feComposite in2="hardAlpha" operator="out"/>
<feColorMatrix type="matrix" values="0 0 0 0 0 0 0 0 0 0 0 0 0 0 0 0 0 0 0.09 0"/>
<feBlend mode="normal" in2="BackgroundImageFix" result="effect1_dropShadow_1_54578"/>
<feBlend mode="normal" in="SourceGraphic" in2="effect1_dropShadow_1_54578" result="shape"/>
</filter>
<filter id="filter1_d_1_54578" x="4" y="4" width="38" height="38" filterUnits="userSpaceOnUse" color-interpolation-filters="sRGB">
<feFlood flood-opacity="0" result="BackgroundImageFix"/>
<feColorMatrix in="SourceAlpha" type="matrix" values="0 0 0 0 0 0 0 0 0 0 0 0 0 0 0 0 0 0 127 0" result="hardAlpha"/>
<feOffset dy="4"/>
<feGaussianBlur stdDeviation="4.5"/>
<feComposite in2="hardAlpha" operator="out"/>
<feColorMatrix type="matrix" values="0 0 0 0 0 0 0 0 0 0 0 0 0 0 0 0 0 0 0.09 0"/>
<feBlend mode="normal" in2="BackgroundImageFix" result="effect1_dropShadow_1_54578"/>
<feBlend mode="normal" in="SourceGraphic" in2="effect1_dropShadow_1_54578" result="shape"/>
</filter>
<linearGradient id="paint0_linear_1_54578" x1="23" y1="5" x2="23" y2="33" gradientUnits="userSpaceOnUse">
<stop stop-color="#665483"/>
<stop offset="1" stop-color="#665483" stop-opacity="0"/>
</linearGradient>
<radialGradient id="paint1_radial_1_54578" cx="0" cy="0" r="1" gradientUnits="userSpaceOnUse" gradientTransform="translate(15.6572 29.0945) scale(26.1094 26.1083)">
<stop offset="0.09" stop-color="#FA8F21"/>
<stop offset="0.78" stop-color="#D82D7E"/>
</radialGradient>
<radialGradient id="paint2_radial_1_54578" cx="0" cy="0" r="1" gradientUnits="userSpaceOnUse" gradientTransform="translate(25.1296 29.9905) scale(20.5778 20.577)">
<stop offset="0.64" stop-color="#8C3AAA" stop-opacity="0"/>
<stop offset="1" stop-color="#8C3AAA"/>
</radialGradient>
</defs>
</svg>
