<svg width="46" height="46" viewBox="0 0 46 46" fill="none" xmlns="http://www.w3.org/2000/svg">
<g filter="url(#filter0_d_1_27822)">
<rect x="9" y="5" width="28" height="28" rx="6" fill="#44365A"/>
<rect x="9.5" y="5.5" width="27" height="27" rx="5.5" stroke="url(#paint0_linear_1_27822)"/>
</g>
<g filter="url(#filter1_d_1_27822)">
<path d="M23 29C28.5228 29 33 24.5228 33 19C33 13.4772 28.5228 9 23 9C17.4772 9 13 13.4772 13 19C13 24.5228 17.4772 29 23 29Z" fill="#34AADF"/>
</g>
<path d="M17.288 18.7809C17.288 18.7809 22.2415 16.6735 23.9594 15.9315C24.618 15.6347 26.8513 14.6848 26.8513 14.6848C26.8513 14.6848 27.8821 14.2693 27.7962 15.2785C27.7676 15.694 27.5385 17.1484 27.3095 18.7216C26.9659 20.9477 26.5936 23.3816 26.5936 23.3816C26.5936 23.3816 26.5364 24.0643 26.0496 24.183C25.5629 24.3017 24.7611 23.7675 24.618 23.6487C24.5034 23.5597 22.4705 22.224 21.7261 21.571C21.5256 21.3929 21.2966 21.0368 21.7547 20.6212C22.7855 19.6417 24.0167 18.4248 24.7611 17.653C25.1047 17.2968 25.4483 16.4658 24.0167 17.4749C21.9838 18.9293 19.9795 20.2947 19.9795 20.2947C19.9795 20.2947 19.5213 20.5915 18.6623 20.3244C17.8033 20.0573 16.8012 19.7011 16.8012 19.7011C16.8012 19.7011 16.114 19.2558 17.288 18.7809Z" fill="white"/>
<defs>
<filter id="filter0_d_1_27822" x="0" y="0" width="46" height="46" filterUnits="userSpaceOnUse" color-interpolation-filters="sRGB">
<feFlood flood-opacity="0" result="BackgroundImageFix"/>
<feColorMatrix in="SourceAlpha" type="matrix" values="0 0 0 0 0 0 0 0 0 0 0 0 0 0 0 0 0 0 127 0" result="hardAlpha"/>
<feOffset dy="4"/>
<feGaussianBlur stdDeviation="4.5"/>
<feComposite in2="hardAlpha" operator="out"/>
<feColorMatrix type="matrix" values="0 0 0 0 0 0 0 0 0 0 0 0 0 0 0 0 0 0 0.09 0"/>
<feBlend mode="normal" in2="BackgroundImageFix" result="effect1_dropShadow_1_27822"/>
<feBlend mode="normal" in="SourceGraphic" in2="effect1_dropShadow_1_27822" result="shape"/>
</filter>
<filter id="filter1_d_1_27822" x="4" y="4" width="38" height="38" filterUnits="userSpaceOnUse" color-interpolation-filters="sRGB">
<feFlood flood-opacity="0" result="BackgroundImageFix"/>
<feColorMatrix in="SourceAlpha" type="matrix" values="0 0 0 0 0 0 0 0 0 0 0 0 0 0 0 0 0 0 127 0" result="hardAlpha"/>
<feOffset dy="4"/>
<feGaussianBlur stdDeviation="4.5"/>
<feComposite in2="hardAlpha" operator="out"/>
<feColorMatrix type="matrix" values="0 0 0 0 0 0 0 0 0 0 0 0 0 0 0 0 0 0 0.09 0"/>
<feBlend mode="normal" in2="BackgroundImageFix" result="effect1_dropShadow_1_27822"/>
<feBlend mode="normal" in="SourceGraphic" in2="effect1_dropShadow_1_27822" result="shape"/>
</filter>
<linearGradient id="paint0_linear_1_27822" x1="23" y1="5" x2="23" y2="33" gradientUnits="userSpaceOnUse">
<stop stop-color="#665483"/>
<stop offset="1" stop-color="#665483" stop-opacity="0"/>
</linearGradient>
</defs>
</svg>
