<svg width="32" height="32" viewBox="0 0 32 32" fill="none" xmlns="http://www.w3.org/2000/svg">
<circle cx="16" cy="16" r="15.5" fill="#69D6CF" fill-opacity="0.17" stroke="#69D6CF"/>
<path d="M16 20.875C18.0711 20.875 19.75 19.1961 19.75 17.125C19.75 15.0539 18.0711 13.375 16 13.375C13.9289 13.375 12.25 15.0539 12.25 17.125C12.25 19.1961 13.9289 20.875 16 20.875Z" stroke="white" stroke-width="2" stroke-linecap="round" stroke-linejoin="round"/>
<path d="M22.375 14.875C23.2485 14.8735 24.1103 15.0762 24.8916 15.4669C25.6729 15.8575 26.3521 16.4253 26.875 17.125" stroke="white" stroke-width="2" stroke-linecap="round" stroke-linejoin="round"/>
<path d="M5.125 17.125C5.64794 16.4253 6.32714 15.8575 7.10843 15.4669C7.88972 15.0762 8.75149 14.8735 9.625 14.875" stroke="white" stroke-width="2" stroke-linecap="round" stroke-linejoin="round"/>
<path d="M10.6016 24.25C11.0955 23.2386 11.8635 22.3861 12.8182 21.7899C13.7729 21.1936 14.8759 20.8774 16.0016 20.8774C17.1272 20.8774 18.2302 21.1936 19.1849 21.7899C20.1396 22.3861 20.9077 23.2386 21.4016 24.25" stroke="white" stroke-width="2" stroke-linecap="round" stroke-linejoin="round"/>
<path d="M9.62414 14.875C9.05474 14.8756 8.49694 14.7141 8.0159 14.4094C7.53487 14.1048 7.15047 13.6695 6.90763 13.1545C6.66478 12.6395 6.57352 12.066 6.6445 11.501C6.71548 10.9361 6.94577 10.403 7.30847 9.96404C7.67117 9.52511 8.15129 9.19845 8.69274 9.02225C9.23419 8.84605 9.81461 8.82758 10.3662 8.96899C10.9177 9.11041 11.4176 9.40587 11.8075 9.82085C12.1974 10.2358 12.4611 10.7532 12.5679 11.3125" stroke="white" stroke-width="2" stroke-linecap="round" stroke-linejoin="round"/>
<path d="M19.4297 11.3125C19.5364 10.7532 19.8002 10.2358 20.1901 9.82085C20.5799 9.40587 21.0799 9.11041 21.6314 8.96899C22.183 8.82758 22.7634 8.84605 23.3048 9.02225C23.8463 9.19845 24.3264 9.52511 24.6891 9.96404C25.0518 10.403 25.2821 10.9361 25.3531 11.501C25.4241 12.066 25.3328 12.6395 25.0899 13.1545C24.8471 13.6695 24.4627 14.1048 23.9817 14.4094C23.5006 14.7141 22.9428 14.8756 22.3734 14.875" stroke="white" stroke-width="2" stroke-linecap="round" stroke-linejoin="round"/>
</svg>
