<svg width="16" height="16" viewBox="0 0 16 16" fill="none" xmlns="http://www.w3.org/2000/svg">
<path d="M12.9438 5.54373L12.8 5.40623L14.3563 3.85623C14.436 3.75908 14.4767 3.63575 14.4706 3.51023C14.4644 3.3847 14.4118 3.26595 14.3229 3.17709C14.234 3.08822 14.1153 3.03558 13.9898 3.02942C13.8642 3.02325 13.7409 3.064 13.6438 3.14373L12.025 4.76873C10.848 3.94063 9.44342 3.49724 8.00427 3.49948C6.56512 3.50172 5.16195 3.94947 3.9875 4.78123L2.35625 3.14373C2.2591 3.064 2.13577 3.02325 2.01025 3.02942C1.88472 3.03558 1.76597 3.08822 1.67711 3.17709C1.58824 3.26595 1.5356 3.3847 1.52944 3.51023C1.52327 3.63575 1.56402 3.75908 1.64375 3.85623L3.2125 5.41873C2.51294 6.08163 1.95593 6.88023 1.57551 7.76572C1.1951 8.65121 0.99927 9.60498 1 10.5687V12C1 12.2652 1.10536 12.5196 1.2929 12.7071C1.48043 12.8946 1.73479 13 2 13H14C14.2652 13 14.5196 12.8946 14.7071 12.7071C14.8946 12.5196 15 12.2652 15 12V10.5C15.0028 9.57881 14.8225 8.66627 14.4695 7.81541C14.1165 6.96455 13.5979 6.19236 12.9438 5.54373ZM5.75 10.5C5.60167 10.5 5.45666 10.456 5.33332 10.3736C5.20999 10.2912 5.11386 10.174 5.05709 10.037C5.00033 9.89995 4.98547 9.74915 5.01441 9.60366C5.04335 9.45818 5.11478 9.32454 5.21967 9.21965C5.32456 9.11476 5.4582 9.04333 5.60368 9.01439C5.74917 8.98545 5.89997 9.00031 6.03701 9.05707C6.17406 9.11384 6.29119 9.20997 6.3736 9.3333C6.45602 9.45664 6.5 9.60164 6.5 9.74998C6.5 9.94889 6.42098 10.1397 6.28033 10.2803C6.13968 10.421 5.94891 10.5 5.75 10.5ZM10.25 10.5C10.1017 10.5 9.95666 10.456 9.83332 10.3736C9.70999 10.2912 9.61386 10.174 9.55709 10.037C9.50033 9.89995 9.48547 9.74915 9.51441 9.60366C9.54335 9.45818 9.61478 9.32454 9.71967 9.21965C9.82456 9.11476 9.9582 9.04333 10.1037 9.01439C10.2492 8.98545 10.4 9.00031 10.537 9.05707C10.6741 9.11384 10.7912 9.20997 10.8736 9.3333C10.956 9.45664 11 9.60164 11 9.74998C11 9.94889 10.921 10.1397 10.7803 10.2803C10.6397 10.421 10.4489 10.5 10.25 10.5Z" fill="white"/>
</svg>
