<svg width="16" height="16" viewBox="0 0 16 16" fill="none" xmlns="http://www.w3.org/2000/svg">
<path d="M8.16875 1.85C8.35189 1.38016 8.67217 0.976297 9.08794 0.690942C9.50372 0.405588 9.99573 0.251946 10.5 0.25C10.6326 0.25 10.7598 0.302678 10.8536 0.396447C10.9473 0.490215 11 0.617392 11 0.75C11 0.882608 10.9473 1.00979 10.8536 1.10355C10.7598 1.19732 10.6326 1.25 10.5 1.25C10.1969 1.25094 9.90112 1.34331 9.65135 1.51503C9.40158 1.68675 9.20942 1.92983 9.1 2.2125C9.06331 2.30683 8.99886 2.38781 8.91516 2.44472C8.83146 2.50163 8.73246 2.53181 8.63125 2.53125C8.57165 2.52997 8.51261 2.51943 8.45625 2.5C8.39448 2.47648 8.33799 2.44095 8.29004 2.39546C8.24209 2.34997 8.20363 2.29542 8.1769 2.23498C8.15016 2.17453 8.13568 2.10938 8.13428 2.0433C8.13288 1.97722 8.1446 1.91152 8.16875 1.85ZM13.875 9.7375C13.4754 9.53681 13.137 9.23262 12.895 8.85663C12.6529 8.48065 12.5162 8.04664 12.4989 7.59982C12.4817 7.15301 12.5846 6.70975 12.797 6.31624C13.0093 5.92273 13.3233 5.59338 13.7063 5.3625C13.7657 5.32479 13.8167 5.27525 13.8562 5.21696C13.8956 5.15866 13.9226 5.09287 13.9355 5.02368C13.9484 4.95448 13.9469 4.88338 13.9311 4.81479C13.9154 4.74619 13.8856 4.68159 13.8438 4.625C13.1644 3.75941 12.1757 3.19106 11.0858 3.03952C9.99594 2.88799 8.88976 3.16508 8 3.8125C7.36595 3.3513 6.61668 3.07448 5.83508 3.01266C5.05347 2.95085 4.27 3.10645 3.57134 3.46225C2.87268 3.81805 2.28605 4.36018 1.87637 5.02867C1.46668 5.69716 1.2499 6.46596 1.25 7.25C1.26504 8.89838 1.76261 10.5062 2.68125 11.875C3.58125 13.2063 4.725 14 5.75 14H10.25C11.6563 14 13.2438 12.5063 14.1188 10.375C14.168 10.2578 14.1702 10.1261 14.1248 10.0074C14.0794 9.8886 13.9899 9.79194 13.875 9.7375Z" fill="white"/>
</svg>
