<svg width="16" height="16" viewBox="0 0 16 16" fill="none" xmlns="http://www.w3.org/2000/svg">
<path d="M13 2.5H3C2.17157 2.5 1.5 3.17157 1.5 4V11C1.5 11.8284 2.17157 12.5 3 12.5H13C13.8284 12.5 14.5 11.8284 14.5 11V4C14.5 3.17157 13.8284 2.5 13 2.5Z" fill="white"/>
<path d="M10 13.5H6C5.86739 13.5 5.74021 13.5527 5.64645 13.6464C5.55268 13.7402 5.5 13.8674 5.5 14C5.5 14.1326 5.55268 14.2598 5.64645 14.3536C5.74021 14.4473 5.86739 14.5 6 14.5H10C10.1326 14.5 10.2598 14.4473 10.3536 14.3536C10.4473 14.2598 10.5 14.1326 10.5 14C10.5 13.8674 10.4473 13.7402 10.3536 13.6464C10.2598 13.5527 10.1326 13.5 10 13.5Z" fill="white"/>
</svg>
