<svg width="20" height="20" viewBox="0 0 20 20" fill="none" xmlns="http://www.w3.org/2000/svg">
<path d="M18.6877 7.60938C18.6095 7.36327 18.4587 7.14654 18.2552 6.98761C18.0516 6.82868 17.8048 6.73496 17.5471 6.71875L12.9065 6.39844L11.1877 2.0625C11.0939 1.82375 10.9305 1.61867 10.7188 1.47382C10.5071 1.32896 10.2567 1.25099 10.0002 1.25C9.74368 1.25099 9.49335 1.32896 9.28164 1.47382C9.06992 1.61867 8.90656 1.82375 8.81271 2.0625L7.06271 6.42188L2.45334 6.71875C2.19592 6.73601 1.9496 6.83012 1.74625 6.9889C1.5429 7.14768 1.39188 7.36383 1.31271 7.60938C1.23141 7.85869 1.22666 8.12664 1.29907 8.37868C1.37148 8.63072 1.51773 8.85529 1.71896 9.02344L5.26584 12.0234L4.21115 16.1719C4.13818 16.4525 4.15131 16.7486 4.24884 17.0217C4.34637 17.2948 4.52378 17.5322 4.75802 17.7031C4.98539 17.8663 5.25628 17.9579 5.53602 17.9663C5.81577 17.9746 6.09164 17.8993 6.32834 17.75L9.9924 15.4297H10.008L13.9533 17.9219C14.1557 18.0534 14.3917 18.1239 14.633 18.125C14.8301 18.1235 15.0242 18.0767 15.2004 17.9884C15.3766 17.9002 15.5302 17.7727 15.6494 17.6157C15.7686 17.4588 15.8502 17.2766 15.888 17.0832C15.9258 16.8898 15.9188 16.6903 15.8674 16.5L14.7502 11.9609L18.2815 9.02344C18.4827 8.85529 18.6289 8.63072 18.7013 8.37868C18.7738 8.12664 18.769 7.85869 18.6877 7.60938Z" fill="#FFB525"/>
</svg>
