<svg width="25" height="25" viewBox="0 0 25 25" fill="none" xmlns="http://www.w3.org/2000/svg">
<path d="M12.5 0C5.59635 0 0 5.59635 0 12.5C0 19.4036 5.59635 25 12.5 25C19.4036 25 25 19.4036 25 12.5C25 5.59635 19.4036 0 12.5 0ZM12.5 22.6562C6.89948 22.6562 2.34375 18.1 2.34375 12.5C2.34375 6.9 6.89948 2.34375 12.5 2.34375C18.1005 2.34375 22.6562 6.89948 22.6562 12.5C22.6562 18.1005 18.1 22.6562 12.5 22.6562Z" fill="#F42842"/>
<path d="M13.1451 12.9055H11.5039V15.3435H13.1451C13.4763 15.3435 13.7836 15.2092 13.9992 14.9836C14.2247 14.7675 14.3591 14.4607 14.3591 14.1196C14.3596 13.4524 13.8122 12.9055 13.1451 12.9055V12.9055Z" fill="#F42842"/>
<path d="M12.4993 3.38525C7.47331 3.38525 3.38477 7.4738 3.38477 12.4998C3.38477 17.5259 7.47331 21.6144 12.4993 21.6144C17.5254 21.6144 21.6139 17.5254 21.6139 12.4998C21.6139 7.47432 17.5249 3.38525 12.4993 3.38525ZM14.354 16.7207H13.279V18.4103H12.1514V16.7207H11.5322V18.4103H10.3993V16.7207H8.40768V15.6603H9.50664V9.30609H8.40768V8.24567H10.3993V6.58994H11.5322V8.24567H12.1514V6.58994H13.279V8.24567H14.2582C14.8051 8.24567 15.3092 8.47119 15.6691 8.83109C16.029 9.19098 16.2546 9.69515 16.2546 10.242C16.2546 11.3123 15.4098 12.1858 14.354 12.2337C15.5921 12.2337 16.5905 13.2415 16.5905 14.4795C16.5905 15.7129 15.5926 16.7207 14.354 16.7207V16.7207Z" fill="#F42842"/>
<path d="M13.8701 11.4082C14.0669 11.2114 14.1867 10.9473 14.1867 10.6499C14.1867 10.0598 13.707 9.57959 13.1164 9.57959H11.5039V11.7249H13.1164C13.4091 11.7249 13.6779 11.5999 13.8701 11.4082Z" fill="#F42842"/>
</svg>
