<svg width="25" height="25" viewBox="0 0 25 25" fill="none" xmlns="http://www.w3.org/2000/svg">
<path d="M16.9434 8.88672C12.5009 8.88672 8.88672 12.5009 8.88672 16.9434C8.88672 21.3858 12.5009 25 16.9434 25C21.3858 25 25 21.3858 25 16.9434C25 12.5009 21.3858 8.88672 16.9434 8.88672ZM16.9434 16.2109C18.155 16.2109 19.1406 17.1966 19.1406 18.4082C19.1406 19.3618 18.5265 20.1672 17.6758 20.4706V22.0703H16.2109V20.4706C15.3603 20.1672 14.7461 19.3618 14.7461 18.4082H16.2109C16.2109 18.8123 16.5393 19.1406 16.9434 19.1406C17.3475 19.1406 17.6758 18.8123 17.6758 18.4082C17.6758 18.0041 17.3475 17.6758 16.9434 17.6758C15.7317 17.6758 14.7461 16.6901 14.7461 15.4785C14.7461 14.5249 15.3603 13.7195 16.2109 13.4162V11.8164H17.6758V13.4162C18.5265 13.7195 19.1406 14.5249 19.1406 15.4785H17.6758C17.6758 15.0744 17.3475 14.7461 16.9434 14.7461C16.5393 14.7461 16.2109 15.0744 16.2109 15.4785C16.2109 15.8826 16.5393 16.2109 16.9434 16.2109Z" fill="#FA2843"/>
<path d="M8.1543 8.88672C12.6719 8.88672 16.2109 6.95625 16.2109 4.49219C16.2109 2.02812 12.6719 0 8.1543 0C3.63672 0 0 2.02812 0 4.49219C0 6.95625 3.63672 8.88672 8.1543 8.88672Z" fill="#FA2843"/>
<path d="M0 16.4824V17.6758C0 20.1399 3.63672 22.0704 8.1543 22.0704C8.41055 22.0704 8.65884 22.0468 8.91113 22.0344C8.34932 21.1511 7.93032 20.1709 7.68359 19.123C4.41675 19.0329 1.58018 18.029 0 16.4824Z" fill="#FA2843"/>
<path d="M7.45708 17.6385C7.44028 17.4082 7.42188 17.178 7.42188 16.9434C7.42188 16.1799 7.52192 15.4409 7.69253 14.7289C4.42163 14.6403 1.58159 13.6359 0 12.0879V13.2813C0 15.6146 3.28428 17.4484 7.45708 17.6385Z" fill="#FA2843"/>
<path d="M8.1543 13.2813C8.15508 13.2813 8.15571 13.2812 8.15654 13.2812C8.6396 12.1267 9.3418 11.086 10.2138 10.214C9.55234 10.2976 8.86875 10.3516 8.1543 10.3516C4.6769 10.3516 1.65654 9.31465 0 7.69336V8.88677C0 11.3508 3.63672 13.2813 8.1543 13.2813Z" fill="#FA2843"/>
</svg>
