<?xml version="1.0" encoding="utf-8"?>
<!-- Generator: Adobe Illustrator 24.0.0, SVG Export Plug-In . SVG Version: 6.00 Build 0)  -->
<svg version="1.1" id="Layer_1" xmlns="http://www.w3.org/2000/svg" xmlns:xlink="http://www.w3.org/1999/xlink" x="0px" y="0px"
	 viewBox="0 0 137.2 182" style="enable-background:new 0 0 137.2 182;" xml:space="preserve">
<style type="text/css">
	.st0{fill:#D1E7FF;}
	.st1{fill:#E8F3FF;}
	.st2{fill:#B9DCFF;}
	.st3{fill:#31BAA0;}
	.st4{fill:#FFFFFF;}
	.st5{enable-background:new    ;}
	.st6{fill:#0E0031;}
</style>
<g id="Group_13319" transform="translate(-119 -100)">
	<g id="bussiness-and-finance" transform="translate(57.995 100.001)">
		<g id="Path_30538">
			<path class="st0" d="M192.3,61.6v58.7c0,6.5-5.3,11.7-11.7,11.7H78.6c-6.5,0-11.7-5.3-11.7-11.7V61.6c0-6.5,5.3-11.7,11.7-11.7
				h101.9C187.1,49.9,192.3,55.1,192.3,61.6z"/>
		</g>
		<g id="Path_30539">
			<path class="st1" d="M175.5,49.9c-16.7,46.6-57.4,70.8-108.1,74c-0.8-2.5-0.6,1.6-0.6-62.3c0-6.5,5.3-11.7,11.7-11.7H175.5z"/>
		</g>
		<g id="Path_30540">
			<path class="st2" d="M92.8,132.1H78.6c-6.5,0-11.7-5.3-11.7-11.7v-14.2C81.2,106.1,92.8,117.7,92.8,132.1z"/>
		</g>
		<g id="Path_30541">
			<path class="st0" d="M78.6,49.9h14.2c0,14.3-11.6,26-25.9,26c0,0,0,0,0,0V61.6C66.9,55.1,72.1,49.9,78.6,49.9z"/>
		</g>
		<g id="Path_30542">
			<path class="st2" d="M192.3,61.6v14.2c-14.3,0-26-11.6-26-25.9c0,0,0,0,0,0h14.2C187.1,49.9,192.3,55.1,192.3,61.6z"/>
		</g>
		<g id="Path_30543">
			<path class="st2" d="M192.3,106.1v14.2c0,6.5-5.3,11.7-11.7,11.7h-14.2C166.4,117.7,178,106.1,192.3,106.1
				C192.3,106.1,192.3,106.1,192.3,106.1z"/>
		</g>
		<g id="Ellipse_1732">
			<circle class="st2" cx="129.6" cy="91" r="19.5"/>
		</g>
		<g id="Group_13317" transform="translate(66.854 49.891)">
			<g id="Path_30544">
				<path class="st0" d="M23.5,71c-5.6,1.2-11.3,2-17,2.6c-3.2,0.3-6.1-2.1-6.4-5.3c0-0.2,0-0.4,0-0.6c0-2.4,0-5.9,0-11.5
					C10,56.2,19.2,62,23.5,71z"/>
			</g>
			<g id="Path_30545">
				<path class="st0" d="M107.1,4c-1.2,2.9-2.5,6-4.1,9c-2.3-4-3.5-8.5-3.5-13.1h4.9c1.6,0,2.9,1.3,2.9,2.9
					C107.3,3.3,107.3,3.7,107.1,4z"/>
			</g>
			<g id="Path_30546">
				<path class="st0" d="M82.2,41.4C74.6,48.7,66,54.8,56.6,59.6C46.4,56.2,40.9,45.2,44.3,35c3.4-10.2,14.4-15.7,24.6-12.3
					C76.9,25.3,82.3,32.9,82.2,41.4z"/>
			</g>
		</g>
		<g id="Path_30547">
			<path class="st3" d="M180.6,44H78.6C68.9,44,61,51.9,61,61.6v58.7c0,9.7,7.9,17.6,17.6,17.6h101.9c9.7,0,17.6-7.9,17.6-17.6V61.6
				C198.2,51.9,190.3,44,180.6,44z M161,126.2H98.2c-2.4-12.9-12.5-23-25.4-25.4V81.2c12.9-2.4,23-12.5,25.4-25.4H161
				c2.4,12.9,12.5,23,25.4,25.4v19.6C173.6,103.2,163.5,113.3,161,126.2z M186.4,61.6v7.5c-6.4-2-11.4-7-13.3-13.3h7.5
				C183.8,55.8,186.4,58.4,186.4,61.6L186.4,61.6z M78.6,55.8h7.5c-2,6.4-7,11.4-13.3,13.3v-7.5C72.8,58.4,75.4,55.8,78.6,55.8
				L78.6,55.8z M72.8,120.3v-7.5c6.4,2,11.4,7,13.3,13.3h-7.5C75.4,126.2,72.8,123.6,72.8,120.3z M180.6,126.2h-7.5
				c2-6.4,7-11.4,13.3-13.3v7.5C186.4,123.6,183.8,126.2,180.6,126.2L180.6,126.2z M129.6,65.6c-14,0-25.3,11.3-25.3,25.3
				s11.3,25.3,25.3,25.3S154.9,105,154.9,91l0,0C154.9,77,143.6,65.7,129.6,65.6z M129.6,104.6c-7.5,0-13.6-6.1-13.6-13.6
				c0-7.5,6.1-13.6,13.6-13.6c7.5,0,13.6,6.1,13.6,13.6C143.2,98.5,137.1,104.6,129.6,104.6L129.6,104.6z M144.3,17.6
				c0-3.2,2.6-5.9,5.9-5.9h28l-1.7-1.7c-2.3-2.3-2.3-6,0-8.3c2.3-2.3,6-2.3,8.3,0c0,0,0,0,0,0l11.7,11.7c1.6,1.6,2.1,4,1.4,6.1
				c-0.6,1.7-0.4,1.2-13.1,13.9c-2.3,2.3-6,2.3-8.3,0c-2.3-2.3-2.3-6,0-8.3c0,0,0,0,0,0l1.7-1.7h-28
				C146.9,23.5,144.3,20.9,144.3,17.6C144.3,17.6,144.3,17.6,144.3,17.6L144.3,17.6z M114.9,164.3c0,3.2-2.6,5.9-5.9,5.9H81l1.7,1.7
				c2.3,2.3,2.3,6,0,8.3c-2.3,2.3-6,2.3-8.3,0c-12.5-12.5-12-11.9-12.5-12.6c-1.1-1.6-1.3-3.7-0.5-5.5c0.6-1.5,0.4-1,13-13.6
				c2.3-2.3,6-2.3,8.3,0c2.3,2.3,2.3,6,0,8.3l-1.7,1.7h28C112.3,158.5,114.9,161.1,114.9,164.3L114.9,164.3z"/>
		</g>
	</g>
	<g id="l-check" transform="translate(168.095 171.99)">
		<g transform="matrix(1, 0, 0, 1, -49.1, -71.99)">
			<g id="Path_24113-2">
				<path class="st4" d="M68.1,110c-10.5,0-19-8.5-19-19c0-10.5,8.5-19,19-19s19,8.5,19,19v0C87.1,101.5,78.6,110,68.1,110z"/>
			</g>
		</g>
	</g>
	<g class="st5">
		<path class="st6" d="M184.6,195.3v2.7h-9.3v-13.9h3.1v11.2H184.6z"/>
		<path class="st6" d="M196.5,198c-0.2-0.5-0.3-1-0.5-1.5c-0.2-0.5-0.4-1-0.5-1.5H190c-0.2,0.5-0.4,1-0.5,1.5
			c-0.2,0.5-0.3,1-0.5,1.5h-3.2c0.5-1.5,1-2.9,1.5-4.1c0.5-1.3,0.9-2.5,1.4-3.6c0.4-1.1,0.9-2.2,1.3-3.2s0.9-2,1.4-3h3
			c0.5,1,0.9,1.9,1.3,3c0.4,1,0.9,2.1,1.3,3.2c0.4,1.1,0.9,2.3,1.4,3.6s1,2.6,1.5,4.1H196.5z M192.7,187.3c-0.1,0.2-0.2,0.5-0.3,0.8
			s-0.3,0.7-0.5,1.2s-0.4,1-0.6,1.5s-0.4,1.1-0.6,1.7h4c-0.2-0.6-0.4-1.2-0.6-1.7c-0.2-0.5-0.4-1-0.6-1.5c-0.2-0.5-0.3-0.9-0.5-1.2
			C192.9,187.7,192.8,187.5,192.7,187.3z"/>
	</g>
</g>
</svg>
