<svg width="25" height="25" viewBox="0 0 25 25" fill="none" xmlns="http://www.w3.org/2000/svg">
<path d="M21.2292 9.375H19.6667V7.29165C19.6667 3.271 16.3957 0 12.375 0C8.3543 0 5.08335 3.271 5.08335 7.29165V9.375H3.52085C3.23296 9.375 3 9.60796 3 9.89585V22.9167C3 24.0657 3.93433 25 5.08335 25H19.6667C20.8157 25 21.75 24.0657 21.75 22.9167V9.89585C21.75 9.60796 21.517 9.375 21.2292 9.375ZM13.9345 20.255C13.9507 20.402 13.9035 20.5495 13.8048 20.6599C13.7061 20.7703 13.5647 20.8333 13.4167 20.8333H11.3333C11.1854 20.8333 11.0439 20.7703 10.9453 20.6599C10.8466 20.5496 10.7993 20.4021 10.8156 20.255L11.1441 17.3004C10.6106 16.9124 10.2917 16.2984 10.2917 15.625C10.2917 14.476 11.226 13.5417 12.375 13.5417C13.5241 13.5417 14.4584 14.476 14.4584 15.625C14.4584 16.2984 14.1395 16.9124 13.606 17.3004L13.9345 20.255ZM16.5417 9.375H8.20835V7.29165C8.20835 4.99419 10.0775 3.125 12.375 3.125C14.6725 3.125 16.5417 4.99419 16.5417 7.29165V9.375V9.375Z" fill="#F42842"/>
</svg>
