<svg width="24" height="24" viewBox="0 0 24 24" fill="none" xmlns="http://www.w3.org/2000/svg">
<path d="M23.1842 15.9187L19.9967 5.3062C19.9354 5.09156 19.8258 4.89379 19.6763 4.72804C19.5268 4.56229 19.3414 4.43296 19.1342 4.34995H19.0779L19.1342 4.3312C18.0883 3.91213 17.0054 3.59198 15.8998 3.37495C15.8031 3.35585 15.7037 3.35597 15.6071 3.37532C15.5105 3.39467 15.4186 3.43285 15.3368 3.4877C15.255 3.54255 15.1847 3.61298 15.1301 3.69498C15.0755 3.77697 15.0376 3.86892 15.0185 3.96558C14.998 4.06166 14.9968 4.16087 15.0151 4.25741C15.0333 4.35396 15.0705 4.44592 15.1246 4.52794C15.1787 4.60995 15.2486 4.68038 15.3301 4.73513C15.4117 4.78988 15.5034 4.82785 15.5998 4.84683C16.0217 4.9312 16.4342 5.03433 16.8373 5.14683C16.9858 5.2239 17.1042 5.3484 17.1738 5.50053C17.2434 5.65267 17.2601 5.8237 17.2213 5.98643C17.1825 6.14916 17.0904 6.29425 16.9597 6.39862C16.829 6.503 16.6671 6.56066 16.4998 6.56245H16.4248C14.9801 6.18568 13.4928 5.99662 11.9998 5.99995C10.5418 5.99561 9.08935 6.17835 7.67791 6.5437C7.49831 6.59109 7.30751 6.57015 7.14246 6.48492C6.97741 6.3997 6.84987 6.25626 6.78452 6.08238C6.71917 5.9085 6.72067 5.71656 6.78872 5.54373C6.85678 5.37089 6.98655 5.22946 7.15291 5.14683H7.16229C7.56541 5.03433 7.97791 4.9312 8.39979 4.84683C8.49644 4.82776 8.58839 4.78984 8.67039 4.73523C8.75238 4.68062 8.82281 4.61039 8.87766 4.52856C8.93251 4.44672 8.9707 4.35488 8.99004 4.25828C9.00939 4.16169 9.00951 4.06222 8.99041 3.96558C8.94967 3.77159 8.83468 3.60122 8.67002 3.49086C8.50536 3.3805 8.30408 3.33891 8.10916 3.37495C6.99956 3.59684 5.91346 3.9233 4.86541 4.34995C4.65821 4.43296 4.47275 4.56229 4.32325 4.72804C4.17375 4.89379 4.06417 5.09156 4.00291 5.3062L0.815412 15.9187C0.732721 16.1962 0.732094 16.4916 0.813607 16.7694C0.89512 17.0472 1.05529 17.2955 1.27479 17.4843C1.36103 17.5674 1.45179 17.6456 1.54666 17.7187H1.55604C3.07479 18.9562 5.07166 19.9031 7.32166 20.4468C7.37925 20.4653 7.43932 20.4748 7.49979 20.475C7.68522 20.4779 7.86516 20.412 8.00487 20.2901C8.14459 20.1681 8.23416 19.9987 8.25631 19.8146C8.27845 19.6305 8.23159 19.4447 8.12477 19.2931C8.01795 19.1415 7.85875 19.0348 7.67791 18.9937C6.6664 18.7494 5.68299 18.4006 4.74354 17.9531C4.61495 17.8326 4.5329 17.6707 4.51177 17.4957C4.49063 17.3208 4.53176 17.144 4.62795 16.9964C4.72414 16.8487 4.86924 16.7397 5.0378 16.6883C5.20637 16.637 5.38762 16.6466 5.54979 16.7156C7.33104 17.5031 9.57166 18 11.9998 18C14.4279 18 16.6685 17.5031 18.4498 16.7156C18.6119 16.6466 18.7932 16.637 18.9618 16.6883C19.1303 16.7397 19.2754 16.8487 19.3716 16.9964C19.4678 17.144 19.5089 17.3208 19.4878 17.4957C19.4667 17.6707 19.3846 17.8326 19.256 17.9531C18.3166 18.4006 17.3332 18.7494 16.3217 18.9937C16.1408 19.0348 15.9816 19.1415 15.8748 19.2931C15.768 19.4447 15.7211 19.6305 15.7433 19.8146C15.7654 19.9987 15.855 20.1681 15.9947 20.2901C16.1344 20.412 16.3144 20.4779 16.4998 20.475C16.5603 20.4748 16.6203 20.4653 16.6779 20.4468C18.9279 19.9031 20.9248 18.9562 22.4435 17.7187H22.4529C22.5478 17.6456 22.6385 17.5674 22.7248 17.4843C22.9443 17.2955 23.1045 17.0472 23.186 16.7694C23.2675 16.4916 23.2669 16.1962 23.1842 15.9187ZM8.99979 14.625C8.77728 14.625 8.55978 14.559 8.37477 14.4354C8.18976 14.3117 8.04557 14.136 7.96042 13.9305C7.87527 13.7249 7.85299 13.4987 7.8964 13.2805C7.93981 13.0622 8.04696 12.8618 8.20429 12.7045C8.36163 12.5471 8.56208 12.44 8.78031 12.3966C8.99854 12.3532 9.22474 12.3754 9.43031 12.4606C9.63587 12.5457 9.81157 12.6899 9.93519 12.8749C10.0588 13.0599 10.1248 13.2774 10.1248 13.5C10.1248 13.7983 10.0063 14.0845 9.79528 14.2954C9.5843 14.5064 9.29815 14.625 8.99979 14.625ZM14.9998 14.625C14.7773 14.625 14.5598 14.559 14.3748 14.4354C14.1898 14.3117 14.0456 14.136 13.9604 13.9305C13.8753 13.7249 13.853 13.4987 13.8964 13.2805C13.9398 13.0622 14.047 12.8618 14.2043 12.7045C14.3616 12.5471 14.5621 12.44 14.7803 12.3966C14.9985 12.3532 15.2247 12.3754 15.4303 12.4606C15.6359 12.5457 15.8116 12.6899 15.9352 12.8749C16.0588 13.0599 16.1248 13.2774 16.1248 13.5C16.1248 13.7983 16.0063 14.0845 15.7953 14.2954C15.5843 14.5064 15.2982 14.625 14.9998 14.625Z" fill="#AB9AC6"/>
</svg>
