<svg width="24" height="24" viewBox="0 0 24 24" fill="none" xmlns="http://www.w3.org/2000/svg">
<path d="M21.7498 11.9997C21.745 14.3818 20.8708 16.6802 19.2913 18.4633C17.7119 20.2465 15.5358 21.3918 13.1717 21.6841C13.119 21.6893 13.0657 21.6835 13.0153 21.6671C12.9649 21.6507 12.9184 21.6241 12.8788 21.5888C12.8392 21.5536 12.8073 21.5106 12.7851 21.4624C12.7629 21.4143 12.7509 21.3621 12.7498 21.3091V14.2497H14.9998C15.1024 14.2499 15.2039 14.2291 15.2981 14.1885C15.3923 14.1479 15.4772 14.0884 15.5475 14.0137C15.6178 13.9391 15.672 13.8507 15.7068 13.7543C15.7416 13.6578 15.7563 13.5552 15.7498 13.4528C15.7333 13.2589 15.6437 13.0785 15.4993 12.948C15.3549 12.8175 15.1663 12.7466 14.9717 12.7497H12.7498V10.4997C12.7498 10.1019 12.9079 9.72036 13.1892 9.43906C13.4705 9.15775 13.852 8.99972 14.2498 8.99972H15.7498C15.8524 8.99992 15.9539 8.97908 16.0481 8.93849C16.1423 8.8979 16.2272 8.83843 16.2975 8.76374C16.3678 8.68906 16.422 8.60075 16.4568 8.50427C16.4916 8.40779 16.5063 8.3052 16.4998 8.20284C16.4833 8.00891 16.3937 7.82849 16.2493 7.69799C16.1049 7.56749 15.9163 7.49663 15.7217 7.49972H14.2498C13.4542 7.49972 12.6911 7.81579 12.1285 8.3784C11.5659 8.94101 11.2498 9.70407 11.2498 10.4997V12.7497H8.99985C8.89729 12.7495 8.79577 12.7704 8.70158 12.8109C8.60739 12.8515 8.52253 12.911 8.45223 12.9857C8.38194 13.0604 8.32771 13.1487 8.2929 13.2452C8.25809 13.3416 8.24344 13.4442 8.24985 13.5466C8.26644 13.7405 8.35598 13.9209 8.5004 14.0514C8.64481 14.1819 8.83336 14.2528 9.02797 14.2497H11.2498V21.3091C11.2501 21.3617 11.2393 21.4137 11.2182 21.4618C11.197 21.5099 11.166 21.5531 11.1271 21.5884C11.0882 21.6238 11.0423 21.6506 10.9924 21.6671C10.9425 21.6836 10.8897 21.6894 10.8373 21.6841C5.88735 21.0841 2.06235 16.781 2.25922 11.6341C2.36974 9.09233 3.4694 6.69443 5.32347 4.95225C7.17755 3.21007 9.63917 2.26162 12.1829 2.30933C14.7266 2.35705 17.1509 3.39716 18.9384 5.20766C20.7258 7.01815 21.7347 9.45559 21.7498 11.9997Z" fill="#AB9AC6"/>
</svg>
