<svg width="24" height="24" viewBox="0 0 24 24" fill="none" xmlns="http://www.w3.org/2000/svg">
<path d="M23.2501 9.74993C23.2495 9.17566 23.0841 8.61361 22.7735 8.13056C22.463 7.64751 22.0203 7.26374 21.4981 7.02484C20.9759 6.78594 20.396 6.70195 19.8275 6.78284C19.2589 6.86373 18.7256 7.10611 18.2907 7.48118C16.7157 6.6468 14.8407 6.14055 12.8813 6.02805L13.3688 3.10305L15.4126 3.4218C15.5084 3.94893 15.7878 4.42511 16.2011 4.76603C16.6144 5.10694 17.135 5.29058 17.6708 5.28442C18.2065 5.27826 18.7228 5.08271 19.1282 4.73238C19.5335 4.38206 19.8018 3.89958 19.8856 3.37039C19.9693 2.8412 19.8631 2.29945 19.5856 1.84109C19.3082 1.38273 18.8775 1.03734 18.3699 0.86609C17.8622 0.694836 17.3103 0.708773 16.8119 0.90543C16.3136 1.10209 15.9009 1.46878 15.6469 1.94055L12.8626 1.5093C12.6676 1.47952 12.4687 1.52777 12.309 1.64358C12.1493 1.75939 12.0417 1.93345 12.0094 2.12805L11.3626 6.01868C9.31882 6.10305 7.35007 6.6093 5.70945 7.48118C5.1115 6.98681 4.34527 6.74331 3.57163 6.80182C2.79799 6.86033 2.07709 7.21628 1.56029 7.79495C1.04349 8.37362 0.77097 9.13001 0.799947 9.90532C0.828924 10.6806 1.15714 11.4146 1.7157 11.9531C1.57388 12.4565 1.50134 12.9769 1.50007 13.4999C1.50007 15.5531 2.62507 17.4749 4.6782 18.8906C6.73132 20.3062 9.24382 20.9999 12.0001 20.9999C14.7563 20.9999 17.3532 20.2499 19.3219 18.8906C21.2907 17.5312 22.5001 15.5531 22.5001 13.4999C22.4995 12.9799 22.4269 12.4625 22.2844 11.9624C22.5881 11.6792 22.8304 11.3368 22.9965 10.9562C23.1626 10.5757 23.2489 10.1651 23.2501 9.74993ZM6.75007 12.3749C6.75007 12.0783 6.83805 11.7882 7.00287 11.5416C7.16769 11.2949 7.40196 11.1026 7.67605 10.9891C7.95014 10.8756 8.25174 10.8459 8.54271 10.9037C8.83368 10.9616 9.10095 11.1045 9.31073 11.3143C9.52051 11.524 9.66337 11.7913 9.72125 12.0823C9.77913 12.3733 9.74942 12.6749 9.63589 12.949C9.52236 13.223 9.3301 13.4573 9.08343 13.6221C8.83675 13.787 8.54674 13.8749 8.25007 13.8749C7.85225 13.8749 7.47072 13.7169 7.18941 13.4356C6.90811 13.1543 6.75007 12.7728 6.75007 12.3749ZM15.4407 17.1656C14.3767 17.714 13.1971 18.0001 12.0001 18.0001C10.8031 18.0001 9.62341 17.714 8.55945 17.1656C8.39599 17.0677 8.27592 16.9113 8.22359 16.7281C8.17127 16.5449 8.19063 16.3486 8.27774 16.1792C8.36484 16.0098 8.51317 15.8798 8.6926 15.8158C8.87203 15.7517 9.06911 15.7583 9.24382 15.8343C10.0962 16.2734 11.0412 16.5025 12.0001 16.5025C12.9589 16.5025 13.9039 16.2734 14.7563 15.8343C14.931 15.7583 15.1281 15.7517 15.3075 15.8158C15.487 15.8798 15.6353 16.0098 15.7224 16.1792C15.8095 16.3486 15.8289 16.5449 15.7766 16.7281C15.7242 16.9113 15.6042 17.0677 15.4407 17.1656ZM15.7501 13.8749C15.4534 13.8749 15.1634 13.787 14.9167 13.6221C14.67 13.4573 14.4778 13.223 14.3643 12.949C14.2507 12.6749 14.221 12.3733 14.2789 12.0823C14.3368 11.7913 14.4796 11.524 14.6894 11.3143C14.8992 11.1045 15.1665 10.9616 15.4574 10.9037C15.7484 10.8459 16.05 10.8756 16.3241 10.9891C16.5982 11.1026 16.8325 11.2949 16.9973 11.5416C17.1621 11.7882 17.2501 12.0783 17.2501 12.3749C17.2501 12.7728 17.092 13.1543 16.8107 13.4356C16.5294 13.7169 16.1479 13.8749 15.7501 13.8749Z" fill="#AB9AC6"/>
</svg>
