<svg width="24" height="24" viewBox="0 0 24 24" fill="none" xmlns="http://www.w3.org/2000/svg">
<path d="M22.4247 9.13125C22.3308 8.83592 22.1499 8.57585 21.9056 8.38513C21.6614 8.19441 21.3652 8.08195 21.0559 8.0625L15.4872 7.67813L13.4247 2.475C13.312 2.1885 13.116 1.94241 12.862 1.76858C12.6079 1.59475 12.3075 1.50118 11.9997 1.5C11.6918 1.50118 11.3914 1.59475 11.1374 1.76858C10.8833 1.94241 10.6873 2.1885 10.5747 2.475L8.47467 7.70625L2.94342 8.0625C2.63452 8.08321 2.33894 8.19614 2.09492 8.38668C1.8509 8.57722 1.66967 8.83659 1.57467 9.13125C1.47711 9.43043 1.47141 9.75197 1.5583 10.0544C1.64519 10.3569 1.82069 10.6263 2.06217 10.8281L6.31842 14.4281L5.05279 19.4062C4.96523 19.743 4.98099 20.0983 5.09802 20.426C5.21505 20.7537 5.42795 21.0386 5.70904 21.2438C5.98188 21.4396 6.30695 21.5495 6.64264 21.5596C6.97833 21.5696 7.30938 21.4792 7.59342 21.3L11.9903 18.5156H12.009L16.7434 21.5062C16.9863 21.6641 17.2694 21.7487 17.559 21.75C17.7955 21.7481 18.0284 21.6921 18.2399 21.5861C18.4513 21.4802 18.6356 21.3272 18.7787 21.1389C18.9217 20.9505 19.0197 20.7319 19.065 20.4998C19.1104 20.2677 19.1019 20.0283 19.0403 19.8L17.6997 14.3531L21.9372 10.8281C22.1786 10.6263 22.3541 10.3569 22.441 10.0544C22.5279 9.75197 22.5222 9.43043 22.4247 9.13125Z" fill="#AB9AC6"/>
</svg>
