<svg width="24" height="24" viewBox="0 0 24 24" fill="none" xmlns="http://www.w3.org/2000/svg">
<path d="M23.0346 7.28446L20.2034 10.1063C19.6409 16.6595 14.1096 21.7501 7.50025 21.7501C6.14087 21.7501 5.01587 21.5345 4.16275 21.1126C3.47837 20.7657 3.19712 20.4001 3.12212 20.2876C3.06007 20.1933 3.02009 20.0863 3.00515 19.9744C2.99021 19.8626 3.0007 19.7488 3.03584 19.6416C3.07099 19.5344 3.12988 19.4364 3.20812 19.3551C3.28636 19.2738 3.38195 19.2112 3.48775 19.172C3.5065 19.1626 5.719 18.3188 7.15337 16.697C6.26382 16.0636 5.48195 15.2912 4.83775 14.4095C3.55337 12.6657 2.194 9.63759 3.00962 5.11884C3.03526 4.9845 3.09671 4.85958 3.18747 4.75727C3.27822 4.65496 3.39493 4.57906 3.52525 4.53759C3.65599 4.49478 3.79598 4.48875 3.92991 4.52017C4.06385 4.55159 4.18656 4.61923 4.28462 4.71571C4.31275 4.75321 7.43462 7.82821 11.2502 8.82196V8.25009C11.2539 7.65544 11.3747 7.06735 11.6057 6.51938C11.8366 5.97141 12.1733 5.4743 12.5964 5.05643C13.0195 4.63857 13.5207 4.30813 14.0715 4.08398C14.6223 3.85984 15.2119 3.74638 15.8065 3.75009C16.587 3.76122 17.3512 3.97432 18.0248 4.36863C18.6985 4.76294 19.2584 5.32502 19.6503 6.00009H22.5002C22.6483 5.99962 22.7932 6.043 22.9167 6.12475C23.0401 6.2065 23.1366 6.32296 23.194 6.45946C23.248 6.598 23.2617 6.749 23.2335 6.895C23.2053 7.04099 23.1364 7.17602 23.0346 7.28446Z" fill="#AB9AC6"/>
</svg>
