<svg width="48" height="50" viewBox="0 0 48 50" fill="none" xmlns="http://www.w3.org/2000/svg">
<g filter="url(#filter0_d_28_8107)">
<path d="M24 15V24" stroke="white" stroke-width="2" stroke-linecap="round" stroke-linejoin="round"/>
<path d="M31.8 28.5L24 24" stroke="white" stroke-width="2" stroke-linecap="round" stroke-linejoin="round"/>
<path d="M34.5371 18.6938H42.0371V11.1938" stroke="white" stroke-width="2" stroke-linecap="round" stroke-linejoin="round"/>
<path d="M35.6623 35.6625C33.3552 37.9714 30.4152 39.5442 27.2142 40.182C24.0131 40.8197 20.6948 40.4938 17.6791 39.2453C14.6633 37.9969 12.0856 35.882 10.2719 33.1683C8.45828 30.4546 7.49023 27.264 7.49023 24C7.49023 20.736 8.45828 17.5454 10.2719 14.8317C12.0856 12.118 14.6633 10.0032 17.6791 8.75471C20.6948 7.50626 24.0131 7.18029 27.2142 7.81804C30.4152 8.45578 33.3552 10.0286 35.6623 12.3375L42.0373 18.6938" stroke="white" stroke-width="2" stroke-linecap="round" stroke-linejoin="round"/>
</g>
<defs>
<filter id="filter0_d_28_8107" x="-4" y="0" width="56" height="56" filterUnits="userSpaceOnUse" color-interpolation-filters="sRGB">
<feFlood flood-opacity="0" result="BackgroundImageFix"/>
<feColorMatrix in="SourceAlpha" type="matrix" values="0 0 0 0 0 0 0 0 0 0 0 0 0 0 0 0 0 0 127 0" result="hardAlpha"/>
<feOffset dy="4"/>
<feGaussianBlur stdDeviation="2"/>
<feComposite in2="hardAlpha" operator="out"/>
<feColorMatrix type="matrix" values="0 0 0 0 0 0 0 0 0 0 0 0 0 0 0 0 0 0 0.05 0"/>
<feBlend mode="normal" in2="BackgroundImageFix" result="effect1_dropShadow_28_8107"/>
<feBlend mode="normal" in="SourceGraphic" in2="effect1_dropShadow_28_8107" result="shape"/>
</filter>
</defs>
</svg>
