<svg width="36" height="36" viewBox="0 0 36 36" fill="none" xmlns="http://www.w3.org/2000/svg">
<path d="M17.9947 32.0364C26.8283 32.0364 33.9894 25.5363 33.9894 17.5182C33.9894 9.50001 26.8283 3 17.9947 3C9.16107 3 2 9.50001 2 17.5182C2 25.5363 9.16107 32.0364 17.9947 32.0364Z" fill="url(#paint0_linear_1_2223)"/>
<path d="M17.9947 32.9999C26.8283 32.9999 33.9894 27.1992 33.9894 20.0436C33.9894 12.8881 26.8283 7.0874 17.9947 7.0874C9.16107 7.0874 2 12.8881 2 20.0436C2 27.1992 9.16107 32.9999 17.9947 32.9999Z" fill="url(#paint1_linear_1_2223)"/>
<g style="mix-blend-mode:screen" opacity="0.38">
<path d="M12.3364 32.1635L34.0008 19.6203C33.9116 18.0647 33.5133 16.5425 32.8291 15.1432C32.1449 13.744 31.1888 12.4957 30.0167 11.4717L4.125 26.477C6.16747 29.2217 9.05204 31.2193 12.3364 32.1635Z" fill="url(#paint2_linear_1_2223)"/>
<path d="M2.00586 19.705C2.00586 19.8162 2.00586 19.9274 2.00586 20.0386C2.00937 21.1573 2.18766 22.2685 2.53426 23.3319L26.8407 9.23735C25.5573 8.54487 24.1946 8.01148 22.7826 7.64893L2.00586 19.705Z" fill="url(#paint3_linear_1_2223)"/>
</g>
<path style="mix-blend-mode:multiply" d="M17.9947 32.9998C26.8296 32.9998 33.9894 27.1756 33.9894 20.0383C33.9894 12.901 26.8296 7.08203 17.9947 7.08203C9.15983 7.08203 2 12.9062 2 20.0383C2 27.1703 9.15983 32.9998 17.9947 32.9998ZM17.9947 7.2197C26.7345 7.2197 33.8468 12.9592 33.8468 20.0383C33.8468 27.1173 26.7609 32.8621 17.9947 32.8621C9.22853 32.8621 2.16909 27.1226 2.16909 20.0383C2.16909 12.9539 9.26551 7.20911 17.9947 7.20911V7.2197Z" fill="url(#paint4_linear_1_2223)"/>
<path style="mix-blend-mode:screen" d="M17.9947 33.0002C26.8296 33.0002 33.9894 27.2183 33.9894 20.0916C33.9894 12.9649 26.8296 7.20947 17.9947 7.20947C9.15983 7.20947 2 12.9913 2 20.118C2 27.2448 9.15983 33.0002 17.9947 33.0002ZM17.9947 7.32066C26.7345 7.32066 33.8468 13.039 33.8468 20.0916C33.8468 27.1442 26.7609 32.8625 17.9947 32.8625C9.22853 32.8625 2.16909 27.1442 2.16909 20.0916C2.16909 13.039 9.26551 7.32066 17.9947 7.32066Z" fill="url(#paint5_linear_1_2223)"/>
<path style="mix-blend-mode:screen" d="M17.9951 30.1463C24.8209 30.1463 30.3544 25.6636 30.3544 20.1339C30.3544 14.6043 24.8209 10.1216 17.9951 10.1216C11.1692 10.1216 5.63574 14.6043 5.63574 20.1339C5.63574 25.6636 11.1692 30.1463 17.9951 30.1463Z" fill="url(#paint6_linear_1_2223)"/>
<path style="mix-blend-mode:screen" d="M17.9941 30.2417C24.8842 30.2417 30.4697 25.7163 30.4697 20.134C30.4697 14.5517 24.8842 10.0264 17.9941 10.0264C11.104 10.0264 5.51855 14.5517 5.51855 20.134C5.51855 25.7163 11.104 30.2417 17.9941 30.2417Z" fill="url(#paint7_linear_1_2223)"/>
<path d="M17.9951 30.056C24.8209 30.056 30.3544 25.5733 30.3544 20.0436C30.3544 14.5139 24.8209 10.0312 17.9951 10.0312C11.1692 10.0312 5.63574 14.5139 5.63574 20.0436C5.63574 25.5733 11.1692 30.056 17.9951 30.056Z" fill="#99570E"/>
<path d="M17.9941 26.7577C24.5573 26.7577 29.8778 23.0644 29.8778 18.5085C29.8778 13.9526 24.5573 10.2593 17.9941 10.2593C11.4309 10.2593 6.11035 13.9526 6.11035 18.5085C6.11035 23.0644 11.4309 26.7577 17.9941 26.7577Z" fill="url(#paint8_linear_1_2223)"/>
<path style="mix-blend-mode:multiply" d="M17.9953 26.1908C11.5699 26.1908 6.33343 22.6486 6.12207 18.2486C6.12207 18.3439 6.12207 18.434 6.12207 18.5293C6.12207 23.088 11.4431 26.7785 18.0058 26.7785C24.5686 26.7785 29.8737 23.0616 29.8737 18.5028C29.8737 18.4075 29.8737 18.3175 29.8737 18.2222C29.6571 22.6486 24.4206 26.1908 17.9953 26.1908Z" fill="url(#paint9_linear_1_2223)"/>
<defs>
<linearGradient id="paint0_linear_1_2223" x1="32.4254" y1="17.5182" x2="2.47028" y2="17.5182" gradientUnits="userSpaceOnUse">
<stop stop-color="#FFD66B"/>
<stop offset="0.14" stop-color="#FFEB65"/>
<stop offset="0.22" stop-color="#D87F20"/>
<stop offset="0.35" stop-color="#D87F20"/>
<stop offset="0.47" stop-color="#6C440F"/>
<stop offset="0.6" stop-color="#6C440F"/>
<stop offset="0.64" stop-color="#FFEB65"/>
<stop offset="0.73" stop-color="#FFEB65"/>
<stop offset="0.81" stop-color="#D87F20"/>
<stop offset="0.92" stop-color="#FFD66B"/>
<stop offset="1" stop-color="#DA9528"/>
</linearGradient>
<linearGradient id="paint1_linear_1_2223" x1="17.9947" y1="8.15165" x2="17.9947" y2="31.9674" gradientUnits="userSpaceOnUse">
<stop stop-color="#FFEB74"/>
<stop offset="1" stop-color="#FFD86C"/>
</linearGradient>
<linearGradient id="paint2_linear_1_2223" x1="19.0471" y1="14.4791" x2="19.0471" y2="28.4413" gradientUnits="userSpaceOnUse">
<stop stop-color="#FFEB74"/>
<stop offset="1" stop-color="#FFD86C"/>
</linearGradient>
<linearGradient id="paint3_linear_1_2223" x1="14.418" y1="9.94684" x2="14.418" y2="20.5151" gradientUnits="userSpaceOnUse">
<stop stop-color="#FFEB74"/>
<stop offset="1" stop-color="#FFD86C"/>
</linearGradient>
<linearGradient id="paint4_linear_1_2223" x1="17.9947" y1="32.4544" x2="17.9947" y2="6.812" gradientUnits="userSpaceOnUse">
<stop stop-color="#FFEB74"/>
<stop offset="1" stop-color="#FFD86C"/>
</linearGradient>
<linearGradient id="paint5_linear_1_2223" x1="17.9947" y1="32.4548" x2="17.9947" y2="6.91297" gradientUnits="userSpaceOnUse">
<stop stop-color="#FFEB74"/>
<stop offset="1" stop-color="#FFD86C"/>
</linearGradient>
<linearGradient id="paint6_linear_1_2223" x1="30.3544" y1="20.1339" x2="5.63574" y2="20.1339" gradientUnits="userSpaceOnUse">
<stop stop-color="#FFEB74"/>
<stop offset="1" stop-color="#FFD86A"/>
</linearGradient>
<linearGradient id="paint7_linear_1_2223" x1="30.4697" y1="20.134" x2="5.51855" y2="20.134" gradientUnits="userSpaceOnUse">
<stop stop-color="#FFEB74"/>
<stop offset="1" stop-color="#FFD86A"/>
</linearGradient>
<linearGradient id="paint8_linear_1_2223" x1="17.9941" y1="12.6525" x2="17.9941" y2="23.7873" gradientUnits="userSpaceOnUse">
<stop stop-color="#FFC74E"/>
<stop offset="1" stop-color="#FF984D"/>
</linearGradient>
<linearGradient id="paint9_linear_1_2223" x1="17.9953" y1="19.4611" x2="17.9953" y2="25.2218" gradientUnits="userSpaceOnUse">
<stop stop-color="#FFEB74"/>
<stop offset="1" stop-color="#FFD86A"/>
</linearGradient>
</defs>
</svg>
