<svg width="36" height="36" viewBox="0 0 36 36" fill="none" xmlns="http://www.w3.org/2000/svg">
<g clip-path="url(#clip0_1_2209)">
<path d="M8.52577 5.56067C12.2326 1.4479 20.0692 2.44075 26.066 7.78117C32.0629 13.1216 33.9298 20.7614 30.2505 24.865C26.5711 28.9686 25.999 32.8521 12.7102 22.6445C1.0711 13.7393 4.8342 9.67341 8.52577 5.56067Z" fill="url(#paint0_linear_1_2209)"/>
<path d="M11.1981 24.5199C17.1936 29.8478 24.7239 31.193 28.0175 27.5246C31.3111 23.8562 29.1208 16.5632 23.1253 11.2353C17.1298 5.90747 9.59953 4.56224 6.30593 8.23068C3.01232 11.8991 5.20262 19.1921 11.1981 24.5199Z" fill="url(#paint1_linear_1_2209)"/>
<g style="mix-blend-mode:screen" opacity="0.38">
<path d="M7.73335 20.675L28.1933 27.2993C29.5445 25.6254 29.8469 23.2766 29.2419 20.7208L4.74716 12.8031C4.82233 15.2328 5.85057 18.0058 7.73335 20.675Z" fill="url(#paint2_linear_1_2209)"/>
<path d="M6.45503 8.06019C6.40167 8.11338 6.34983 8.17112 6.29798 8.22885C5.78037 8.81148 5.3855 9.49142 5.13687 10.2282L28.1258 17.6692C27.556 16.5224 26.8757 15.4336 26.0943 14.4182L6.45503 8.06019Z" fill="url(#paint3_linear_1_2209)"/>
</g>
<path style="mix-blend-mode:multiply" d="M11.1869 24.5173C17.1837 29.8425 24.7123 31.1909 28.009 27.5233C31.3056 23.8557 29.1078 16.5487 23.1185 11.231C17.1293 5.91331 9.59308 4.55742 6.29796 8.22956C3.00284 11.9017 5.19459 19.1905 11.1869 24.5173ZM23.0331 11.3101C28.9661 16.5809 31.129 23.7985 27.8705 27.4281C24.6119 31.0577 17.161 29.7289 11.2265 24.4535C5.29208 19.1781 3.13071 11.965 6.38923 8.33543C9.64775 4.70584 17.1231 6.03157 23.056 11.3024L23.0331 11.3101Z" fill="url(#paint4_linear_1_2209)"/>
<path style="mix-blend-mode:screen" d="M11.1872 24.517C17.1841 29.8422 24.702 31.2042 27.9864 27.5458C31.2709 23.8873 29.0684 16.6122 23.0609 11.2854C17.0534 5.95867 9.54768 4.60269 6.26629 8.25509C2.9849 11.9075 5.19493 19.1902 11.1872 24.517ZM23.0076 11.3538C28.9405 16.6246 31.1202 23.8316 27.8769 27.446C24.6336 31.0604 17.1888 29.7194 11.2543 24.444C5.31985 19.1686 3.1478 11.9692 6.38651 8.35635C9.62521 4.74347 17.0792 6.08138 23.0076 11.3538Z" fill="url(#paint5_linear_1_2209)"/>
<path style="mix-blend-mode:screen" d="M12.5066 23.0561C17.1394 27.173 22.9576 28.2131 25.5019 25.3792C28.0462 22.5453 26.3532 16.9106 21.7204 12.7937C17.0876 8.67677 11.2694 7.63668 8.72511 10.4706C6.18077 13.3045 7.87379 18.9392 12.5066 23.0561Z" fill="url(#paint6_linear_1_2209)"/>
<path style="mix-blend-mode:screen" d="M12.4623 23.1059C17.1386 27.2615 23.0123 28.3106 25.5815 25.449C28.1507 22.5874 26.4425 16.8988 21.7661 12.7432C17.0898 8.58755 11.2161 7.53852 8.64689 10.4001C6.0777 13.2617 7.7859 18.9503 12.4623 23.1059Z" fill="url(#paint7_linear_1_2209)"/>
<path d="M12.5544 23.0092C17.1872 27.1261 23.0054 28.1662 25.5497 25.3323C28.0941 22.4985 26.4011 16.8637 21.7683 12.7468C17.1355 8.62989 11.3173 7.58981 8.77296 10.4237C6.22862 13.2576 7.92165 18.8923 12.5544 23.0092Z" fill="#99570E"/>
<path d="M14.0707 21.3186C18.5252 25.2771 23.8362 26.5928 25.9331 24.2572C28.03 21.9217 26.1188 16.8194 21.6643 12.8609C17.2097 8.90236 11.8988 7.58669 9.80186 9.92223C7.70496 12.2578 9.61619 17.3601 14.0707 21.3186Z" fill="url(#paint8_linear_1_2209)"/>
<path style="mix-blend-mode:multiply" d="M14.3253 21.0287C9.97946 17.1469 8.03965 12.1783 9.93224 9.783C9.87739 9.80133 9.84076 9.87419 9.79502 9.91978C7.69993 12.2564 9.60762 17.3571 14.0661 21.3174C18.5245 25.2777 23.8264 26.5922 25.9261 24.254L26.0496 24.1067C23.8679 26.245 18.6833 24.9014 14.3253 21.0287Z" fill="url(#paint9_linear_1_2209)"/>
</g>
<defs>
<linearGradient id="paint0_linear_1_2209" x1="31.2547" y1="25.7672" x2="10.828" y2="7.54389" gradientUnits="userSpaceOnUse">
<stop stop-color="#FFD66B"/>
<stop offset="0.14" stop-color="#FFEB65"/>
<stop offset="0.22" stop-color="#D87F20"/>
<stop offset="0.35" stop-color="#D87F20"/>
<stop offset="0.47" stop-color="#6C440F"/>
<stop offset="0.6" stop-color="#6C440F"/>
<stop offset="0.64" stop-color="#FFEB65"/>
<stop offset="0.73" stop-color="#FFEB65"/>
<stop offset="0.81" stop-color="#D87F20"/>
<stop offset="0.92" stop-color="#FFD66B"/>
<stop offset="1" stop-color="#DA9528"/>
</linearGradient>
<linearGradient id="paint1_linear_1_2209" x1="22.1799" y1="12.2884" x2="11.2526" y2="24.5849" gradientUnits="userSpaceOnUse">
<stop stop-color="#FFEB74"/>
<stop offset="1" stop-color="#FFD86C"/>
</linearGradient>
<linearGradient id="paint2_linear_1_2209" x1="22.4377" y1="17.3965" x2="16.0356" y2="24.6356" gradientUnits="userSpaceOnUse">
<stop stop-color="#FFEB74"/>
<stop offset="1" stop-color="#FFD86C"/>
</linearGradient>
<linearGradient id="paint3_linear_1_2209" x1="21.3707" y1="12.2649" x2="16.5248" y2="17.7443" gradientUnits="userSpaceOnUse">
<stop stop-color="#FFEB74"/>
<stop offset="1" stop-color="#FFD86C"/>
</linearGradient>
<linearGradient id="paint4_linear_1_2209" x1="13.441" y1="26.05" x2="25.2013" y2="12.7521" gradientUnits="userSpaceOnUse">
<stop stop-color="#FFEB74"/>
<stop offset="1" stop-color="#FFD86C"/>
</linearGradient>
<linearGradient id="paint5_linear_1_2209" x1="13.4413" y1="26.0497" x2="25.1531" y2="12.8067" gradientUnits="userSpaceOnUse">
<stop stop-color="#FFEB74"/>
<stop offset="1" stop-color="#FFD86C"/>
</linearGradient>
<linearGradient id="paint6_linear_1_2209" x1="25.0326" y1="25.9019" x2="8.33595" y2="10.9112" gradientUnits="userSpaceOnUse">
<stop stop-color="#FFEB74"/>
<stop offset="1" stop-color="#FFD86A"/>
</linearGradient>
<linearGradient id="paint7_linear_1_2209" x1="25.1122" y1="25.9716" x2="8.25846" y2="10.8399" gradientUnits="userSpaceOnUse">
<stop stop-color="#FFEB74"/>
<stop offset="1" stop-color="#FFD86A"/>
</linearGradient>
<linearGradient id="paint8_linear_1_2209" x1="20.1016" y1="14.6014" x2="14.9926" y2="20.3505" gradientUnits="userSpaceOnUse">
<stop stop-color="#FFC74E"/>
<stop offset="1" stop-color="#FF984D"/>
</linearGradient>
<linearGradient id="paint9_linear_1_2209" x1="19.4284" y1="19.3388" x2="16.7869" y2="22.3256" gradientUnits="userSpaceOnUse">
<stop stop-color="#FFEB74"/>
<stop offset="1" stop-color="#FFD86A"/>
</linearGradient>
<clipPath id="clip0_1_2209">
<rect width="36" height="36" fill="white"/>
</clipPath>
</defs>
</svg>
