<svg width="68" height="68" viewBox="0 0 68 68" fill="none" xmlns="http://www.w3.org/2000/svg">
<path d="M41.4475 44.4353C53.9362 35.6775 62.2215 25.9614 59.9547 22.7288L54.4618 14.8961L9.27036 46.5875L14.7632 54.4202C17.0086 57.6678 28.9661 53.1882 41.4475 44.4353Z" fill="url(#paint0_linear_1_2193)"/>
<path d="M27.7538 24.9086C15.2666 33.6655 6.9784 43.3806 9.24157 46.6078C11.5047 49.835 23.4623 45.3524 35.9495 36.5955C48.4367 27.8386 56.7249 18.1235 54.4617 14.8963C52.1986 11.6691 40.241 16.1517 27.7538 24.9086Z" fill="url(#paint1_linear_1_2193)"/>
<path style="mix-blend-mode:screen" d="M35.7749 36.3468C23.3723 45.0444 11.5317 49.5839 9.20747 46.5443L9.2485 46.6028C11.5154 49.8353 23.4729 45.3557 35.9544 36.6028C48.4358 27.85 56.7284 18.1289 54.4615 14.8963C54.4615 14.8963 54.4307 14.8524 54.4205 14.8378C56.4506 18.0837 48.1774 27.6493 35.7749 36.3468Z" fill="url(#paint2_linear_1_2193)"/>
<path d="M28.7486 26.3279C19.3 32.9539 13.0296 40.3063 14.7432 42.7499C16.4569 45.1936 25.5057 41.8031 34.9543 35.1771C44.4029 28.5511 50.6733 21.1987 48.9596 18.7551C47.246 16.3114 38.1972 19.7019 28.7486 26.3279Z" fill="url(#paint3_linear_1_2193)"/>
<path style="mix-blend-mode:screen" d="M49.0399 18.884C47.1097 16.6809 38.2177 20.0691 28.9283 26.5834C19.6389 33.0977 13.4241 40.3035 14.845 42.8638C15.3557 43.4548 16.3573 43.647 17.7339 43.489C19.4484 40.1047 24.5673 34.9221 31.4106 30.1231C38.2539 25.3241 44.8447 22.2405 48.6435 21.8131C49.2538 20.5777 49.4143 19.5705 49.0399 18.884Z" fill="url(#paint4_linear_1_2193)"/>
<path d="M17.4181 43.5134C18.9655 40.1044 24.2268 34.7892 31.2351 29.8745C38.2433 24.9599 45.033 21.8241 48.7724 21.5256C49.311 20.3405 49.407 19.3786 48.9659 18.7497C47.2529 16.307 38.2276 19.7341 28.7805 26.3591C19.3333 32.9841 13.0693 40.3334 14.7567 42.7395C15.1906 43.3735 16.1204 43.6161 17.4181 43.5134Z" fill="#99570E"/>
<defs>
<linearGradient id="paint0_linear_1_2193" x1="59.2623" y1="21.7415" x2="14.0493" y2="53.448" gradientUnits="userSpaceOnUse">
<stop stop-color="#FFD66B"/>
<stop offset="0.14" stop-color="#FFEB65"/>
<stop offset="0.22" stop-color="#D87F20"/>
<stop offset="0.35" stop-color="#D87F20"/>
<stop offset="0.47" stop-color="#6C440F"/>
<stop offset="0.6" stop-color="#6C440F"/>
<stop offset="0.64" stop-color="#FFEB65"/>
<stop offset="0.73" stop-color="#FFEB65"/>
<stop offset="0.81" stop-color="#D87F20"/>
<stop offset="0.92" stop-color="#FFD66B"/>
<stop offset="1" stop-color="#DA9528"/>
</linearGradient>
<linearGradient id="paint1_linear_1_2193" x1="27.1538" y1="24.0529" x2="35.6315" y2="36.1421" gradientUnits="userSpaceOnUse">
<stop stop-color="#FFEB74"/>
<stop offset="1" stop-color="#FFD86C"/>
</linearGradient>
<linearGradient id="paint2_linear_1_2193" x1="56.4925" y1="17.7924" x2="11.2795" y2="49.4989" gradientUnits="userSpaceOnUse">
<stop stop-color="#FFEB74"/>
<stop offset="1" stop-color="#FFD86C"/>
</linearGradient>
<linearGradient id="paint3_linear_1_2193" x1="28.2614" y1="25.6331" x2="35.5287" y2="35.9962" gradientUnits="userSpaceOnUse">
<stop stop-color="#FFC74E"/>
<stop offset="1" stop-color="#FF984D"/>
</linearGradient>
<linearGradient id="paint4_linear_1_2193" x1="48.1577" y1="17.6261" x2="13.9628" y2="41.6059" gradientUnits="userSpaceOnUse">
<stop stop-color="#FFC74E"/>
<stop offset="1" stop-color="#FF984D"/>
</linearGradient>
</defs>
</svg>
