<svg width="57" height="68" viewBox="0 0 57 68" fill="none" xmlns="http://www.w3.org/2000/svg">
<g filter="url(#filter0_d_0_1)">
<path d="M11.9807 13.9998H12.0625C12.0732 14.0008 12.084 13.998 12.0926 13.992C12.1012 13.9861 12.1069 13.9774 12.1087 13.9677C12.3255 12.9597 12.976 12.3145 13.9641 12.1315C13.9754 12.1286 13.9851 12.1221 13.9916 12.1133C13.9981 12.1045 14.001 12.0939 13.9997 12.0834C13.9977 12.076 13.9977 12.0683 13.9997 12.0609C13.9985 12.0524 13.9944 12.0445 13.9881 12.0382C13.9817 12.0319 13.9734 12.0275 13.9641 12.0256C12.8978 11.8298 12.2473 11.1171 12.0767 10H12.0198C12.0093 10.0006 11.9994 10.0045 11.9916 10.0109C11.9838 10.0173 11.9787 10.0259 11.9771 10.0353C11.7888 11.1492 11.1063 11.8522 10.0364 12.0288C10.0263 12.0303 10.0172 12.0351 10.0107 12.0421C10.0042 12.0492 10.0007 12.0581 10.0008 12.0673V12.0673C9.99858 12.0783 10.001 12.0897 10.0076 12.0992C10.0141 12.1087 10.0244 12.1157 10.0364 12.1187C11.0672 12.2888 11.739 12.9501 11.9558 13.9934L11.9807 13.9998Z" fill="#B047F1" fill-opacity="0.37" shape-rendering="crispEdges"/>
</g>
<g filter="url(#filter1_d_0_1)">
<path d="M13.9807 54.9998H14.0625C14.0732 55.0008 14.084 54.998 14.0926 54.992C14.1012 54.9861 14.1069 54.9774 14.1087 54.9677C14.3255 53.9597 14.976 53.3145 15.9641 53.1315C15.9754 53.1286 15.9851 53.1221 15.9916 53.1133C15.9981 53.1045 16.001 53.0939 15.9997 53.0834C15.9977 53.076 15.9977 53.0683 15.9997 53.0609C15.9985 53.0524 15.9944 53.0445 15.9881 53.0382C15.9817 53.0319 15.9734 53.0275 15.9641 53.0256C14.8978 52.8298 14.2473 52.1171 14.0767 51H14.0198C14.0093 51.0006 13.9994 51.0045 13.9916 51.0109C13.9838 51.0173 13.9787 51.0259 13.9771 51.0353C13.7888 52.1492 13.1063 52.8522 12.0364 53.0288C12.0263 53.0303 12.0172 53.0351 12.0107 53.0421C12.0042 53.0492 12.0007 53.0581 12.0008 53.0673V53.0673C11.9986 53.0783 12.001 53.0897 12.0076 53.0992C12.0141 53.1087 12.0244 53.1157 12.0364 53.1187C13.0672 53.2888 13.739 53.9501 13.9558 54.9934L13.9807 54.9998Z" fill="#B047F1" fill-opacity="0.37" shape-rendering="crispEdges"/>
</g>
<g filter="url(#filter2_d_0_1)">
<path d="M36.4855 7.99987H36.5468C36.5549 8.00057 36.563 7.99848 36.5694 7.99401C36.5759 7.98954 36.5802 7.98302 36.5815 7.97579C36.7441 7.2198 37.232 6.73588 37.9731 6.59864C37.9816 6.59642 37.9889 6.59159 37.9937 6.58498C37.9986 6.57837 38.0007 6.57042 37.9998 6.56253C37.9983 6.55699 37.9983 6.55122 37.9998 6.54568C37.9989 6.53933 37.9958 6.53339 37.991 6.52866C37.9863 6.52392 37.98 6.52062 37.9731 6.5192C37.1733 6.37233 36.6855 5.83784 36.5575 5H36.5149C36.507 5.00047 36.4995 5.00335 36.4937 5.00816C36.4879 5.01298 36.4841 5.01944 36.4829 5.02648C36.3416 5.86192 35.8297 6.38918 35.0273 6.5216C35.0197 6.52275 35.0129 6.5263 35.008 6.53159C35.0031 6.53689 35.0005 6.5436 35.0006 6.55049V6.55049C34.9989 6.55876 35.0007 6.56729 35.0057 6.57442C35.0106 6.58154 35.0183 6.58675 35.0273 6.58901C35.8004 6.71662 36.3042 7.21258 36.4669 7.99505L36.4855 7.99987Z" fill="#B047F1" fill-opacity="0.37" shape-rendering="crispEdges"/>
</g>
<g filter="url(#filter3_d_0_1)">
<path d="M46.4855 51.9999H46.5468C46.5549 52.0006 46.563 51.9985 46.5694 51.994C46.5759 51.9895 46.5802 51.983 46.5815 51.9758C46.7441 51.2198 47.232 50.7359 47.9731 50.5986C47.9816 50.5964 47.9889 50.5916 47.9937 50.585C47.9986 50.5784 48.0007 50.5704 47.9998 50.5625C47.9983 50.557 47.9983 50.5512 47.9998 50.5457C47.9989 50.5393 47.9958 50.5334 47.991 50.5287C47.9863 50.5239 47.98 50.5206 47.9731 50.5192C47.1733 50.3723 46.6855 49.8378 46.5575 49H46.5149C46.507 49.0005 46.4995 49.0033 46.4937 49.0082C46.4879 49.013 46.4841 49.0194 46.4829 49.0265C46.3416 49.8619 45.8297 50.3892 45.0273 50.5216C45.0197 50.5228 45.0129 50.5263 45.008 50.5316C45.0031 50.5369 45.0005 50.5436 45.0006 50.5505V50.5505C44.9989 50.5588 45.0007 50.5673 45.0057 50.5744C45.0106 50.5815 45.0183 50.5868 45.0273 50.589C45.8004 50.7166 46.3042 51.2126 46.4669 51.995L46.4855 51.9999Z" fill="#B047F1" fill-opacity="0.37" shape-rendering="crispEdges"/>
</g>
<g filter="url(#filter4_d_0_1)">
<path d="M20.9904 37.9999H21.0312C21.0366 38.0004 21.042 37.999 21.0463 37.996C21.0506 37.993 21.0535 37.9887 21.0543 37.9839C21.1627 37.4799 21.488 37.1573 21.9821 37.0658C21.9877 37.0643 21.9926 37.0611 21.9958 37.0567C21.9991 37.0522 22.0005 37.0469 21.9998 37.0417C21.9989 37.038 21.9989 37.0341 21.9998 37.0305C21.9992 37.0262 21.9972 37.0223 21.994 37.0191C21.9909 37.0159 21.9867 37.0137 21.9821 37.0128C21.4489 36.9149 21.1236 36.5586 21.0383 36H21.0099C21.0047 36.0003 20.9997 36.0022 20.9958 36.0054C20.9919 36.0087 20.9894 36.013 20.9886 36.0177C20.8944 36.5746 20.5531 36.9261 20.0182 37.0144C20.0132 37.0152 20.0086 37.0175 20.0053 37.0211C20.0021 37.0246 20.0003 37.0291 20.0004 37.0337V37.0337C19.9993 37.0392 20.0005 37.0449 20.0038 37.0496C20.0071 37.0544 20.0122 37.0578 20.0182 37.0593C20.5336 37.1444 20.8695 37.4751 20.9779 37.9967L20.9904 37.9999Z" fill="#B047F1" fill-opacity="0.37" shape-rendering="crispEdges"/>
</g>
<path d="M52.0853 34.68L53.6046 35.0184L54.8505 34.0853L54.5121 35.6047L55.4451 36.8506L53.9258 36.5121L52.6799 37.4452L53.0184 35.9259L52.0853 34.68Z" fill="white" fill-opacity="0.09"/>
<path opacity="0.2" d="M20.5427 3.83973L21.3023 4.00895L21.9253 3.54243L21.756 4.30209L22.2226 4.92504L21.4629 4.75581L20.84 5.22234L21.0092 4.46268L20.5427 3.83973Z" fill="white" fill-opacity="0.17"/>
<path opacity="0.2" d="M32.5427 27.8397L33.3023 28.009L33.9253 27.5424L33.756 28.3021L34.2226 28.925L33.4629 28.7558L32.84 29.2223L33.0092 28.4627L32.5427 27.8397Z" fill="white" fill-opacity="0.17"/>
<path opacity="0.2" d="M33.5427 58.8397L34.3023 59.009L34.9253 58.5424L34.756 59.3021L35.2226 59.925L34.4629 59.7558L33.84 60.2223L34.0092 59.4627L33.5427 58.8397Z" fill="white" fill-opacity="0.17"/>
<path d="M0.627961 26.5202L2.90693 27.0278L4.77579 25.6283L4.26812 27.9072L5.6677 29.7761L3.38873 29.2684L1.51987 30.668L2.02754 28.389L0.627961 26.5202Z" fill="white" fill-opacity="0.12"/>
<defs>
<filter id="filter0_d_0_1" x="1" y="5" width="22" height="22" filterUnits="userSpaceOnUse" color-interpolation-filters="sRGB">
<feFlood flood-opacity="0" result="BackgroundImageFix"/>
<feColorMatrix in="SourceAlpha" type="matrix" values="0 0 0 0 0 0 0 0 0 0 0 0 0 0 0 0 0 0 127 0" result="hardAlpha"/>
<feOffset dy="4"/>
<feGaussianBlur stdDeviation="4.5"/>
<feComposite in2="hardAlpha" operator="out"/>
<feColorMatrix type="matrix" values="0 0 0 0 0.690196 0 0 0 0 0.278431 0 0 0 0 0.945098 0 0 0 0.17 0"/>
<feBlend mode="normal" in2="BackgroundImageFix" result="effect1_dropShadow_0_1"/>
<feBlend mode="normal" in="SourceGraphic" in2="effect1_dropShadow_0_1" result="shape"/>
</filter>
<filter id="filter1_d_0_1" x="3" y="46" width="22" height="22" filterUnits="userSpaceOnUse" color-interpolation-filters="sRGB">
<feFlood flood-opacity="0" result="BackgroundImageFix"/>
<feColorMatrix in="SourceAlpha" type="matrix" values="0 0 0 0 0 0 0 0 0 0 0 0 0 0 0 0 0 0 127 0" result="hardAlpha"/>
<feOffset dy="4"/>
<feGaussianBlur stdDeviation="4.5"/>
<feComposite in2="hardAlpha" operator="out"/>
<feColorMatrix type="matrix" values="0 0 0 0 0.690196 0 0 0 0 0.278431 0 0 0 0 0.945098 0 0 0 0.17 0"/>
<feBlend mode="normal" in2="BackgroundImageFix" result="effect1_dropShadow_0_1"/>
<feBlend mode="normal" in="SourceGraphic" in2="effect1_dropShadow_0_1" result="shape"/>
</filter>
<filter id="filter2_d_0_1" x="26" y="0" width="21" height="21" filterUnits="userSpaceOnUse" color-interpolation-filters="sRGB">
<feFlood flood-opacity="0" result="BackgroundImageFix"/>
<feColorMatrix in="SourceAlpha" type="matrix" values="0 0 0 0 0 0 0 0 0 0 0 0 0 0 0 0 0 0 127 0" result="hardAlpha"/>
<feOffset dy="4"/>
<feGaussianBlur stdDeviation="4.5"/>
<feComposite in2="hardAlpha" operator="out"/>
<feColorMatrix type="matrix" values="0 0 0 0 0.690196 0 0 0 0 0.278431 0 0 0 0 0.945098 0 0 0 0.17 0"/>
<feBlend mode="normal" in2="BackgroundImageFix" result="effect1_dropShadow_0_1"/>
<feBlend mode="normal" in="SourceGraphic" in2="effect1_dropShadow_0_1" result="shape"/>
</filter>
<filter id="filter3_d_0_1" x="36" y="44" width="21" height="21" filterUnits="userSpaceOnUse" color-interpolation-filters="sRGB">
<feFlood flood-opacity="0" result="BackgroundImageFix"/>
<feColorMatrix in="SourceAlpha" type="matrix" values="0 0 0 0 0 0 0 0 0 0 0 0 0 0 0 0 0 0 127 0" result="hardAlpha"/>
<feOffset dy="4"/>
<feGaussianBlur stdDeviation="4.5"/>
<feComposite in2="hardAlpha" operator="out"/>
<feColorMatrix type="matrix" values="0 0 0 0 0.690196 0 0 0 0 0.278431 0 0 0 0 0.945098 0 0 0 0.17 0"/>
<feBlend mode="normal" in2="BackgroundImageFix" result="effect1_dropShadow_0_1"/>
<feBlend mode="normal" in="SourceGraphic" in2="effect1_dropShadow_0_1" result="shape"/>
</filter>
<filter id="filter4_d_0_1" x="11" y="31" width="20" height="20" filterUnits="userSpaceOnUse" color-interpolation-filters="sRGB">
<feFlood flood-opacity="0" result="BackgroundImageFix"/>
<feColorMatrix in="SourceAlpha" type="matrix" values="0 0 0 0 0 0 0 0 0 0 0 0 0 0 0 0 0 0 127 0" result="hardAlpha"/>
<feOffset dy="4"/>
<feGaussianBlur stdDeviation="4.5"/>
<feComposite in2="hardAlpha" operator="out"/>
<feColorMatrix type="matrix" values="0 0 0 0 0.690196 0 0 0 0 0.278431 0 0 0 0 0.945098 0 0 0 0.17 0"/>
<feBlend mode="normal" in2="BackgroundImageFix" result="effect1_dropShadow_0_1"/>
<feBlend mode="normal" in="SourceGraphic" in2="effect1_dropShadow_0_1" result="shape"/>
</filter>
</defs>
</svg>
