<svg width="28" height="28" viewBox="0 0 28 28" fill="none" xmlns="http://www.w3.org/2000/svg">
<path d="M4.93198 21.4375C4.95997 21.5526 5.01072 21.6608 5.08125 21.7559C5.15178 21.851 5.24065 21.9309 5.34261 21.9911C5.44457 22.0513 5.55755 22.0904 5.67488 22.1061C5.79221 22.1219 5.91151 22.114 6.02573 22.0828C11.2396 20.6392 16.7478 20.6392 21.9617 22.0828C22.0759 22.114 22.1952 22.1219 22.3125 22.1061C22.4298 22.0904 22.5428 22.0513 22.6448 21.9911C22.7467 21.9309 22.8356 21.851 22.9061 21.7559C22.9767 21.6608 23.0274 21.5526 23.0554 21.4375L25.8445 9.59221C25.8828 9.43366 25.876 9.26756 25.8249 9.11267C25.7738 8.95777 25.6804 8.82023 25.5553 8.71559C25.4302 8.61095 25.2783 8.54336 25.1168 8.52045C24.9553 8.49755 24.7906 8.52024 24.6414 8.58596L19.107 11.0469C18.9065 11.1352 18.6803 11.146 18.4723 11.0774C18.2642 11.0087 18.089 10.8653 17.9804 10.675L14.7648 4.87815C14.6891 4.74139 14.5782 4.62739 14.4436 4.54801C14.3089 4.46862 14.1555 4.42676 13.9992 4.42676C13.8429 4.42676 13.6894 4.46862 13.5548 4.54801C13.4201 4.62739 13.3092 4.74139 13.2335 4.87815L10.0179 10.675C9.90936 10.8653 9.73413 11.0087 9.52607 11.0774C9.31801 11.146 9.09188 11.1352 8.89135 11.0469L3.35698 8.58596C3.2077 8.52024 3.04301 8.49755 2.88152 8.52045C2.72003 8.54336 2.56815 8.61095 2.44303 8.71559C2.31792 8.82023 2.22454 8.95777 2.17344 9.11267C2.12234 9.26756 2.11556 9.43366 2.15385 9.59221L4.93198 21.4375Z" stroke="white" stroke-width="2" stroke-linecap="round" stroke-linejoin="round"/>
<path d="M10.5 17.6857C12.8266 17.4342 15.1734 17.4342 17.5 17.6857" stroke="white" stroke-width="2" stroke-linecap="round" stroke-linejoin="round"/>
</svg>
