<svg width="32" height="32" viewBox="0 0 32 32" fill="none" xmlns="http://www.w3.org/2000/svg">
<circle cx="16" cy="16" r="13.5" stroke="#69D6CF"/>
<path d="M15.9994 24.9999C16.9462 24.9999 17.7137 24.2323 17.7137 23.2856C17.7137 22.3388 16.9462 21.5713 15.9994 21.5713C15.0527 21.5713 14.2852 22.3388 14.2852 23.2856C14.2852 24.2323 15.0527 24.9999 15.9994 24.9999Z" fill="white"/>
<path d="M16 18.1429V17C16.7911 17 17.5645 16.7654 18.2223 16.3259C18.8801 15.8864 19.3928 15.2616 19.6955 14.5307C19.9983 13.7998 20.0775 12.9956 19.9231 12.2196C19.7688 11.4437 19.3878 10.731 18.8284 10.1716C18.269 9.61217 17.5563 9.2312 16.7804 9.07686C16.0044 8.92252 15.2002 9.00173 14.4693 9.30448C13.7384 9.60723 13.1136 10.1199 12.6741 10.7777C12.2346 11.4355 12 12.2089 12 13" stroke="white" stroke-width="3" stroke-linecap="round" stroke-linejoin="round"/>
</svg>
