<svg width="22" height="20" viewBox="0 0 22 20" fill="none" xmlns="http://www.w3.org/2000/svg">
<path d="M11.1722 7.44923L13.1409 8.69923C13.3948 8.85938 13.7073 8.6211 13.6331 8.32813L13.0628 6.08595C13.0474 6.0238 13.0498 5.95855 13.0699 5.89774C13.0899 5.83692 13.1267 5.783 13.1761 5.7422L14.9417 4.26954C15.1722 4.07813 15.055 3.69142 14.7542 3.67188L12.4495 3.52345C12.3866 3.51979 12.3262 3.49789 12.2755 3.46043C12.2249 3.42297 12.1863 3.37157 12.1644 3.31251L11.305 1.14845C11.2822 1.08591 11.2408 1.03189 11.1863 0.993711C11.1318 0.955536 11.0669 0.935059 11.0003 0.935059C10.9338 0.935059 10.8688 0.955536 10.8143 0.993711C10.7598 1.03189 10.7184 1.08591 10.6956 1.14845L9.83624 3.31251C9.81434 3.37157 9.77571 3.42297 9.72507 3.46043C9.67443 3.49789 9.61397 3.51979 9.55108 3.52345L7.2464 3.67188C6.94562 3.69142 6.82843 4.07813 7.0589 4.26954L8.82452 5.7422C8.87387 5.783 8.91069 5.83692 8.93073 5.89774C8.95077 5.95855 8.95322 6.0238 8.9378 6.08595L8.41046 8.16407C8.32062 8.51563 8.69562 8.80079 8.9964 8.60938L10.8284 7.44923C10.8798 7.41656 10.9394 7.39921 11.0003 7.39921C11.0612 7.39921 11.1208 7.41656 11.1722 7.44923V7.44923Z" stroke="white" stroke-linecap="round" stroke-linejoin="round"/>
<path d="M5.17218 17.4492L7.14093 18.6992C7.39484 18.8594 7.70734 18.6211 7.63312 18.3281L7.0628 16.0859C7.04738 16.0238 7.04983 15.9586 7.06988 15.8977C7.08992 15.8369 7.12674 15.783 7.17609 15.7422L8.94171 14.2695C9.17218 14.0781 9.05499 13.6914 8.75421 13.6719L6.44952 13.5234C6.38664 13.5198 6.32618 13.4979 6.27554 13.4604C6.2249 13.423 6.18627 13.3716 6.16437 13.3125L5.30499 11.1484C5.28224 11.0859 5.2408 11.0319 5.18629 10.9937C5.13179 10.9555 5.06685 10.9351 5.0003 10.9351C4.93376 10.9351 4.86882 10.9555 4.81431 10.9937C4.75981 11.0319 4.71836 11.0859 4.69562 11.1484L3.83624 13.3125C3.81434 13.3716 3.77571 13.423 3.72507 13.4604C3.67443 13.4979 3.61397 13.5198 3.55108 13.5234L1.2464 13.6719C0.945616 13.6914 0.828428 14.0781 1.0589 14.2695L2.82452 15.7422C2.87387 15.783 2.91069 15.8369 2.93073 15.8977C2.95077 15.9586 2.95322 16.0238 2.9378 16.0859L2.41046 18.1641C2.32062 18.5156 2.69562 18.8008 2.9964 18.6094L4.82843 17.4492C4.8798 17.4166 4.93942 17.3992 5.0003 17.3992C5.06118 17.3992 5.1208 17.4166 5.17218 17.4492V17.4492Z" stroke="white" stroke-linecap="round" stroke-linejoin="round"/>
<path d="M17.1722 17.4492L19.1409 18.6992C19.3948 18.8594 19.7073 18.6211 19.6331 18.3281L19.0628 16.0859C19.0474 16.0238 19.0498 15.9586 19.0699 15.8977C19.0899 15.8369 19.1267 15.783 19.1761 15.7422L20.9417 14.2695C21.1722 14.0781 21.055 13.6914 20.7542 13.6719L18.4495 13.5234C18.3866 13.5198 18.3262 13.4979 18.2755 13.4604C18.2249 13.423 18.1863 13.3716 18.1644 13.3125L17.305 11.1484C17.2822 11.0859 17.2408 11.0319 17.1863 10.9937C17.1318 10.9555 17.0669 10.9351 17.0003 10.9351C16.9338 10.9351 16.8688 10.9555 16.8143 10.9937C16.7598 11.0319 16.7184 11.0859 16.6956 11.1484L15.8362 13.3125C15.8143 13.3716 15.7757 13.423 15.7251 13.4604C15.6744 13.4979 15.614 13.5198 15.5511 13.5234L13.2464 13.6719C12.9456 13.6914 12.8284 14.0781 13.0589 14.2695L14.8245 15.7422C14.8739 15.783 14.9107 15.8369 14.9307 15.8977C14.9508 15.9586 14.9532 16.0238 14.9378 16.0859L14.4105 18.1641C14.3206 18.5156 14.6956 18.8008 14.9964 18.6094L16.8284 17.4492C16.8798 17.4166 16.9394 17.3992 17.0003 17.3992C17.0612 17.3992 17.1208 17.4166 17.1722 17.4492V17.4492Z" stroke="white" stroke-linecap="round" stroke-linejoin="round"/>
</svg>
