<svg width="112" height="112" viewBox="0 0 112 112" fill="none" xmlns="http://www.w3.org/2000/svg">
<path d="M57.9505 76.9557C58.3322 75.88 56.7023 74.3197 54.3099 73.4707C51.9176 72.6216 49.6687 72.8053 49.2869 73.881C48.9052 74.9566 50.5351 76.5169 52.9275 77.366C55.3198 78.215 57.5687 78.0313 57.9505 76.9557Z" fill="#FFD243"/>
<path d="M52.6923 79.6113C51.8095 79.7127 50.8925 79.5013 50.0855 79.104C49.2735 78.7066 48.5601 78.12 47.9936 77.417C47.4272 76.7139 46.9938 75.8896 46.8081 74.9843C46.7196 74.5327 46.6911 74.0603 46.7737 73.5986C46.8563 73.1369 47.0366 72.6911 47.3337 72.345C47.3599 72.3139 47.3962 72.2929 47.4363 72.2856C47.4763 72.2783 47.5177 72.2851 47.5533 72.305C47.5888 72.3249 47.6163 72.3565 47.6311 72.3945C47.6458 72.4324 47.6469 72.4744 47.6341 72.513L47.6324 72.5186C47.388 73.2746 47.4782 74.0292 47.7363 74.7346C47.9945 75.4399 48.3996 76.0976 48.888 76.6842C49.3797 77.2732 49.9539 77.7881 50.5929 78.213C51.2472 78.6464 51.9657 78.9741 52.722 79.184H52.7268C52.7753 79.1978 52.8175 79.228 52.8463 79.2694C52.8751 79.3108 52.8886 79.3609 52.8847 79.4111C52.8807 79.4614 52.8594 79.5088 52.8244 79.5451C52.7894 79.5814 52.743 79.6045 52.6929 79.6105L52.6923 79.6113Z" fill="#371A45"/>
<path d="M45.615 69.2287H72.4855C72.7866 69.2287 73.0847 69.1683 73.362 69.0509C73.6393 68.9336 73.8903 68.7619 74.1 68.5458C74.3097 68.3297 74.4739 68.0738 74.5829 67.7931C74.6919 67.5124 74.7434 67.2127 74.7345 66.9117L74.025 43.0921C74.0072 42.4962 73.7538 41.9318 73.3202 41.5226C72.8866 41.1135 72.3083 40.8932 71.7124 40.9101L45.5518 41.6482C44.9663 41.6646 44.4103 41.9088 44.002 42.3288C43.5936 42.7487 43.3652 43.3114 43.3652 43.8971V66.9775C43.3651 67.2731 43.4231 67.5658 43.5361 67.8389C43.6491 68.112 43.8148 68.3602 44.0237 68.5693C44.2326 68.7783 44.4807 68.9442 44.7538 69.0573C45.0268 69.1705 45.3195 69.2287 45.615 69.2287Z" fill="white"/>
<g opacity="0.25">
<path d="M74.7364 66.9111C74.7454 67.2122 74.6938 67.5119 74.5849 67.7926C74.4759 68.0734 74.3117 68.3294 74.102 68.5455C73.8923 68.7617 73.6413 68.9335 73.364 69.0509C73.0867 69.1683 72.7886 69.2289 72.4875 69.229H45.6159C45.0193 69.2287 44.4472 68.9915 44.0255 68.5694C43.6039 68.1474 43.367 67.5752 43.3672 66.9786V63.5845C43.3673 64.1808 43.6043 64.7527 44.026 65.1745C44.4476 65.5962 45.0195 65.8332 45.6159 65.8334H72.4875C72.9787 65.8337 73.4565 65.6731 73.8479 65.3762C74.2392 65.0793 74.5226 64.6624 74.6547 64.1893L74.7364 66.9111Z" fill="#371A45"/>
</g>
<path d="M72.4884 69.7896H45.6179C44.8725 69.7887 44.158 69.4923 43.631 68.9653C43.1039 68.4382 42.8075 67.7237 42.8067 66.9784V43.898C42.803 43.165 43.0872 42.4599 43.5982 41.9344C44.1091 41.4089 44.8059 41.1049 45.5386 41.0879L71.6996 40.3498C73.2396 40.3056 74.543 41.5294 74.5889 43.0764L75.2984 66.8946C75.3096 67.2707 75.2452 67.6452 75.109 67.9959C74.9728 68.3466 74.7676 68.6664 74.5056 68.9363C74.2435 69.2063 73.93 69.4209 73.5835 69.5674C73.237 69.714 72.8646 69.7895 72.4884 69.7896V69.7896ZM71.7794 41.4715H71.7312L45.5703 42.2096C45.1301 42.2198 44.7116 42.4023 44.4047 42.718C44.0978 43.0336 43.927 43.4571 43.9292 43.8974V66.9778C43.9297 67.4255 44.1078 67.8547 44.4244 68.1713C44.7409 68.4879 45.1702 68.666 45.6179 68.6665H72.4884C72.7143 68.6664 72.938 68.621 73.1461 68.533C73.3542 68.4449 73.5425 68.316 73.6999 68.1539C73.8573 67.9918 73.9805 67.7997 74.0623 67.5891C74.1441 67.3784 74.1829 67.1535 74.1762 66.9277L73.4667 43.1092C73.4528 42.6707 73.2691 42.2547 72.9542 41.9491C72.6394 41.6435 72.2181 41.4723 71.7794 41.4715V41.4715Z" fill="#371A45"/>
<path d="M45.5605 61.6194H43.462C43.1322 61.6194 42.816 61.4884 42.5829 61.2553C42.3497 61.0221 42.2188 60.7059 42.2188 60.3762V55.5776L46.192 53.769L45.9346 60.9177L45.5605 61.6194Z" fill="white"/>
<g opacity="0.25">
<path d="M46.19 53.7695L45.9332 60.9171L45.558 61.6196H43.46C43.1303 61.6196 42.8141 61.4886 42.5809 61.2555C42.3478 61.0223 42.2168 60.7061 42.2168 60.3764V57.9144C42.2168 58.0776 42.249 58.2393 42.3114 58.3901C42.3739 58.5409 42.4655 58.6779 42.5809 58.7933C42.6964 58.9088 42.8334 59.0003 42.9843 59.0628C43.1351 59.1252 43.2968 59.1573 43.46 59.1573H45.558L45.9332 58.4548L46.1012 53.8096L46.19 53.7695Z" fill="#371A45"/>
</g>
<path d="M45.5592 62.1811H43.4606C42.9821 62.1806 42.5235 61.9903 42.1852 61.652C41.8469 61.3136 41.6567 60.8549 41.6562 60.3765V55.5779C41.6562 55.429 41.7154 55.2862 41.8206 55.181C41.9259 55.0757 42.0687 55.0166 42.2175 55.0166C42.3664 55.0166 42.5091 55.0757 42.6144 55.181C42.7196 55.2862 42.7788 55.429 42.7788 55.5779V60.3765C42.779 60.5573 42.8509 60.7305 42.9787 60.8584C43.1065 60.9862 43.2798 61.0581 43.4606 61.0583H45.5592C45.7081 61.0583 45.8509 61.1174 45.9561 61.2227C46.0614 61.328 46.1206 61.4708 46.1206 61.6197C46.1206 61.7686 46.0614 61.9114 45.9561 62.0167C45.8509 62.122 45.7081 62.1811 45.5592 62.1811V62.1811Z" fill="#371A45"/>
<path d="M79.9305 70.4815C79.3932 72.8971 76.2558 73.2644 74.6181 70.5778C74.4812 70.3542 74.3606 70.1211 74.2572 69.8801C74.2572 69.8801 73.0879 70.3561 72.5772 69.8431C72.4459 69.7115 72.3577 69.5144 72.3431 69.2288L70.9574 71.0029C70.9574 71.0029 71.8122 79.945 70.2081 81.5091C68.604 83.0731 61.2257 82.8724 59.7823 81.6695C59.3763 81.3335 59.224 80.8819 59.2385 80.4053C59.2408 80.321 59.2478 80.2369 59.2593 80.1533C59.4231 78.9921 60.4479 77.7475 61.1473 77.5596L61.0252 73.0895L59.0621 73.0671L57.4967 73.0494V77.6207C57.7797 77.8907 58.0369 78.1866 58.265 78.5044C58.475 78.7964 58.685 79.1414 58.825 79.5101C59.1506 80.3602 59.1153 81.3371 57.9108 82.0718C56.1879 83.1241 52.4788 83.0854 50.019 81.8921C48.6652 81.236 47.6885 80.2303 47.6323 78.8639C47.4718 75.0142 47.3523 71.8462 47.3523 71.8462C45.0263 69.6152 44.4747 65.1822 45.3889 58.931L45.9103 54.899L45.9357 54.6971C45.9357 54.6971 41.4703 59.5635 36.0713 56.3284C34.0503 54.9071 32.2138 52.4705 30.5103 49.2978C28.0143 49.2978 26.5723 47.0298 26.7745 44.7876V44.7859C26.8644 43.7849 27.2785 42.789 28.0771 41.9996L24.7549 37.9861C24.637 37.8441 24.5501 37.6789 24.4996 37.5013C24.4492 37.3238 24.4364 37.1376 24.4621 36.9548C24.4877 36.772 24.5512 36.5965 24.6486 36.4396C24.7459 36.2828 24.8749 36.1479 25.0273 36.0438L25.0965 35.9973C25.3702 35.8108 25.7036 35.7333 26.0315 35.78C26.3593 35.8266 26.658 35.9939 26.8689 36.2493L29.7335 39.7252L29.411 35.388C29.3853 35.0434 29.4949 34.7023 29.7167 34.4372C29.9385 34.1721 30.2549 34.004 30.5986 33.9685C30.9424 33.9329 31.2865 34.0329 31.5578 34.247C31.829 34.4612 32.0061 34.7727 32.0514 35.1153L32.5663 39.0319C35.1118 39.0599 36.2903 40.4994 35.6138 43.8437L39.5179 47.5588C39.5179 47.5588 43.794 43.4685 47.8843 42.8548C51.9745 42.241 69.806 41.5715 69.806 41.5715C69.806 41.5715 70.5567 41.8538 71.577 42.8195C72.641 43.825 73.9973 45.5719 75.0991 48.5088C77.1314 53.9223 78.0671 59.8569 78.5479 64.9095C78.5479 64.9076 80.5127 67.875 79.9305 70.4815Z" fill="white"/>
<path d="M54.4581 83.3816C52.74 83.3816 50.8959 83.003 49.5152 82.2655C47.9752 81.442 47.1288 80.2733 47.0711 78.8856C46.9364 75.653 46.8289 72.8718 46.7987 72.0867C44.5183 69.7313 43.8749 65.3964 44.8317 58.8486L45.1884 56.0886C44.5881 56.5387 43.9412 56.9231 43.2589 57.2352C40.7389 58.377 38.1542 58.2295 35.7815 56.8076C35.7697 56.8006 35.7583 56.7934 35.7471 56.7855C33.7963 55.4135 31.9693 53.1413 30.1678 49.844C28.5528 49.7225 27.225 48.7372 26.5748 47.156C25.8614 45.42 26.1725 43.404 27.3342 41.9805L24.3225 38.3444C24.155 38.142 24.0315 37.9069 23.96 37.654C23.8885 37.4012 23.8705 37.1362 23.9072 36.876C23.9439 36.6158 24.0345 36.3661 24.1732 36.1429C24.3118 35.9197 24.4955 35.7279 24.7125 35.5797L24.7812 35.5332C25.1696 35.2659 25.6444 35.1544 26.1112 35.2209C26.578 35.2874 27.0028 35.5271 27.3011 35.8922L29.0419 38.0042L28.8509 35.4282C28.814 34.9377 28.97 34.4522 29.2856 34.0749C29.6012 33.6976 30.0515 33.4583 30.5408 33.4079C31.0301 33.3575 31.5198 33.5 31.9056 33.8051C32.2915 34.1102 32.5431 34.5538 32.6069 35.0416L33.0619 38.4912C34.1981 38.5889 35.0557 38.9873 35.6155 39.6792C36.3342 40.5679 36.5336 41.8674 36.2222 43.6451L39.5262 46.7901C40.7022 45.7504 44.2717 42.8275 47.8019 42.2969C51.8765 41.6846 69.0564 41.0352 69.7856 41.0089C69.8604 41.0061 69.935 41.0183 70.0051 41.0448C70.1425 41.0968 73.4023 42.386 75.6252 48.3099C77.3332 52.8585 78.4675 58.2278 79.0944 64.7207C79.4747 65.335 81.0438 68.076 80.4799 70.6041C80.1791 71.9526 79.1684 72.8684 77.8426 72.9939C76.3208 73.1386 74.8362 72.1953 73.9626 70.5601C73.5182 70.6651 72.8849 70.7248 72.3946 70.4123C72.3361 70.375 72.2808 70.333 72.2291 70.2868L71.5361 71.1733C71.7125 73.123 72.2389 80.3136 70.6001 81.9113C69.4241 83.0593 66.3138 83.1887 64.9799 83.1887H64.9331C62.9877 83.1842 60.377 82.8969 59.4222 82.1012C59.3022 82.0015 59.1938 81.8888 59.0988 81.7652C58.878 82.0584 58.5793 82.3198 58.2028 82.5492C57.2875 83.108 55.9172 83.3816 54.4581 83.3816ZM45.9346 54.1345C46.0144 54.1343 46.0933 54.1511 46.1661 54.1839C46.2388 54.2167 46.3037 54.2647 46.3565 54.3246C46.4092 54.3845 46.4485 54.455 46.4717 54.5314C46.4949 54.6077 46.5016 54.6882 46.4912 54.7673L45.9441 59.0014C45.0327 65.2401 45.6361 69.4219 47.74 71.4399C47.8451 71.5405 47.9068 71.6781 47.9122 71.8235C47.9122 71.8551 48.0343 75.0345 48.1922 78.8389C48.2432 80.0622 49.2282 80.8389 50.0436 81.2749C52.4729 82.573 56.1101 82.5105 57.6179 81.5907C58.1244 81.2827 58.391 80.9254 58.4324 80.5015C58.5254 79.5534 57.514 78.3982 57.1164 78.0328C57.0591 77.9801 57.0133 77.9162 56.982 77.8449C56.9507 77.7737 56.9345 77.6967 56.9344 77.6189V73.0479C56.9346 72.9736 56.9495 72.9 56.9783 72.8314C57.0072 72.7629 57.0493 72.7008 57.1024 72.6486C57.2097 72.5442 57.3536 72.486 57.5033 72.4865L61.0313 72.5266C61.1766 72.5278 61.3157 72.5855 61.4192 72.6874C61.5228 72.7892 61.5827 72.9274 61.5863 73.0726L61.7078 77.5433C61.7112 77.6693 61.6721 77.7928 61.5968 77.8939C61.5215 77.995 61.4143 78.0678 61.2926 78.1005C60.8661 78.2153 60.0471 79.1466 59.843 80.077C59.675 80.8484 60.0259 81.141 60.1415 81.2379C61.3984 82.2854 68.4729 82.4167 69.8158 81.1069C70.7891 80.1582 70.7417 74.6585 70.3976 71.0563C70.3839 70.9132 70.4256 70.7703 70.5141 70.657L71.901 68.8826C71.9711 68.7917 72.0674 68.7245 72.177 68.6902C72.2865 68.6559 72.404 68.656 72.5135 68.6907C72.6229 68.7253 72.7191 68.7928 72.7889 68.8839C72.8588 68.9751 72.8989 69.0855 72.9039 69.2002C72.9109 69.3402 72.9423 69.4292 72.9969 69.4642C73.1929 69.5894 73.7425 69.4818 74.0474 69.3595C74.1833 69.3049 74.3351 69.3054 74.4706 69.3609C74.6061 69.4164 74.7147 69.5226 74.7732 69.6568C75.5401 71.4292 76.8491 71.9596 77.7367 71.8756C78.5742 71.7963 79.1899 71.2293 79.3842 70.3591C79.9056 68.0216 78.0985 65.2449 78.0803 65.2169C78.0297 65.1402 77.9986 65.0522 77.9898 64.9607C77.3738 58.5075 76.258 53.1898 74.5738 48.7042C72.7499 43.8445 70.2078 42.3871 69.696 42.1354C68.0602 42.1981 51.7972 42.8323 47.9679 43.4077C44.1039 43.9887 39.9465 47.9238 39.9039 47.9636C39.7995 48.0631 39.6607 48.1187 39.5164 48.1187C39.3721 48.1187 39.2334 48.0631 39.1289 47.9636L35.2285 44.2482C35.1597 44.1829 35.1086 44.1011 35.08 44.0106C35.0515 43.9201 35.0464 43.8238 35.0653 43.7308C35.3808 42.165 35.2725 41.0394 34.7438 40.3859C34.3269 39.8704 33.5925 39.6019 32.5598 39.5913C32.4247 39.59 32.2946 39.5398 32.1936 39.4502C32.0925 39.3605 32.0273 39.2373 32.0099 39.1032L31.4936 35.1888C31.4688 35.0048 31.3783 34.836 31.2387 34.7136C31.0991 34.5912 30.9199 34.5235 30.7342 34.523C30.6289 34.5231 30.5247 34.5448 30.4282 34.587C30.3316 34.6291 30.2448 34.6907 30.1732 34.7679C30.1015 34.8451 30.0465 34.9363 30.0117 35.0357C29.9769 35.1351 29.9629 35.2406 29.9707 35.3456L30.2927 39.6834C30.3025 39.8027 30.2738 39.9219 30.2109 40.0237C30.148 40.1255 30.0541 40.2044 29.9431 40.249C29.832 40.2935 29.7096 40.3013 29.5938 40.2712C29.478 40.2412 29.3749 40.1748 29.2995 40.0818L26.4359 36.6062C26.3149 36.4581 26.1426 36.3609 25.9532 36.334C25.7638 36.307 25.5712 36.3523 25.4137 36.4609L25.3454 36.5074C25.2575 36.5674 25.1831 36.6451 25.1269 36.7356C25.0708 36.826 25.0341 36.9271 25.0192 37.0325C25.0044 37.1379 25.0117 37.2452 25.0406 37.3477C25.0696 37.4501 25.1196 37.5454 25.1874 37.6274L28.5091 41.6384C28.5982 41.7464 28.6437 41.8838 28.6368 42.0236C28.6298 42.1635 28.5709 42.2957 28.4715 42.3944C27.1754 43.6765 27.1066 45.4945 27.6134 46.7274C28.1294 47.9826 29.2119 48.7322 30.5094 48.7322C30.6109 48.732 30.7105 48.7595 30.7976 48.8117C30.8847 48.8638 30.956 48.9386 31.0039 49.0281C32.7399 52.2655 34.5478 54.5615 36.3759 55.8531C41.302 58.7884 45.3513 54.4976 45.5213 54.3131C45.5741 54.2565 45.6381 54.2113 45.7093 54.1806C45.7804 54.1498 45.8571 54.1341 45.9346 54.1345V54.1345ZM58.0586 77.382C58.3201 77.6478 58.7866 78.1683 59.1293 78.817C59.4933 78.1246 60.0334 77.5131 60.5763 77.1986L60.4797 73.6426L58.0586 73.6146V77.382Z" fill="#371A45"/>
<path d="M27.823 41.4959C28.2352 41.2909 28.6983 41.1573 29.1734 41.1512C29.6514 41.1401 30.1248 41.2465 30.5522 41.4609C30.9856 41.6774 31.3603 41.9955 31.6442 42.3882C31.9311 42.7879 32.084 43.2682 32.0807 43.7602C32.0712 44.2229 31.9576 44.6775 31.7483 45.0902C31.6991 45.188 31.645 45.2832 31.5862 45.3755C31.5302 45.4679 31.4692 45.5571 31.4036 45.6429L31.3065 45.7726L31.1852 45.9075C31.1032 45.9868 31.0158 46.0605 30.9237 46.1279C30.572 46.3865 30.155 46.5417 29.7197 46.5759C29.5103 46.5913 29.2998 46.5704 29.0976 46.514C28.9047 46.4565 28.7243 46.3634 28.5656 46.2396C28.7462 46.2964 28.9348 46.3237 29.1242 46.3203C29.3036 46.3139 29.4809 46.2784 29.6489 46.215C29.9801 46.0985 30.2671 45.8809 30.4808 45.6348C30.5317 45.5737 30.5785 45.5093 30.6208 45.4419C30.6378 45.4091 30.6558 45.3781 30.6734 45.347L30.7266 45.2302C30.7631 45.1531 30.7953 45.074 30.8229 44.9933C30.8524 44.9148 30.8777 44.8347 30.8985 44.7534C30.9865 44.4536 31.0071 44.138 30.9587 43.8294C30.9468 43.7585 30.9308 43.6884 30.9108 43.6194C30.8941 43.5511 30.8738 43.4838 30.8498 43.4178C30.8009 43.287 30.7409 43.1607 30.6703 43.0403C30.5214 42.7929 30.3052 42.5929 30.047 42.4635C29.917 42.3966 29.7787 42.3473 29.6357 42.3168C29.4924 42.2833 29.3452 42.2688 29.1981 42.2737C28.9024 42.2762 28.6084 42.3613 28.3326 42.4977L28.32 42.5039C28.2538 42.5365 28.1818 42.5557 28.1082 42.5605C28.0346 42.5653 27.9607 42.5556 27.8909 42.5319C27.821 42.5081 27.7565 42.4708 27.701 42.4222C27.6456 42.3735 27.6003 42.3144 27.5676 42.2482C27.535 42.182 27.5158 42.1101 27.511 42.0364C27.5062 41.9628 27.5159 41.8889 27.5396 41.8191C27.5634 41.7492 27.6006 41.6847 27.6493 41.6293C27.698 41.5738 27.7571 41.5285 27.8233 41.4959H27.823Z" fill="#371A45"/>
<path d="M31.3766 43.7079C31.2666 43.7079 31.159 43.6756 31.0671 43.615C30.9753 43.5544 30.9033 43.4681 30.86 43.3669C30.3577 42.1909 30.2846 41.046 30.6545 40.1421C30.9547 39.4082 31.5418 38.844 32.3524 38.5106C32.4206 38.4825 32.4937 38.4681 32.5674 38.4683C32.6411 38.4684 32.7141 38.4831 32.7821 38.5114C32.8502 38.5398 32.912 38.5813 32.964 38.6335C33.016 38.6858 33.0573 38.7477 33.0853 38.8159C33.1134 38.8841 33.1278 38.9571 33.1276 39.0308C33.1275 39.1046 33.1128 39.1775 33.0845 39.2456C33.0561 39.3136 33.0146 39.3754 32.9624 39.4275C32.9102 39.4795 32.8482 39.5207 32.78 39.5488C32.2458 39.7686 31.8801 40.1113 31.6936 40.5672C31.4385 41.191 31.5091 42.0285 31.8924 42.9256C31.9288 43.011 31.9435 43.104 31.9351 43.1964C31.9268 43.2889 31.8957 43.3778 31.8446 43.4553C31.7935 43.5327 31.7241 43.5964 31.6424 43.6405C31.5608 43.6845 31.4694 43.7077 31.3766 43.7079V43.7079Z" fill="#371A45"/>
<path d="M31.9089 42.9863C32.0604 43.1904 32.2368 43.3533 32.4266 43.4203C32.6131 43.4925 32.8404 43.462 33.0502 43.3021C33.2599 43.1422 33.4178 42.8787 33.5032 42.5833C33.5886 42.2879 33.6023 41.9573 33.5572 41.6313C33.6916 41.9323 33.7812 42.2675 33.7812 42.6214C33.7812 42.9753 33.6989 43.3494 33.4662 43.6801C33.3427 43.854 33.1813 43.9976 32.9942 44.1001C32.7912 44.2085 32.5639 44.2631 32.3339 44.2589C32.1092 44.2548 31.8873 44.2073 31.6807 44.1189C31.4879 44.0361 31.3055 43.9307 31.1375 43.805L31.114 43.7876C31.0529 43.7437 31.0011 43.688 30.9616 43.6239C30.9221 43.5598 30.8957 43.4885 30.884 43.4142C30.8722 43.3398 30.8753 43.2639 30.893 43.1907C30.9108 43.1176 30.9429 43.0487 30.9874 42.988C31.0319 42.9273 31.0881 42.876 31.1525 42.8371C31.217 42.7983 31.2885 42.7726 31.363 42.7615C31.4374 42.7504 31.5134 42.7542 31.5863 42.7727C31.6593 42.7911 31.7279 42.8238 31.7882 42.8689C31.8338 42.9021 31.8744 42.9416 31.9089 42.9863Z" fill="#371A45"/>
<path d="M32.564 53.1476C32.4237 53.151 32.2872 53.1017 32.1816 53.0093C32.0759 52.9169 32.0088 52.7883 31.9936 52.6488C31.9783 52.5093 32.0159 52.3691 32.0991 52.256C32.1822 52.143 32.3047 52.0653 32.4424 52.0382C38.2104 50.753 38.0609 46.8966 38.0517 46.7331C38.0464 46.5871 38.0983 46.4447 38.1962 46.3363C38.2942 46.2279 38.4306 46.162 38.5764 46.1525C38.7223 46.1431 38.866 46.1909 38.9772 46.2857C39.0883 46.3806 39.1581 46.5151 39.1717 46.6606C39.175 46.7132 39.249 47.9606 38.4596 49.3841C37.7484 50.6662 36.1695 52.3577 32.686 53.1342C32.6459 53.143 32.605 53.1475 32.564 53.1476V53.1476Z" fill="#371A45"/>
<path d="M39.9828 47.2412L41.4575 50.3917L39.056 47.8748C38.9597 47.7643 38.9098 47.621 38.9166 47.4746C38.9235 47.3282 38.9865 47.1901 39.0926 47.0891C39.1987 46.988 39.3397 46.9318 39.4862 46.9321C39.6328 46.9325 39.7735 46.9893 39.8792 47.0908C39.9213 47.1352 39.9563 47.186 39.9828 47.2412V47.2412Z" fill="#371A45"/>
<path d="M45.0192 56.2203C44.9786 56.8517 44.9999 57.543 45.0536 58.2643C45.072 58.5082 45.1813 58.7363 45.3598 58.9035C45.5383 59.0708 45.7731 59.1649 46.0177 59.1673L72.4217 59.4193C72.6647 59.4206 72.8984 59.3255 73.0715 59.155C73.2447 58.9845 73.3432 58.7523 73.3457 58.5093C73.3574 57.7132 73.3143 56.9413 73.1964 56.206C73.162 55.9913 73.0524 55.7958 72.8873 55.6543C72.7221 55.5129 72.512 55.4347 72.2946 55.4338L45.9972 55.3145C45.7496 55.3127 45.5106 55.4054 45.3289 55.5737C45.1472 55.742 45.0364 55.9732 45.0192 56.2203V56.2203Z" fill="white"/>
<g opacity="0.25">
<path d="M73.3408 58.5094C73.3383 58.7526 73.2394 58.9848 73.066 59.1553C72.8925 59.3257 72.6586 59.4205 72.4154 59.4188L46.0114 59.1688C45.7669 59.1662 45.5322 59.072 45.3538 58.9047C45.1753 58.7375 45.0661 58.5094 45.0477 58.2655C44.9948 57.5437 44.9721 56.8524 45.0138 56.2215C45.0155 56.2025 45.0172 56.1832 45.0202 56.1655C45.0284 56.3055 45.0362 56.4511 45.0482 56.5953C45.0667 56.8392 45.1759 57.0672 45.3543 57.2344C45.5328 57.4016 45.7675 57.4958 46.012 57.4983L72.416 57.7486C72.6128 57.7505 72.8049 57.6888 72.9638 57.5728C73.1228 57.4568 73.24 57.2926 73.2983 57.1046C73.3344 57.5616 73.3473 58.0298 73.3408 58.5094Z" fill="#371A45"/>
</g>
<path d="M72.4289 59.9004H72.4157L46.0117 59.6498C45.6471 59.6445 45.2975 59.5033 45.0313 59.2539C44.7652 59.0045 44.6016 58.6649 44.5725 58.3013C44.5107 57.4719 44.4995 56.7812 44.5378 56.1895C44.5632 55.8214 44.7273 55.4766 44.9972 55.2249C45.267 54.9732 45.6223 54.8333 45.9913 54.8335H45.998L72.2953 54.9528C72.627 54.9532 72.9476 55.0718 73.1996 55.2873C73.4517 55.5029 73.6186 55.8012 73.6704 56.1288C73.7877 56.8618 73.8384 57.6425 73.8258 58.5152C73.8208 58.883 73.6716 59.2342 73.4104 59.4932C73.1492 59.7522 72.7968 59.8984 72.4289 59.9004V59.9004ZM45.9924 55.7959C45.8678 55.7951 45.7475 55.8417 45.6559 55.9263C45.5643 56.0109 45.5082 56.1271 45.4991 56.2514V56.2514C45.4638 56.798 45.475 57.4451 45.5332 58.2296C45.5431 58.353 45.5987 58.4683 45.689 58.5529C45.7794 58.6375 45.8981 58.6854 46.0218 58.6871L72.4258 58.9391H72.43C72.5452 58.938 72.6554 58.8918 72.7369 58.8103C72.8184 58.7289 72.8646 58.6187 72.8657 58.5035C72.8777 57.687 72.831 56.9607 72.7223 56.2833C72.7062 56.1811 72.6542 56.088 72.5755 56.0207C72.4969 55.9534 72.3969 55.9164 72.2934 55.9163L45.9961 55.797L45.9924 55.7959Z" fill="#371A45"/>
<path d="M67.6397 54.5007V60.6249C67.6396 61.3991 67.332 62.1416 66.7846 62.6891C66.2371 63.2365 65.4946 63.5441 64.7204 63.5442H54.5189C53.7448 63.5437 53.0025 63.236 52.4551 62.6886C51.9078 62.1413 51.6001 61.399 51.5996 60.6249V54.5747C51.5996 53.0669 52.7476 51.8141 54.2495 51.6683C57.7215 51.3281 61.4192 51.3026 64.9433 51.5896C65.7072 51.6499 66.417 52.0069 66.9209 52.5841V52.5858C67.3851 53.1156 67.6406 53.7963 67.6397 54.5007V54.5007Z" fill="white"/>
<path d="M64.7213 64.0257H54.5197C53.6182 64.0247 52.7538 63.666 52.1163 63.0285C51.4788 62.391 51.1202 61.5267 51.1191 60.6251V54.5754C51.1191 52.817 52.4449 51.3613 54.2028 51.1894C57.6977 50.8478 61.4268 50.8201 64.9828 51.1099C66.7423 51.2529 68.121 52.7423 68.121 54.5004V60.6251C68.12 61.5265 67.7615 62.3908 67.1242 63.0282C66.4868 63.6657 65.6227 64.0244 64.7213 64.0257V64.0257ZM60.031 51.8737C58.0939 51.8737 56.1614 51.965 54.2963 52.1473C53.6907 52.2025 53.1277 52.4823 52.7179 52.9317C52.3081 53.381 52.0812 53.9673 52.0818 54.5754V60.6251C52.0825 61.2715 52.3396 61.8912 52.7966 62.3483C53.2537 62.8054 53.8734 63.0625 54.5197 63.0633H64.7213C65.3676 63.0625 65.9873 62.8054 66.4444 62.3483C66.9014 61.8912 67.1585 61.2715 67.1592 60.6251V54.5004C67.1592 53.2188 66.1904 52.1736 64.9055 52.0691C63.3031 51.9401 61.6653 51.8737 60.0318 51.8737H60.031Z" fill="#371A45"/>
<path d="M60.7416 64.0255C60.614 64.0255 60.4915 63.9748 60.4013 63.8845C60.311 63.7942 60.2603 63.6718 60.2603 63.5442V59.9042C60.2605 59.7591 60.2211 59.6168 60.1463 59.4926C60.0715 59.3684 59.9641 59.267 59.8358 59.1994L57.6291 58.0343C57.3458 57.8852 57.1086 57.6614 56.9434 57.3872C56.7781 57.113 56.6909 56.7988 56.6914 56.4786V51.6747C56.6914 51.547 56.7421 51.4246 56.8324 51.3343C56.9226 51.2441 57.0451 51.1934 57.1727 51.1934C57.3004 51.1934 57.4228 51.2441 57.5131 51.3343C57.6033 51.4246 57.654 51.547 57.654 51.6747V56.4781C57.6538 56.6231 57.6933 56.7654 57.7681 56.8896C57.8429 57.0138 57.9503 57.1152 58.0785 57.1828L60.2852 58.3479C60.5685 58.497 60.8057 58.7208 60.971 58.995C61.1363 59.2692 61.2234 59.5834 61.2229 59.9036V63.5436C61.223 63.6069 61.2106 63.6695 61.1864 63.728C61.1623 63.7864 61.1269 63.8396 61.0822 63.8843C61.0374 63.9291 60.9844 63.9646 60.9259 63.9888C60.8675 64.013 60.8049 64.0255 60.7416 64.0255V64.0255Z" fill="#371A45"/>
<path d="M64.1132 58.5319C65.1541 58.5319 65.9979 57.6218 65.9979 56.4991C65.9979 55.3764 65.1541 54.4663 64.1132 54.4663C63.0723 54.4663 62.2285 55.3764 62.2285 56.4991C62.2285 57.6218 63.0723 58.5319 64.1132 58.5319Z" fill="#FEDA24"/>
<path d="M64.113 59.0217C62.8034 59.0217 61.7383 57.8899 61.7383 56.4989C61.7383 55.1078 62.8023 53.9761 64.113 53.9761C65.4236 53.9761 66.4876 55.1078 66.4876 56.4989C66.4876 57.8899 65.4222 59.0217 64.113 59.0217ZM64.113 54.9561C63.3438 54.9561 62.7183 55.6482 62.7183 56.4989C62.7183 57.3495 63.3438 58.0417 64.113 58.0417C64.8821 58.0417 65.5076 57.3498 65.5076 56.4989C65.5076 55.648 64.8818 54.9561 64.113 54.9561Z" fill="#371A45"/>
<g opacity="0.25">
<path d="M67.6396 54.5009V60.625C67.6395 61.3992 67.3319 62.1417 66.7844 62.6892C66.237 63.2366 65.4945 63.5442 64.7203 63.5443H54.5188C54.0894 63.5447 53.6653 63.4501 53.2768 63.2674C52.8883 63.0846 52.545 62.8183 52.2715 62.4873C59.8035 61.7719 64.7861 58.5673 66.9208 52.5859C67.385 53.1158 67.6405 53.7964 67.6396 54.5009Z" fill="#371A45"/>
</g>
<path d="M45.3729 54.6726C45.4552 53.9844 45.563 53.3286 45.6862 52.6634C45.8094 51.9981 45.9531 51.3446 46.1129 50.6927C46.2728 50.0409 46.4562 49.3955 46.6578 48.7576C46.8594 48.1198 47.0963 47.494 47.3508 46.8794C47.1848 47.5234 47.0392 48.1713 46.9308 48.8246C46.8225 49.4778 46.7295 50.1316 46.6662 50.7888C46.6029 51.4459 46.5523 52.1028 46.5231 52.7602C46.494 53.4177 46.4811 54.081 46.4951 54.7202V54.7286C46.4971 54.8028 46.4844 54.8765 46.4577 54.9457C46.4311 55.0149 46.391 55.0782 46.3399 55.1319C46.2887 55.1855 46.2275 55.2286 46.1596 55.2585C46.0918 55.2885 46.0187 55.3047 45.9446 55.3063C45.8704 55.3079 45.7967 55.2949 45.7276 55.268C45.6586 55.241 45.5955 55.2007 45.542 55.1493C45.4886 55.0979 45.4458 55.0365 45.4162 54.9685C45.3865 54.9006 45.3706 54.8274 45.3693 54.7533C45.3687 54.7263 45.3699 54.6994 45.3729 54.6726V54.6726Z" fill="#371A45"/>
<path d="M72.3103 55.608C72.3067 54.9099 72.2683 54.1867 72.2123 53.476C72.1563 52.7654 72.0743 52.0503 71.9685 51.341C71.8565 50.6329 71.7204 49.9279 71.5465 49.2304C71.3634 48.5357 71.143 47.8492 70.8574 47.1836C71.2147 47.813 71.5135 48.4778 71.7758 49.1579C72.0278 49.8405 72.2471 50.5374 72.4394 51.2419C72.6261 51.9475 72.7888 52.6596 72.9275 53.3783C73.0655 54.0993 73.1845 54.8133 73.2716 55.5576C73.2864 55.6846 73.2502 55.8123 73.1709 55.9126C73.0916 56.0129 72.9757 56.0776 72.8486 56.0925C72.7216 56.1073 72.5939 56.0711 72.4936 55.9918C72.3933 55.9125 72.3286 55.7966 72.3137 55.6696C72.3116 55.6509 72.3105 55.6332 72.3103 55.6166V55.608Z" fill="#371A45"/>
<path d="M70.0084 63.9054C70.0084 63.9054 65.3167 60.3774 62.2292 64.5068C62.2292 64.5068 60.9325 65.9572 60.986 69.2287C61.0395 72.5003 61.026 73.0883 61.026 73.0883" fill="white"/>
<path d="M72.3413 69.7901C72.2525 69.7905 72.1649 69.7697 72.0857 69.7295C72.0066 69.6893 71.9381 69.6308 71.886 69.5589C71.8338 69.487 71.7995 69.4038 71.7859 69.3161C71.7723 69.2283 71.7797 69.1386 71.8076 69.0543C72.7369 66.2081 72.455 59.3467 72.4516 59.2778C72.4452 59.1291 72.4982 58.9839 72.5989 58.8742C72.6995 58.7645 72.8396 58.6993 72.9884 58.6929C73.1371 58.6865 73.2823 58.7395 73.392 58.8401C73.5017 58.9408 73.5669 59.0809 73.5733 59.2297C73.5859 59.5195 73.867 66.3638 72.8733 69.4029C72.8368 69.5153 72.7657 69.6133 72.6702 69.6829C72.5746 69.7525 72.4595 69.79 72.3413 69.7901V69.7901Z" fill="#371A45"/>
<path d="M50.3164 62.903C50.3164 62.903 54.928 60.8979 56.7326 65.6696C57.481 67.5647 57.5726 70.2104 57.4945 73.0482" fill="white"/>
<path d="M70.0049 63.9054C69.361 63.5767 68.6815 63.323 67.9796 63.1494C67.2934 62.9783 66.595 62.9072 65.9356 62.9753C65.6119 63.0028 65.2932 63.0724 64.9876 63.1825C64.9117 63.206 64.8383 63.2362 64.7652 63.2665C64.6922 63.2967 64.6182 63.3225 64.548 63.358C64.4777 63.3936 64.4054 63.4241 64.3335 63.4557C64.2646 63.4935 64.1952 63.5308 64.1246 63.5652C63.8496 63.7184 63.575 63.8867 63.3375 64.1115C63.092 64.3246 62.8817 64.583 62.6748 64.8437L62.6437 64.8815L62.623 64.9078C62.6137 64.9187 62.6022 64.9358 62.5916 64.9498C62.57 64.9778 62.5485 65.01 62.5269 65.0425C62.483 65.1049 62.4429 65.1763 62.4009 65.2447C62.3189 65.3878 62.2441 65.535 62.1769 65.6857C62.0385 65.9944 61.9261 66.3142 61.8409 66.6416C61.66 67.301 61.5696 67.9934 61.5486 68.692L61.5441 69.2173L61.5497 69.772L61.5615 70.8819L61.5842 73.1015C61.5849 73.1751 61.5712 73.2483 61.5437 73.3166C61.5162 73.385 61.4755 73.4473 61.424 73.5C61.3724 73.5526 61.311 73.5946 61.2432 73.6235C61.1754 73.6524 61.1026 73.6677 61.0289 73.6685C60.9552 73.6692 60.8821 73.6555 60.8137 73.628C60.7454 73.6005 60.6831 73.5598 60.6304 73.5083C60.5778 73.4567 60.5358 73.3953 60.5069 73.3275C60.478 73.2597 60.4627 73.1869 60.4619 73.1132V73.076L60.439 70.8813L60.4275 69.784L60.4219 69.2352L60.4266 68.6567C60.4502 67.8851 60.5496 67.1078 60.7576 66.347C60.8588 65.9624 60.9916 65.5869 61.1546 65.2242C61.2358 65.0408 61.3291 64.8602 61.4304 64.6819C61.4842 64.5925 61.5352 64.5043 61.5965 64.4159C61.6259 64.3716 61.6556 64.3277 61.6897 64.2826C61.7068 64.2596 61.7211 64.2389 61.7412 64.2143C61.7614 64.1896 61.7746 64.1709 61.8076 64.1333L61.7765 64.1714C61.9028 64.018 62.0198 63.8587 62.1548 63.7114C62.2898 63.5641 62.4242 63.4157 62.577 63.2819C62.872 62.9977 63.1985 62.7484 63.5503 62.5387C64.2688 62.1154 65.1326 61.9824 65.9261 62.0347C66.7272 62.0879 67.4807 62.3178 68.1628 62.6465C68.8423 62.9786 69.4701 63.3958 70.0049 63.9054Z" fill="#371A45"/>
<path d="M70.3986 71.0721L70.635 68.4102L71.5128 70.9344C71.5375 71.0056 71.548 71.081 71.5437 71.1562C71.5393 71.2315 71.5201 71.3051 71.4873 71.373C71.4545 71.4409 71.4086 71.5016 71.3523 71.5517C71.296 71.6018 71.2303 71.6404 71.1591 71.6652C71.0879 71.6899 71.0125 71.7004 70.9373 71.696C70.862 71.6917 70.7883 71.6725 70.7205 71.6397C70.6526 71.6069 70.5919 71.561 70.5418 71.5047C70.4916 71.4484 70.4531 71.3827 70.4283 71.3115C70.4017 71.2347 70.3916 71.1531 70.3986 71.0721V71.0721Z" fill="#371A45"/>
<path d="M66.2536 72.8443C63.2893 72.8443 60.8944 71.5776 60.7443 71.4967C60.6795 71.4618 60.6221 71.4144 60.5755 71.3573C60.5289 71.3002 60.4941 71.2345 60.4729 71.1639C60.4517 71.0933 60.4446 71.0192 60.4521 70.9459C60.4595 70.8726 60.4813 70.8015 60.5163 70.7366C60.5512 70.6717 60.5986 70.6144 60.6557 70.5678C60.7128 70.5212 60.7785 70.4864 60.8491 70.4652C60.9197 70.444 60.9937 70.4369 61.067 70.4444C61.1403 70.4518 61.2115 70.4736 61.2763 70.5086V70.5086C61.3265 70.5366 66.3415 73.1736 70.4934 70.5293C70.5556 70.4897 70.6249 70.4627 70.6975 70.4499C70.7701 70.4371 70.8445 70.4388 70.9165 70.4547C70.9885 70.4707 71.0566 70.5007 71.117 70.543C71.1774 70.5853 71.2288 70.639 71.2684 70.7012C71.308 70.7634 71.335 70.8328 71.3478 70.9054C71.3606 70.978 71.3589 71.0524 71.343 71.1243C71.327 71.1963 71.297 71.2644 71.2547 71.3248C71.2124 71.3852 71.1587 71.4366 71.0965 71.4762C69.4859 72.5027 67.7931 72.8443 66.2536 72.8443Z" fill="#371A45"/>
<path d="M60.8858 77.0604C61.1252 77.0324 61.3296 77.024 61.548 77.0151C61.7664 77.0061 61.9767 77.0067 62.1895 77.0103C62.6155 77.0165 63.0381 77.043 63.4573 77.0901C63.8749 77.1335 64.2899 77.199 64.7005 77.2861C65.1073 77.3712 65.5092 77.478 65.9045 77.6061C65.0901 77.5371 64.2707 77.5519 63.4593 77.6504C63.0578 77.6968 62.6602 77.7624 62.269 77.8464C62.073 77.8881 61.8795 77.9348 61.688 77.9864C61.5007 78.0373 61.2997 78.0944 61.1381 78.1544C60.997 78.2056 60.8413 78.1987 60.7053 78.1352C60.5693 78.0716 60.4641 77.9567 60.4129 77.8156C60.3617 77.6745 60.3686 77.5188 60.4321 77.3828C60.4956 77.2468 60.6106 77.1416 60.7517 77.0904C60.7922 77.0757 60.8342 77.0657 60.8769 77.0604H60.8858Z" fill="#371A45"/>
<path d="M56.9331 73.0329C56.9664 71.7623 56.9714 70.495 56.8771 69.2484C56.7785 68.0049 56.5954 66.7743 56.1272 65.6781L56.0416 65.4715L55.9444 65.2755C55.8816 65.1446 55.8119 65.0172 55.7358 64.8936C55.668 64.7645 55.5765 64.6559 55.4978 64.5366C55.4552 64.4806 55.409 64.4268 55.3631 64.3731C55.3196 64.3184 55.2729 64.2664 55.2231 64.2174C54.8311 63.8159 54.3686 63.5356 53.8735 63.304C53.3785 63.0641 52.8095 62.9283 52.2075 62.8672C51.5776 62.8122 50.9437 62.8244 50.3164 62.9036C50.5813 62.7006 50.8809 62.5497 51.1897 62.4164C51.3457 62.3545 51.5044 62.2952 51.6674 62.2456C51.8304 62.1961 51.9964 62.1566 52.1655 62.1235C52.8398 61.9922 53.5736 61.9973 54.2792 62.2126C54.6331 62.3216 54.9673 62.4863 55.2693 62.7006C55.3466 62.7513 55.4158 62.8126 55.4886 62.8686C55.5611 62.9252 55.6302 62.9859 55.6955 63.0506C55.761 63.1145 55.8285 63.1766 55.8915 63.2418L56.0726 63.4451C56.5486 63.9914 56.9017 64.6122 57.1646 65.245C57.4262 65.8721 57.6204 66.5253 57.744 67.1935C57.8664 67.8448 57.9514 68.5026 57.9985 69.1636C58.0962 70.4737 58.0895 71.7732 58.0562 73.0637C58.0543 73.1374 58.038 73.21 58.0081 73.2774C57.9782 73.3448 57.9353 73.4056 57.8819 73.4565C57.8285 73.5073 57.7656 73.5471 57.6968 73.5736C57.628 73.6001 57.5546 73.6128 57.4809 73.611C57.4072 73.6091 57.3346 73.5928 57.2672 73.5629C57.1998 73.533 57.139 73.4901 57.0881 73.4367C57.0373 73.3832 56.9975 73.3203 56.971 73.2515C56.9445 73.1827 56.9318 73.1094 56.9336 73.0357V73.0357L56.9331 73.0329Z" fill="#371A45"/>
<path d="M57.2241 78.1109C57.1908 78.0866 57.1286 78.049 57.0771 78.0188C57.0256 77.9886 56.967 77.9555 56.9091 77.925C56.7971 77.8634 56.6792 77.8057 56.5608 77.7506C56.3224 77.6399 56.078 77.5426 55.8288 77.4591C55.3267 77.2879 54.8046 77.182 54.2754 77.1441C53.7384 77.105 53.1986 77.1522 52.6766 77.2841C52.1485 77.4154 51.6406 77.65 51.1719 77.953C51.5838 77.5767 52.0567 77.2494 52.5839 77.0192C53.1169 76.7847 53.6842 76.6372 54.2639 76.5824C54.8474 76.5211 55.4399 76.5499 56.0243 76.6384C56.3169 76.6842 56.6066 76.7464 56.8923 76.8246C57.0359 76.8641 57.179 76.9069 57.3218 76.9556C57.3932 76.9797 57.4646 77.0052 57.5366 77.0326C57.6085 77.0601 57.6743 77.085 57.7639 77.1264L57.7942 77.1404C57.9303 77.2036 58.0357 77.3182 58.0874 77.4591C58.139 77.5999 58.1325 77.7556 58.0694 77.8917C58.0063 78.0278 57.8917 78.1333 57.7508 78.1849C57.6099 78.2365 57.4543 78.23 57.3182 78.1669C57.2851 78.1513 57.2536 78.1325 57.2241 78.1109V78.1109Z" fill="#371A45"/>
<path d="M52.8734 73.5305C49.9188 73.5305 47.2974 72.4337 47.128 72.3612C46.9911 72.3027 46.883 72.1922 46.8275 72.054C46.7721 71.9158 46.7737 71.7613 46.8322 71.6243C46.8907 71.4874 47.0012 71.3793 47.1394 71.3238C47.2775 71.2684 47.4321 71.27 47.569 71.3285C47.6474 71.3618 53.535 73.8113 57.1646 71.1838C57.2852 71.0965 57.4356 71.0607 57.5826 71.0842C57.7296 71.1078 57.8612 71.1887 57.9485 71.3093C58.0358 71.4299 58.0716 71.5803 58.0481 71.7273C58.0245 71.8743 57.9435 72.0059 57.8229 72.0932C56.3227 73.1793 54.5447 73.5305 52.8734 73.5305Z" fill="#371A45"/>
<path d="M73.0552 61.5797C72.9753 61.5797 72.8966 61.5597 72.8264 61.5217C72.7561 61.4836 72.6964 61.4287 72.6527 61.3618C72.609 61.295 72.5826 61.2183 72.5759 61.1386C72.5692 61.059 72.5825 60.979 72.6145 60.9058C73.6404 58.5577 77.7664 59.0539 77.9426 59.076C78.0063 59.0827 78.068 59.1021 78.1241 59.133C78.1802 59.1638 78.2296 59.2056 78.2694 59.2558C78.3091 59.306 78.3385 59.3637 78.3557 59.4254C78.3729 59.4871 78.3776 59.5516 78.3695 59.6151C78.3615 59.6787 78.3408 59.74 78.3088 59.7954C78.2767 59.8509 78.234 59.8994 78.1829 59.9381C78.1319 59.9768 78.0737 60.0049 78.0116 60.0209C77.9496 60.0368 77.885 60.0401 77.8216 60.0308V60.0308C76.8262 59.9056 74.1091 59.8885 73.4962 61.2908C73.4588 61.3766 73.3971 61.4497 73.3188 61.501C73.2404 61.5524 73.1488 61.5797 73.0552 61.5797V61.5797Z" fill="#371A45"/>
<g opacity="0.25">
<path d="M46.6434 50.3914L46.0692 54.695L45.9104 54.8968L45.9359 54.695C45.9359 54.695 41.4704 59.5614 36.0715 56.3262C34.0504 54.905 32.2139 52.4684 30.5104 49.2957C28.0145 49.2957 26.5725 47.0277 26.7746 44.7855V44.7838C28.6593 45.714 30.3354 45.9318 30.9066 42.4038C30.9066 42.4038 32.562 43.3326 31.7774 45.899C30.9928 48.4655 36.4979 54.1196 39.52 55.0419C42.542 55.9642 46.6434 50.3914 46.6434 50.3914Z" fill="#371A45"/>
</g>
<g opacity="0.25">
<path d="M31.2524 41.3281C32.1075 42.4176 32.917 42.5909 33.6551 41.3281C33.6551 41.3281 33.4291 43.3419 35.6431 43.6714C35.6431 43.6714 33.1791 46.6551 31.4151 44.0718L31.1191 42.4042" fill="#371A45"/>
</g>
<g opacity="0.25">
<path d="M79.9296 70.4818C79.3923 72.8973 76.2549 73.2647 74.6172 70.5781C74.7852 70.4899 74.8972 70.4417 74.8972 70.4417C78.1051 71.8851 78.5993 68.5683 76.02 65.9505C76.02 65.9505 76.02 58.0509 74.256 51.9556C73.0931 47.9376 71.6158 46.2341 70.7448 45.5413C67.8529 49.1615 60.1857 49.3843 52.2715 46.4348L70.0985 41.7109L71.4924 42.9379L71.5764 42.8178C72.6404 43.8233 73.9967 45.5702 75.0985 48.5071C77.1307 53.9206 78.0665 59.8552 78.5472 64.9078C78.547 64.9078 80.5117 67.8753 79.9296 70.4818Z" fill="#371A45"/>
</g>
<path d="M78.423 31.3122C78.2988 31.75 78.08 32.1552 77.782 32.4992C77.484 32.8431 77.1141 33.1174 76.6985 33.3027L75.2165 33.9619L74.6632 29.9299L73.4844 21.3501L75.8924 22.266C76.5276 22.5063 77.0659 22.9491 77.4243 23.526C77.7893 24.1289 78.0791 24.7742 78.2872 25.4476C78.8559 27.2441 78.9651 29.376 78.423 31.3122Z" fill="white"/>
<path d="M75.217 34.5238C75.0884 34.5238 74.9637 34.4796 74.8638 34.3986C74.7638 34.3176 74.6947 34.2048 74.668 34.079C74.6412 33.9532 74.6585 33.822 74.7168 33.7074C74.7752 33.5927 74.8711 33.5016 74.9886 33.4492L76.4698 32.7901C76.8106 32.6396 77.1139 32.4155 77.358 32.134C77.602 31.8524 77.7807 31.5204 77.8812 31.1616C78.5532 28.7665 78.1775 25.817 76.9469 23.822C76.6531 23.3507 76.2128 22.9888 75.6936 22.7918L73.2856 21.8757C73.1464 21.8227 73.034 21.7167 72.973 21.5808C72.9121 21.445 72.9076 21.2905 72.9605 21.1513C73.0135 21.0122 73.1195 20.8997 73.2554 20.8388C73.3912 20.7778 73.5457 20.7733 73.6849 20.8262L76.0929 21.7424C76.8429 22.0279 77.4786 22.5514 77.9025 23.2328C79.3092 25.5132 79.7253 28.7446 78.9626 31.4648C78.8177 31.9828 78.5599 32.4623 78.2079 32.869C77.8558 33.2756 77.4181 33.5993 76.9262 33.8168L75.4452 34.476C75.3734 34.5078 75.2956 34.5241 75.217 34.5238V34.5238Z" fill="#371A45"/>
<path d="M43.5346 39.159L43.2958 39.1461L41.9162 39.0708C41.4617 39.0473 41.018 38.9236 40.6167 38.7087C40.2155 38.4938 39.8667 38.193 39.5953 37.8276C39.0287 37.0569 38.5771 36.2081 38.2544 35.3076C37.6272 33.5831 37.4555 31.7354 37.7476 30.1987C37.8754 29.5317 38.2199 28.9256 38.7276 28.4745L40.6506 26.7598L43.5346 39.159Z" fill="white"/>
<path d="M58.0168 46.8793C67.6479 46.8793 75.4555 39.0717 75.4555 29.4406C75.4555 19.8095 67.6479 12.002 58.0168 12.002C48.3857 12.002 40.5781 19.8095 40.5781 29.4406C40.5781 39.0717 48.3857 46.8793 58.0168 46.8793Z" fill="white"/>
<g opacity="0.25">
<path d="M75.4593 29.4401C75.4593 39.0721 67.6512 46.8785 58.0206 46.8785C55.5602 46.8824 53.1271 46.363 50.8828 45.3548C51.3588 45.3965 51.8404 45.4158 52.3265 45.4158C61.9568 45.4158 69.7652 37.6075 69.7652 27.9771C69.7652 20.8892 65.5372 14.7891 59.4643 12.0625C68.4195 12.7958 75.4593 20.2956 75.4593 29.4401Z" fill="#371A45"/>
</g>
<path d="M75.4575 28.7376C74.5388 46.26 49.2775 49.2686 41.6486 35.4638C41.1726 34.278 40.8503 32.7817 40.6523 31.028C42.3799 16.1525 67.3221 12.457 75.2181 26.5528C75.3782 27.3376 75.4561 28.064 75.4575 28.7376Z" fill="#562C6A"/>
<g opacity="0.7">
<path d="M75.4573 28.7377C74.5479 46.0784 49.7967 49.2057 41.8906 35.885C45.0609 38.6489 49.1261 40.1688 53.332 40.1628C62.9623 40.1628 70.7704 32.3562 70.7704 22.7242C70.7704 22.2926 70.7543 21.8648 70.7222 21.4409C72.5659 22.8075 74.0984 24.5499 75.2185 26.5529C75.3781 27.3372 75.4556 28.064 75.4573 28.7377Z" fill="#4B235E"/>
</g>
<path d="M58.0154 47.4408C48.0903 47.4408 40.0156 39.3662 40.0156 29.441C40.0156 19.5158 48.0908 11.4409 58.0154 11.4409C67.94 11.4409 76.0161 19.5161 76.0161 29.441C76.0161 39.3659 67.9411 47.4408 58.0154 47.4408ZM58.0154 12.5637C48.7093 12.5637 41.1381 20.1349 41.1381 29.441C41.1381 38.7471 48.7093 46.3183 58.0154 46.3183C67.3215 46.3183 74.8927 38.7471 74.8927 29.441C74.8927 20.1349 67.3223 12.5637 58.0154 12.5637V12.5637Z" fill="#371A45"/>
<path d="M41.0334 26.0294C40.9405 26.0292 40.849 26.006 40.7672 25.9618C40.6854 25.9176 40.6159 25.8538 40.5649 25.7761C40.5138 25.6984 40.4829 25.6092 40.4748 25.5166C40.4667 25.424 40.4817 25.3308 40.5185 25.2454C42.7865 20.0058 48.3118 16.1146 54.9385 15.0904C62.3625 13.9424 69.6318 16.5251 74.3843 21.9971C74.4819 22.1095 74.5308 22.2561 74.5203 22.4047C74.5099 22.5532 74.4408 22.6915 74.3284 22.7891C74.216 22.8867 74.0694 22.9357 73.9208 22.9252C73.7723 22.9147 73.634 22.8457 73.5364 22.7332C69.0391 17.5532 62.1505 15.1116 55.1099 16.2C48.8609 17.164 43.6646 20.8021 41.5489 25.6909C41.5056 25.7916 41.4336 25.8773 41.342 25.9375C41.2504 25.9977 41.1431 26.0296 41.0334 26.0294V26.0294Z" fill="#371A45"/>
<path d="M57.6049 44.6212C55.1524 44.6212 52.7136 44.2087 50.4596 43.3939C46.3786 41.9186 43.1824 39.2583 41.2165 35.7009C41.1555 35.5873 41.1417 35.4543 41.1782 35.3306C41.2146 35.2069 41.2983 35.1026 41.4112 35.0402C41.524 34.9779 41.6569 34.9625 41.781 34.9974C41.9051 35.0323 42.0104 35.1148 42.0742 35.2269C46.2954 42.8658 55.4862 44.6724 62.2389 43.1181C68.0965 41.7699 74.5158 37.2773 74.9646 28.7121C74.9714 28.5822 75.0296 28.4602 75.1263 28.3731C75.223 28.2861 75.3503 28.2409 75.4803 28.2477C75.6102 28.2545 75.7322 28.3127 75.8192 28.4094C75.9063 28.5061 75.9514 28.6334 75.9446 28.7634C75.736 32.741 74.2551 36.2833 71.6606 39.0074C69.31 41.477 66.1281 43.2287 62.4587 44.0732C60.8666 44.4382 59.2383 44.622 57.6049 44.6212V44.6212Z" fill="#371A45"/>
<g opacity="0.5">
<path d="M56.7329 20.8948C49.969 24.0647 46.2553 29.1445 46.0949 36.4483C46.0896 36.6961 45.7541 36.7686 45.6435 36.5468C42.4535 30.1455 43.4489 23.1668 56.5848 20.4468C56.862 20.3886 56.9894 20.7761 56.7329 20.8948Z" fill="white"/>
</g>
<g opacity="0.5">
<path d="M69.1666 29.9939C70.0525 29.9939 70.7707 29.2159 70.7707 28.2562C70.7707 27.2965 70.0525 26.5186 69.1666 26.5186C68.2807 26.5186 67.5625 27.2965 67.5625 28.2562C67.5625 29.2159 68.2807 29.9939 69.1666 29.9939Z" fill="white"/>
</g>
<g opacity="0.5">
<path d="M67.9401 32.5763C67.5445 33.9422 66.9218 35.2789 66.1644 36.5977C65.7841 37.2599 66.0636 38.1343 66.7765 38.4071C67.1906 38.5655 67.6534 38.5527 68.1597 38.3883C69.8433 37.4959 71.061 36.0447 70.8236 33.0064C70.8073 32.8089 70.7458 32.6178 70.6439 32.4478C70.5419 32.2779 70.4022 32.1337 70.2356 32.0264C70.0044 31.8749 69.7504 31.7615 69.4832 31.6904C68.816 31.516 68.1319 31.9144 67.9401 32.5763Z" fill="white"/>
</g>
<path d="M43.536 39.7193H43.5055L41.8865 39.6322C41.3495 39.6048 40.8253 39.4589 40.3513 39.2051C39.8774 38.9512 39.4654 38.5957 39.145 38.1639C37.4611 35.8959 36.6959 32.7283 37.1959 30.0957C37.3487 29.3078 37.7558 28.5917 38.3546 28.0573L40.2771 26.3418C40.3882 26.2426 40.5341 26.1917 40.6827 26.2001C40.8314 26.2086 40.9706 26.2757 41.0697 26.3868C41.1689 26.4979 41.2198 26.6439 41.2114 26.7925C41.2029 26.9412 41.1358 27.0804 41.0247 27.1795L39.1022 28.8951C38.6874 29.2646 38.4053 29.7599 38.2991 30.3052C37.8618 32.6082 38.564 35.4972 40.0466 37.4947C40.2687 37.7939 40.5542 38.0402 40.8826 38.2161C41.2111 38.3919 41.5743 38.493 41.9464 38.512L43.5654 38.5988C43.7142 38.6027 43.8553 38.6656 43.9577 38.7736C44.0601 38.8815 44.1155 39.0258 44.1115 39.1746C44.1076 39.3234 44.0447 39.4645 43.9367 39.5669C43.8287 39.6693 43.6845 39.7247 43.5357 39.7207L43.536 39.7193Z" fill="#371A45"/>
<g opacity="0.25">
<path d="M78.4253 31.3119C78.3011 31.7497 78.0823 32.1549 77.7843 32.4989C77.4863 32.8428 77.1164 33.1172 76.7008 33.3025L75.2188 33.9616L75.3445 29.5261C78.2413 28.0345 78.1075 25.4661 78.1075 25.4661L78.2906 25.4468C78.8582 27.2438 78.9674 29.3757 78.4253 31.3119Z" fill="#371A45"/>
</g>
<g opacity="0.25">
<path d="M43.2934 39.1459L41.9138 39.0706C41.4593 39.0471 41.0155 38.9234 40.6143 38.7085C40.2131 38.4936 39.8643 38.1927 39.5929 37.8274C39.0263 37.0567 38.5746 36.2078 38.252 35.3074C38.252 35.3074 40.0003 35.6971 41.1679 33.9614L43.2934 39.1459Z" fill="#371A45"/>
</g>
<g opacity="0.25">
<path d="M45.9355 59.4188L51.4627 60.9176L51.3625 59.2334" fill="#371A45"/>
</g>
<g opacity="0.25">
<path d="M68.6342 63.1231C68.5603 63.0903 69.3687 61.9401 69.3286 61.0981L72.7925 60.9377C72.7925 60.9377 73.2125 59.8118 73.035 59.7731C72.8575 59.7345 67.8049 59.499 67.8049 59.499L67.6444 61.9L66.9609 62.5009" fill="#371A45"/>
</g>
<g opacity="0.25">
<path d="M73.0332 63.562C73.0203 63.7978 72.8694 66.3208 72.8372 66.6512C72.8148 66.8598 72.6832 68.4976 72.5804 69.8432C72.4491 69.7116 72.3609 69.5145 72.3464 69.2289L70.9606 71.003C70.9606 71.003 71.8155 79.9451 70.2114 81.5092C68.6072 83.0733 61.229 82.8725 59.7856 81.6696C59.3096 81.2734 59.1824 80.7215 59.2625 80.152C59.4213 79.6788 59.6251 79.3837 59.6251 79.3837C61.3494 82.0717 67.8851 80.1456 67.8456 76.4566C67.8062 72.7676 66.001 65.2286 69.3694 66.231C72.5967 67.1919 73.0041 63.8401 73.0332 63.562Z" fill="#371A45"/>
</g>
<g opacity="0.25">
<path d="M61.53 65.7738L57.913 65.2894C59.6663 67.4515 59.2349 73.0479 59.2349 73.0479L59.0585 73.0655L57.8545 73.1873L57.5159 73.3273V77.2182C57.5159 77.2182 57.8735 77.8213 58.2619 78.5029C58.4542 78.8389 58.6539 79.1959 58.8219 79.5086C59.1475 80.3587 59.1122 81.3356 57.9076 82.0703C56.1848 83.1226 52.4756 83.0839 50.0158 81.8906C48.8435 80.8176 47.9629 79.9586 47.9629 79.9586C53.6841 83.2741 58.7989 79.9586 54.754 76.8612C54.754 76.8612 54.6465 77.6071 54.3323 70.4422C54.0182 63.2773 50.8805 62.7125 50.8805 62.7125C50.8805 62.7125 53.5783 62.1287 54.9685 63.2241C55.3983 63.5626 55.7063 63.7889 55.9261 63.9395L55.7433 63.7054L62.2392 63.5626L61.53 65.7738Z" fill="#371A45"/>
</g>
<g opacity="0.25">
<path d="M27.6588 37.479C27.7188 37.5594 28.5456 39.9648 27.3203 41.0879C27.3203 41.0879 27.8523 41.6317 27.8352 41.7106C27.8182 41.7896 29.8759 41.7997 29.9299 41.8159C29.984 41.8322 30.6462 41.8159 30.6462 41.8159C30.6462 41.8159 30.9701 40.246 31.1188 40.0855C31.2675 39.9251 31.9456 39.3729 31.9456 39.3729L32.1901 37.479C32.1901 37.479 30.1077 39.868 29.7964 38.1406C29.7964 38.1406 29.8042 39.6042 29.704 39.5443C29.6037 39.4844 28.64 38.2409 28.64 38.2409" fill="#371A45"/>
</g>
</svg>
