<svg width="55" height="84" viewBox="0 0 55 84" fill="none" xmlns="http://www.w3.org/2000/svg">
<g filter="url(#filter0_d_1_28026)">
<g opacity="0.88">
<g opacity="0.03">
<path d="M17.1357 7.6078C17.1375 7.61896 17.1368 7.63037 17.1338 7.64125C17.1308 7.65212 17.1255 7.66221 17.1182 7.67081C17.111 7.6794 17.102 7.68631 17.0918 7.69104C17.0817 7.69577 17.0707 7.69822 17.0595 7.69822C17.0483 7.69822 17.0373 7.69577 17.0272 7.69104C17.017 7.68631 17.008 7.6794 17.0008 7.67081C16.9935 7.66221 16.9882 7.65212 16.9852 7.64125C16.9822 7.63037 16.9815 7.61896 16.9833 7.6078C16.9862 7.58945 16.9954 7.57274 17.0094 7.56068C17.0234 7.54862 17.0411 7.54199 17.0595 7.54199C17.0779 7.54199 17.0956 7.54862 17.1096 7.56068C17.1236 7.57274 17.1328 7.58945 17.1357 7.6078Z" fill="white"/>
</g>
<g opacity="0.04">
<path d="M27.8615 8.94522C27.8619 8.99105 27.8488 9.03597 27.8238 9.07427C27.7988 9.11257 27.763 9.14252 27.7211 9.16033C27.6792 9.17814 27.6329 9.183 27.5883 9.17429C27.5436 9.16559 27.5025 9.14371 27.4702 9.11144C27.4379 9.07916 27.4158 9.03794 27.4068 8.99302C27.3978 8.94809 27.4022 8.90147 27.4195 8.85909C27.4368 8.8167 27.4663 8.78045 27.5041 8.75495C27.5419 8.72944 27.5864 8.71582 27.6319 8.71582C27.6924 8.71582 27.7506 8.73992 27.7936 8.78289C27.8366 8.82586 27.861 8.8842 27.8615 8.94522Z" fill="white"/>
</g>
<g opacity="0.03">
<path d="M25.993 12.0521C25.993 12.0771 25.9856 12.1016 25.9718 12.1223C25.958 12.1431 25.9384 12.1593 25.9155 12.1689C25.8926 12.1785 25.8674 12.181 25.843 12.1761C25.8187 12.1712 25.7964 12.1592 25.7788 12.1415C25.7613 12.1238 25.7493 12.1013 25.7445 12.0768C25.7396 12.0523 25.7421 12.0269 25.7516 12.0038C25.7611 11.9807 25.7772 11.961 25.7978 11.9471C25.8184 11.9332 25.8427 11.9258 25.8675 11.9258C25.884 11.9258 25.9003 11.9291 25.9155 11.9354C25.9307 11.9418 25.9446 11.9511 25.9562 11.9628C25.9679 11.9745 25.9771 11.9885 25.9834 12.0038C25.9897 12.0191 25.993 12.0356 25.993 12.0521Z" fill="white"/>
</g>
<g opacity="0.04">
<path d="M28.0957 8.04137C28.0957 8.08867 28.0818 8.1349 28.0557 8.17422C28.0296 8.21354 27.9926 8.24419 27.9492 8.26229C27.9058 8.28039 27.8581 8.28512 27.812 8.2759C27.766 8.26667 27.7237 8.24389 27.6905 8.21045C27.6573 8.17701 27.6347 8.13441 27.6255 8.08802C27.6164 8.04164 27.6211 7.99356 27.639 7.94986C27.657 7.90617 27.6874 7.86883 27.7265 7.84255C27.7655 7.81628 27.8114 7.80225 27.8583 7.80225C27.8896 7.802 27.9206 7.808 27.9495 7.81993C27.9784 7.83185 28.0047 7.84946 28.0268 7.87171C28.0489 7.89397 28.0663 7.92043 28.0782 7.94956C28.09 7.97869 28.096 8.0099 28.0957 8.04137Z" fill="white"/>
</g>
<g opacity="0.1">
<path d="M32.2878 26.0357C32.2878 26.0427 32.2857 26.0495 32.2819 26.0553C32.2781 26.0611 32.2727 26.0656 32.2664 26.0682C32.2601 26.0709 32.2532 26.0716 32.2465 26.0702C32.2397 26.0689 32.2336 26.0655 32.2288 26.0606C32.2239 26.0557 32.2206 26.0494 32.2193 26.0426C32.218 26.0357 32.2186 26.0287 32.2213 26.0222C32.2239 26.0158 32.2283 26.0103 32.234 26.0064C32.2397 26.0026 32.2464 26.0005 32.2532 26.0005C32.2624 26.0005 32.2712 26.0042 32.2776 26.0108C32.2841 26.0174 32.2878 26.0264 32.2878 26.0357Z" fill="white"/>
</g>
<g opacity="0.1">
<path d="M35.1262 25.6266C35.1453 25.6266 35.1608 25.6108 35.1608 25.5914C35.1608 25.5719 35.1453 25.5562 35.1262 25.5562C35.1071 25.5562 35.0917 25.5719 35.0917 25.5914C35.0917 25.6108 35.1071 25.6266 35.1262 25.6266Z" fill="white"/>
</g>
<g opacity="0.06">
<path d="M18.8197 26.523C18.842 26.523 18.8601 26.5047 18.8601 26.4822C18.8601 26.4597 18.842 26.4414 18.8197 26.4414C18.7975 26.4414 18.7794 26.4597 18.7794 26.4822C18.7794 26.5047 18.7975 26.523 18.8197 26.523Z" fill="white"/>
</g>
<g opacity="0.04">
<path d="M23.886 19.1925C23.9061 19.1925 23.9225 19.1759 23.9225 19.1553C23.9225 19.1348 23.9061 19.1182 23.886 19.1182C23.8658 19.1182 23.8495 19.1348 23.8495 19.1553C23.8495 19.1759 23.8658 19.1925 23.886 19.1925Z" fill="white"/>
</g>
<g opacity="0.04">
<path d="M29.0809 12.4965C29.0809 12.5302 29.0678 12.5625 29.0443 12.5865C29.0208 12.6105 28.9889 12.6243 28.9555 12.6248C28.9219 12.6243 28.8898 12.6106 28.866 12.5867C28.8422 12.5627 28.8286 12.5304 28.8281 12.4965C28.8286 12.4628 28.8423 12.4307 28.8661 12.407C28.8899 12.3834 28.922 12.3701 28.9555 12.3701C28.9888 12.3701 29.0207 12.3834 29.0442 12.4071C29.0677 12.4308 29.0809 12.463 29.0809 12.4965Z" fill="white"/>
</g>
<g opacity="0.04">
<path d="M31.5981 12.1649C31.662 12.1649 31.7139 12.1127 31.7139 12.0483C31.7139 11.9839 31.662 11.9316 31.5981 11.9316C31.5341 11.9316 31.4823 11.9839 31.4823 12.0483C31.4823 12.1127 31.5341 12.1649 31.5981 12.1649Z" fill="white"/>
</g>
<g opacity="0.05">
<path d="M35.8689 12.9287C35.8689 12.9461 35.8638 12.9631 35.8542 12.9775C35.8447 12.992 35.8311 13.0032 35.8153 13.0099C35.7994 13.0165 35.7819 13.0183 35.7651 13.0149C35.7482 13.0115 35.7328 13.0031 35.7206 12.9908C35.7085 12.9785 35.7002 12.9629 35.6969 12.9458C35.6935 12.9288 35.6952 12.9111 35.7018 12.8951C35.7084 12.879 35.7195 12.8653 35.7338 12.8556C35.7481 12.846 35.7649 12.8408 35.782 12.8408C35.8051 12.8408 35.8272 12.8501 35.8434 12.8666C35.8597 12.883 35.8689 12.9054 35.8689 12.9287Z" fill="white"/>
</g>
<g opacity="0.03">
<path d="M20.8645 12.05C20.8619 12.0654 20.8539 12.0794 20.8421 12.0895C20.8303 12.0996 20.8153 12.1051 20.7999 12.1051C20.7844 12.1051 20.7694 12.0996 20.7576 12.0895C20.7458 12.0794 20.7379 12.0654 20.7352 12.05C20.7336 12.0405 20.734 12.0307 20.7365 12.0213C20.739 12.012 20.7435 12.0033 20.7497 11.9958C20.7558 11.9884 20.7635 11.9825 20.7722 11.9784C20.7809 11.9743 20.7903 11.9722 20.7999 11.9722C20.8094 11.9722 20.8189 11.9743 20.8276 11.9784C20.8362 11.9825 20.8439 11.9884 20.8501 11.9958C20.8562 12.0033 20.8607 12.012 20.8632 12.0213C20.8657 12.0307 20.8662 12.0405 20.8645 12.05Z" fill="white"/>
</g>
<g opacity="0.03">
<path d="M9.8535 15.8287C9.853 15.8465 9.84566 15.8634 9.83304 15.8758C9.82043 15.8882 9.80354 15.8952 9.78595 15.8952C9.76855 15.8952 9.75186 15.8882 9.73955 15.8757C9.72725 15.8632 9.72034 15.8463 9.72034 15.8287C9.72033 15.8109 9.72718 15.7938 9.73943 15.781C9.75169 15.7682 9.76837 15.7608 9.78595 15.7603C9.80387 15.7603 9.82105 15.7675 9.83372 15.7803C9.84638 15.7931 9.8535 15.8105 9.8535 15.8287Z" fill="white"/>
</g>
<g opacity="0.42">
<path d="M34.8953 40.9576C34.9227 40.9576 34.945 40.9351 34.945 40.9073C34.945 40.8795 34.9227 40.8569 34.8953 40.8569C34.8678 40.8569 34.8456 40.8795 34.8456 40.9073C34.8456 40.9351 34.8678 40.9576 34.8953 40.9576Z" fill="white"/>
</g>
<g opacity="0.29">
<path d="M35.3872 36.4675C35.3872 36.4783 35.3829 36.4887 35.3754 36.4964C35.3678 36.504 35.3575 36.5083 35.3469 36.5083C35.3363 36.5078 35.3263 36.5034 35.3189 36.4958C35.3114 36.4883 35.307 36.4782 35.3065 36.4675C35.3065 36.4567 35.3108 36.4463 35.3183 36.4387C35.3259 36.4311 35.3362 36.4268 35.3469 36.4268C35.3575 36.4268 35.3678 36.4311 35.3754 36.4387C35.3829 36.4463 35.3872 36.4567 35.3872 36.4675Z" fill="white"/>
</g>
<g opacity="0.12">
<path d="M27.0026 29.8106C27.0021 29.8201 26.998 29.8291 26.9912 29.8356C26.9844 29.8422 26.9754 29.8458 26.9661 29.8458C26.9569 29.8458 26.9481 29.8421 26.9416 29.8355C26.9352 29.8289 26.9315 29.8199 26.9315 29.8106C26.9315 29.8011 26.9351 29.7919 26.9415 29.785C26.9479 29.7781 26.9567 29.7739 26.9661 29.7734C26.9756 29.7739 26.9846 29.778 26.9914 29.7849C26.9981 29.7917 27.0021 29.8009 27.0026 29.8106Z" fill="white"/>
</g>
<g opacity="0.1">
<path d="M34.7077 25.5914C34.7077 25.6007 34.704 25.6097 34.6976 25.6163C34.6911 25.6229 34.6823 25.6266 34.6731 25.6266C34.6639 25.6266 34.6552 25.6229 34.6487 25.6163C34.6422 25.6097 34.6385 25.6007 34.6385 25.5914C34.6385 25.582 34.6422 25.5731 34.6487 25.5665C34.6552 25.5599 34.6639 25.5562 34.6731 25.5562C34.6823 25.5562 34.6911 25.5599 34.6976 25.5665C34.704 25.5731 34.7077 25.582 34.7077 25.5914Z" fill="white"/>
</g>
<g opacity="0.07">
<path d="M35.3872 19.5977C35.3872 19.6055 35.385 19.613 35.3808 19.6195C35.3765 19.6259 35.3705 19.6309 35.3635 19.6339C35.3565 19.6368 35.3488 19.6376 35.3413 19.6361C35.3339 19.6346 35.327 19.6309 35.3217 19.6254C35.3163 19.6199 35.3126 19.6129 35.3112 19.6054C35.3097 19.5978 35.3104 19.5899 35.3133 19.5827C35.3163 19.5756 35.3212 19.5695 35.3275 19.5652C35.3338 19.5609 35.3412 19.5586 35.3488 19.5586C35.359 19.5586 35.3688 19.5627 35.376 19.5701C35.3832 19.5774 35.3872 19.5873 35.3872 19.5977Z" fill="white"/>
</g>
<g opacity="0.25">
<path d="M36.0395 34.9127C36.0395 34.9204 36.0372 34.928 36.033 34.9344C36.0288 34.9408 36.0228 34.9458 36.0157 34.9488C36.0087 34.9518 36.001 34.9525 35.9936 34.951C35.9861 34.9495 35.9793 34.9458 35.9739 34.9403C35.9685 34.9349 35.9649 34.9279 35.9634 34.9203C35.9619 34.9127 35.9627 34.9048 35.9656 34.8977C35.9685 34.8905 35.9734 34.8844 35.9797 34.8801C35.986 34.8758 35.9935 34.8735 36.0011 34.8735C36.0112 34.8735 36.021 34.8777 36.0282 34.885C36.0354 34.8923 36.0395 34.9023 36.0395 34.9127Z" fill="white"/>
</g>
<g opacity="0.09">
<path d="M19.3044 30.4771C19.3044 30.4902 19.2994 30.5027 19.2905 30.5121C19.2816 30.5215 19.2695 30.527 19.2566 30.5275C19.2434 30.5275 19.2308 30.5222 19.2215 30.5127C19.2121 30.5033 19.2069 30.4905 19.2069 30.4771C19.2074 30.4641 19.2129 30.4518 19.2221 30.4428C19.2314 30.4337 19.2438 30.4287 19.2566 30.4287C19.2693 30.4287 19.2814 30.4338 19.2904 30.4429C19.2994 30.452 19.3044 30.4643 19.3044 30.4771Z" fill="white"/>
</g>
<g opacity="0.25">
<path d="M18.6775 38.6894C18.6775 38.7064 18.6725 38.7231 18.6632 38.7372C18.6539 38.7513 18.6406 38.7623 18.6251 38.7688C18.6096 38.7753 18.5925 38.777 18.576 38.7737C18.5596 38.7704 18.5444 38.7622 18.5326 38.7502C18.5207 38.7382 18.5126 38.7229 18.5093 38.7062C18.506 38.6895 18.5077 38.6723 18.5142 38.6566C18.5206 38.6409 18.5315 38.6274 18.5454 38.618C18.5594 38.6086 18.5758 38.6035 18.5926 38.6035C18.6151 38.6035 18.6367 38.6126 18.6526 38.6287C18.6686 38.6448 18.6775 38.6667 18.6775 38.6894Z" fill="white"/>
</g>
<g opacity="0.26">
<path d="M21.0205 39.2095C21.062 39.2095 21.0957 39.1754 21.0957 39.1333C21.0957 39.0912 21.062 39.0571 21.0205 39.0571C20.9789 39.0571 20.9452 39.0912 20.9452 39.1333C20.9452 39.1754 20.9789 39.2095 21.0205 39.2095Z" fill="white"/>
</g>
<g opacity="0.35">
<path d="M16.5085 41.7992C16.5085 41.8227 16.5016 41.8456 16.4887 41.8651C16.4757 41.8846 16.4574 41.8998 16.4358 41.9088C16.4143 41.9178 16.3907 41.9201 16.3678 41.9156C16.345 41.911 16.324 41.8997 16.3076 41.8831C16.2911 41.8665 16.2799 41.8454 16.2753 41.8224C16.2708 41.7994 16.2731 41.7755 16.282 41.7539C16.2909 41.7322 16.306 41.7137 16.3254 41.7006C16.3448 41.6876 16.3675 41.6807 16.3908 41.6807C16.4063 41.6807 16.4216 41.6837 16.4358 41.6897C16.4501 41.6956 16.4631 41.7044 16.474 41.7154C16.485 41.7264 16.4936 41.7395 16.4996 41.7539C16.5055 41.7683 16.5085 41.7837 16.5085 41.7992Z" fill="white"/>
</g>
<g opacity="0.27">
<path d="M26.1362 39.3531C26.1362 39.3674 26.1306 39.3812 26.1205 39.3914C26.1105 39.4016 26.0969 39.4073 26.0827 39.4073C26.0685 39.4073 26.0549 39.4016 26.0448 39.3914C26.0348 39.3812 26.0292 39.3674 26.0292 39.3531C26.0292 39.3387 26.0348 39.3249 26.0448 39.3147C26.0549 39.3045 26.0685 39.2988 26.0827 39.2988C26.0969 39.2988 26.1105 39.3045 26.1205 39.3147C26.1306 39.3249 26.1362 39.3387 26.1362 39.3531Z" fill="white"/>
</g>
<g opacity="0.5">
<path d="M14.4041 46.8485C14.4968 46.8485 14.572 46.7728 14.572 46.6794C14.572 46.586 14.4968 46.5103 14.4041 46.5103C14.3114 46.5103 14.2362 46.586 14.2362 46.6794C14.2362 46.7728 14.3114 46.8485 14.4041 46.8485Z" fill="white"/>
</g>
<g opacity="0.04">
<path d="M26.0768 7.82519C26.0772 7.86765 26.065 7.90926 26.0418 7.94473C26.0186 7.98019 25.9855 8.0079 25.9466 8.02433C25.9078 8.04075 25.8649 8.04515 25.8236 8.03696C25.7822 8.02877 25.7442 8.00836 25.7144 7.97834C25.6846 7.94832 25.6643 7.91004 25.6562 7.86837C25.6481 7.82671 25.6524 7.78355 25.6688 7.7444C25.6851 7.70525 25.7126 7.67187 25.7478 7.64852C25.783 7.62517 25.8243 7.61291 25.8664 7.61329C25.9222 7.61329 25.9757 7.63562 26.0152 7.67536C26.0546 7.7151 26.0768 7.76899 26.0768 7.82519Z" fill="white"/>
</g>
</g>
<path d="M26.4472 50.9679C22.9271 56.6368 29.4983 69.2207 29.4983 69.2207C29.4983 69.2207 36.4208 56.6368 32.3642 50.9679C29.3826 46.8038 26.4472 50.9679 26.4472 50.9679Z" fill="url(#paint0_linear_1_28026)"/>
<path style="mix-blend-mode:color-dodge" d="M27.4014 50.9767C24.9717 54.8882 29.505 63.5723 29.505 63.5723C29.505 63.5723 34.2815 54.8882 31.4831 50.9767C29.4259 48.1034 27.4014 50.9767 27.4014 50.9767Z" fill="url(#paint1_linear_1_28026)"/>
<path d="M35.7738 24.7197C35.7738 24.7197 36.3431 35.7522 43.3003 38.8064C43.2502 41.009 43.3003 42.537 42.7677 44.5161C41.8336 43.9562 36.8101 43.2932 34.0292 45.4356L35.7738 24.7197Z" fill="url(#paint2_linear_1_28026)"/>
<path d="M23.0362 24.7197C23.0362 24.7197 22.4669 35.7522 15.5096 38.8064C15.5598 41.009 15.5096 42.537 16.0404 44.5161C16.9764 43.9562 21.9998 43.2932 24.7808 45.4356L23.0362 24.7197Z" fill="url(#paint3_linear_1_28026)"/>
<path d="M23.0361 24.7207L23.37 28.7021C22.405 32.2598 20.1895 38.0122 15.5269 40.071C15.5269 39.6705 15.5134 39.2525 15.5018 38.8073C22.4687 35.7532 23.0361 24.7207 23.0361 24.7207Z" fill="url(#paint4_linear_1_28026)"/>
<path d="M24.7744 45.4363L24.7261 45.4013L24.6913 44.4468L24.7744 45.4363Z" fill="url(#paint5_linear_1_28026)"/>
<path d="M15.6502 38.2154L16.0362 44.9982C15.0712 45.3734 14.6119 47.0705 14.8551 50.6359C13.6335 48.7619 12.5392 42.6342 14.0484 37.8052C14.5791 38.2737 14.9998 38.3981 15.6502 38.2154Z" fill="url(#paint6_linear_1_28026)"/>
<path d="M14.8511 50.6445C13.753 46.562 15.0074 44.2972 15.9666 43.8403L16.0322 44.997C15.0653 45.3723 14.6079 47.0694 14.8511 50.6445Z" fill="url(#paint7_linear_1_28026)"/>
<path d="M35.7732 24.7202L35.4393 28.7016C36.4043 32.2593 38.6198 38.0117 43.2843 40.0705C43.2843 39.67 43.2959 39.252 43.3075 38.8068C36.3522 35.7527 35.7732 24.7202 35.7732 24.7202Z" fill="url(#paint8_linear_1_28026)"/>
<path d="M43.1612 38.2139L42.7753 44.9967C43.7402 45.3719 44.2015 47.0691 43.9583 50.6345C45.1799 48.7604 46.2741 42.6327 44.765 37.8037C44.2323 38.2722 43.8116 38.3966 43.1612 38.2139Z" fill="url(#paint9_linear_1_28026)"/>
<path d="M43.9583 50.644C45.0564 46.5615 43.802 44.2967 42.8428 43.8398L42.7753 44.9966C43.7421 45.3718 44.2015 47.0689 43.9583 50.644Z" fill="url(#paint10_linear_1_28026)"/>
<path d="M33.3898 49.7312C33.4857 49.6731 33.5674 49.594 33.6289 49.4998C33.6904 49.4055 33.73 49.2986 33.7449 49.1869C34.1309 46.436 36.6648 27.8023 36.6648 19.0093C36.6648 10.957 31.4542 6.35156 29.8582 5.13653C29.7279 5.03626 29.5685 4.98193 29.4046 4.98193C29.2407 4.98193 29.0813 5.03626 28.9511 5.13653C27.3609 6.35156 22.1444 10.957 22.1444 19.0093C22.1444 27.7964 24.6822 46.4341 25.0643 49.1869C25.0792 49.2986 25.1189 49.4055 25.1804 49.4998C25.2418 49.594 25.3235 49.6731 25.4194 49.7312C27.4747 50.9521 31.3731 50.9249 33.3898 49.7312Z" fill="url(#paint11_linear_1_28026)"/>
<path d="M32.2487 47.7674C32.5457 47.6541 32.8069 47.462 33.0046 47.2115C33.2023 46.9611 33.3292 46.6615 33.3719 46.3444C33.8968 42.4971 35.9039 27.3159 35.9039 19.9285C35.9039 13.7173 32.4301 9.79805 30.5677 8.13394C30.2459 7.84933 29.8323 7.69238 29.404 7.69238C28.9758 7.69238 28.5621 7.84933 28.2403 8.13394C26.3702 9.79805 22.9042 13.7173 22.9042 19.9285C22.9042 27.3159 24.9113 42.5049 25.4362 46.3502C25.4791 46.668 25.6064 46.9682 25.8048 47.2191C26.0032 47.4699 26.2653 47.6621 26.5632 47.7752C28.2268 48.3973 30.6063 48.3876 32.2487 47.7674Z" fill="url(#paint12_linear_1_28026)"/>
<path d="M26.2517 49.5415C26.3733 50.4397 26.4447 50.9684 26.4447 50.9684C27.8632 51.9988 30.9857 51.9735 32.3617 50.9684C32.3617 50.9684 32.4351 50.4416 32.5547 49.5415C30.9799 50.3911 27.8612 50.4105 26.2517 49.5415Z" fill="#460091"/>
<path d="M26.2517 49.5415C26.3733 50.4397 26.4447 50.9684 26.4447 50.9684C27.8632 51.9988 30.9857 51.9735 32.3617 50.9684C32.3617 50.9684 32.4351 50.4416 32.5547 49.5415C30.9799 50.3911 27.8612 50.4105 26.2517 49.5415Z" fill="url(#paint13_linear_1_28026)"/>
<path d="M25.4198 48.8418C25.5723 49.7419 25.6649 50.2687 25.6649 50.2687C27.4578 51.2991 31.4063 51.2738 33.1451 50.2687C33.1451 50.2687 33.2378 49.7419 33.3902 48.8437C31.3966 49.6913 27.4597 49.7108 25.4198 48.8418Z" fill="url(#paint14_linear_1_28026)"/>
<path d="M24.83 47.4561C25.0056 48.7605 25.1136 49.5284 25.1136 49.5284C27.169 51.0234 31.7023 50.9865 33.6978 49.5284C33.6978 49.5284 33.8058 48.7605 33.9815 47.458C31.6907 48.7002 27.1728 48.7177 24.83 47.4561Z" fill="url(#paint15_linear_1_28026)"/>
<path d="M30.2968 45.2684C30.2916 47.7841 29.9924 50.2904 29.4052 52.7355C28.818 50.2904 28.5187 47.7841 28.5136 45.2684C28.5135 41.145 28.913 37.8013 29.4052 37.8013C29.8973 37.8013 30.2968 41.145 30.2968 45.2684Z" fill="url(#paint16_linear_1_28026)"/>
<path d="M29.4055 26.2585C31.8527 26.2585 33.8365 23.4324 33.8365 19.9461C33.8365 16.4599 31.8527 13.6338 29.4055 13.6338C26.9583 13.6338 24.9745 16.4599 24.9745 19.9461C24.9745 23.4324 26.9583 26.2585 29.4055 26.2585Z" fill="url(#paint17_linear_1_28026)"/>
<path d="M29.4057 25.0752C31.3936 25.0752 33.005 22.7791 33.005 19.9468C33.005 17.1144 31.3935 14.8184 29.4057 14.8184C27.4179 14.8184 25.8065 17.1144 25.8065 19.9468C25.8065 22.7791 27.4179 25.0752 29.4057 25.0752Z" fill="url(#paint18_linear_1_28026)"/>
<path style="mix-blend-mode:screen" opacity="0.53" d="M29.4046 24.7143C31.2528 24.7143 32.7511 22.5792 32.7511 19.9455C32.7511 17.3118 31.2528 15.1768 29.4046 15.1768C27.5565 15.1768 26.0582 17.3118 26.0582 19.9455C26.0582 22.5792 27.5565 24.7143 29.4046 24.7143Z" fill="url(#paint19_linear_1_28026)"/>
<path d="M30.0419 16.0495C29.7891 16.4577 31.4333 17.3073 31.6128 19.6188C31.7846 21.8291 31.3233 22.0391 31.5626 22.0877C31.8019 22.1363 32.489 21.5045 32.2033 18.9986C31.9293 16.5821 30.3815 15.5012 30.0419 16.0495Z" fill="url(#paint20_linear_1_28026)"/>
<path d="M28.8032 23.8397C29.056 23.4314 27.4118 22.5819 27.2323 20.2704C27.0605 18.06 27.5218 17.85 27.2825 17.8014C27.0432 17.7528 26.3581 18.373 26.6418 20.9002C26.9158 23.307 28.4636 24.3879 28.8032 23.8397Z" fill="url(#paint21_linear_1_28026)"/>
</g>
<defs>
<filter id="filter0_d_1_28026" x="0.424582" y="0.334056" width="54.3702" height="82.8303" filterUnits="userSpaceOnUse" color-interpolation-filters="sRGB">
<feFlood flood-opacity="0" result="BackgroundImageFix"/>
<feColorMatrix in="SourceAlpha" type="matrix" values="0 0 0 0 0 0 0 0 0 0 0 0 0 0 0 0 0 0 127 0" result="hardAlpha"/>
<feOffset dy="4.64788"/>
<feGaussianBlur stdDeviation="4.64788"/>
<feComposite in2="hardAlpha" operator="out"/>
<feColorMatrix type="matrix" values="0 0 0 0 0 0 0 0 0 0 0 0 0 0 0 0 0 0 0.09 0"/>
<feBlend mode="normal" in2="BackgroundImageFix" result="effect1_dropShadow_1_28026"/>
<feBlend mode="normal" in="SourceGraphic" in2="effect1_dropShadow_1_28026" result="shape"/>
</filter>
<linearGradient id="paint0_linear_1_28026" x1="29.5254" y1="49.9376" x2="29.5254" y2="70.2432" gradientUnits="userSpaceOnUse">
<stop stop-color="#FFDC4F"/>
<stop offset="1" stop-color="#FFF984" stop-opacity="0"/>
</linearGradient>
<linearGradient id="paint1_linear_1_28026" x1="29.5243" y1="53.2357" x2="29.5243" y2="63.3565" gradientUnits="userSpaceOnUse">
<stop stop-color="#FFDC4F"/>
<stop offset="1" stop-color="#FFF984" stop-opacity="0"/>
</linearGradient>
<linearGradient id="paint2_linear_1_28026" x1="38.6725" y1="35.9914" x2="38.6725" y2="49.7572" gradientUnits="userSpaceOnUse">
<stop stop-color="#C5C6ED"/>
<stop offset="0.99" stop-color="#AB7BB3"/>
</linearGradient>
<linearGradient id="paint3_linear_1_28026" x1="20.1375" y1="34.7841" x2="20.1375" y2="50.9139" gradientUnits="userSpaceOnUse">
<stop stop-color="#C5C6ED"/>
<stop offset="0.99" stop-color="#AB7BB3"/>
</linearGradient>
<linearGradient id="paint4_linear_1_28026" x1="20.1876" y1="26.865" x2="19.1185" y2="36.5291" gradientUnits="userSpaceOnUse">
<stop stop-color="#FFF5DB"/>
<stop offset="0.99" stop-color="#C5C6ED"/>
</linearGradient>
<linearGradient id="paint5_linear_1_28026" x1="26.631" y1="27.5763" x2="25.5642" y2="37.2428" gradientUnits="userSpaceOnUse">
<stop stop-color="#FFF5DB"/>
<stop offset="0.99" stop-color="#C5C6ED"/>
</linearGradient>
<linearGradient id="paint6_linear_1_28026" x1="14.6753" y1="37.8052" x2="14.6753" y2="50.6359" gradientUnits="userSpaceOnUse">
<stop stop-color="#8B7EFF"/>
<stop offset="1" stop-color="#4335E3"/>
</linearGradient>
<linearGradient id="paint7_linear_1_28026" x1="15.228" y1="43.8403" x2="15.228" y2="50.6445" gradientUnits="userSpaceOnUse">
<stop stop-color="#8B7EFF"/>
<stop offset="1" stop-color="#4335E3"/>
</linearGradient>
<linearGradient id="paint8_linear_1_28026" x1="38.6217" y1="26.8645" x2="39.6927" y2="36.5287" gradientUnits="userSpaceOnUse">
<stop stop-color="#FFF5DB"/>
<stop offset="0.99" stop-color="#C5C6ED"/>
</linearGradient>
<linearGradient id="paint9_linear_1_28026" x1="44.1372" y1="37.8037" x2="44.1372" y2="50.6345" gradientUnits="userSpaceOnUse">
<stop stop-color="#8B7EFF"/>
<stop offset="1" stop-color="#4335E3"/>
</linearGradient>
<linearGradient id="paint10_linear_1_28026" x1="43.5804" y1="43.8398" x2="43.5804" y2="50.644" gradientUnits="userSpaceOnUse">
<stop stop-color="#8B7EFF"/>
<stop offset="1" stop-color="#4335E3"/>
</linearGradient>
<linearGradient id="paint11_linear_1_28026" x1="29.4046" y1="23.4301" x2="29.4046" y2="47.4994" gradientUnits="userSpaceOnUse">
<stop stop-color="#FFF5DB"/>
<stop offset="0.99" stop-color="#C5C6ED"/>
</linearGradient>
<linearGradient id="paint12_linear_1_28026" x1="29.404" y1="27.3296" x2="29.404" y2="48.7083" gradientUnits="userSpaceOnUse">
<stop stop-color="#FFFDF7"/>
<stop offset="0.99" stop-color="#C5C6ED"/>
</linearGradient>
<linearGradient id="paint13_linear_1_28026" x1="29.4032" y1="49.5415" x2="29.4032" y2="51.7318" gradientUnits="userSpaceOnUse">
<stop stop-color="#FF7E7E"/>
<stop offset="1" stop-color="#E33535"/>
</linearGradient>
<linearGradient id="paint14_linear_1_28026" x1="29.405" y1="48.8418" x2="29.405" y2="51.032" gradientUnits="userSpaceOnUse">
<stop stop-color="#FF7E7E"/>
<stop offset="1" stop-color="#E33535"/>
</linearGradient>
<linearGradient id="paint15_linear_1_28026" x1="29.4057" y1="47.4561" x2="29.4057" y2="50.6358" gradientUnits="userSpaceOnUse">
<stop stop-color="#FF7E7E"/>
<stop offset="1" stop-color="#E33535"/>
</linearGradient>
<linearGradient id="paint16_linear_1_28026" x1="29.4052" y1="37.8013" x2="29.4052" y2="52.7355" gradientUnits="userSpaceOnUse">
<stop stop-color="#8B7EFF"/>
<stop offset="1" stop-color="#4335E3"/>
</linearGradient>
<linearGradient id="paint17_linear_1_28026" x1="29.4055" y1="13.6338" x2="29.4055" y2="26.2585" gradientUnits="userSpaceOnUse">
<stop stop-color="#FF7E7E"/>
<stop offset="1" stop-color="#E33535"/>
</linearGradient>
<linearGradient id="paint18_linear_1_28026" x1="29.4057" y1="28.8719" x2="29.4057" y2="16.3581" gradientUnits="userSpaceOnUse">
<stop stop-color="#21F5F4"/>
<stop offset="1" stop-color="#D7A1FF"/>
</linearGradient>
<linearGradient id="paint19_linear_1_28026" x1="29.4046" y1="28.2466" x2="29.4046" y2="16.6095" gradientUnits="userSpaceOnUse">
<stop stop-color="#21F5F4"/>
<stop offset="1" stop-color="#D7A1FF"/>
</linearGradient>
<linearGradient id="paint20_linear_1_28026" x1="29.2622" y1="14.3115" x2="32.0422" y2="20.5505" gradientUnits="userSpaceOnUse">
<stop stop-color="white" stop-opacity="0.9"/>
<stop offset="0.99" stop-color="white" stop-opacity="0"/>
</linearGradient>
<linearGradient id="paint21_linear_1_28026" x1="30.378" y1="24.9108" x2="26.8226" y2="19.7289" gradientUnits="userSpaceOnUse">
<stop stop-color="white" stop-opacity="0.9"/>
<stop offset="0.99" stop-color="white" stop-opacity="0"/>
</linearGradient>
</defs>
</svg>
