<svg width="149" height="149" viewBox="0 0 149 149" fill="none" xmlns="http://www.w3.org/2000/svg">
<g filter="url(#filter0_i_0_1)">
<circle cx="74.5" cy="74.5" r="74.5" fill="#19131F"/>
</g>
<path d="M32.9518 39.9995H33.1561C33.1831 40.0019 33.21 39.9949 33.2315 39.98C33.2529 39.9651 33.2673 39.9434 33.2717 39.9193C33.8137 37.3993 35.4399 35.7863 37.9104 35.3288C37.9385 35.3214 37.9628 35.3053 37.9791 35.2833C37.9954 35.2612 38.0025 35.2347 37.9992 35.2084C37.9943 35.19 37.9943 35.1707 37.9992 35.1523C37.9962 35.1311 37.986 35.1113 37.9701 35.0955C37.9543 35.0797 37.9334 35.0687 37.9104 35.064C35.2444 34.5744 33.6182 32.7928 33.1917 30H33.0495C33.0233 30.0016 32.9984 30.0112 32.979 30.0272C32.9596 30.0433 32.9469 30.0648 32.9429 30.0883C32.4719 32.8731 30.7657 34.6306 28.0909 35.072C28.0658 35.0758 28.043 35.0877 28.0267 35.1053C28.0104 35.123 28.0017 35.1453 28.002 35.1683C27.9965 35.1959 28.0025 35.2243 28.0189 35.2481C28.0353 35.2718 28.061 35.2892 28.0909 35.2967C30.6679 35.7221 32.3475 37.3753 32.8895 39.9835L32.9518 39.9995Z" fill="#69D6CF" fill-opacity="0.27"/>
<path d="M120.952 120H121.156C121.183 120.002 121.21 119.995 121.231 119.98C121.253 119.965 121.267 119.943 121.272 119.919C121.814 117.399 123.44 115.786 125.91 115.329C125.939 115.321 125.963 115.305 125.979 115.283C125.995 115.261 126.002 115.235 125.999 115.208C125.994 115.19 125.994 115.171 125.999 115.152C125.996 115.131 125.986 115.111 125.97 115.096C125.954 115.08 125.933 115.069 125.91 115.064C123.244 114.574 121.618 112.793 121.192 110H121.05C121.023 110.002 120.998 110.011 120.979 110.027C120.96 110.043 120.947 110.065 120.943 110.088C120.472 112.873 118.766 114.631 116.091 115.072C116.066 115.076 116.043 115.088 116.027 115.105C116.01 115.123 116.002 115.145 116.002 115.168C115.996 115.196 116.002 115.224 116.019 115.248C116.035 115.272 116.061 115.289 116.091 115.297C118.668 115.722 120.347 117.375 120.89 119.983L120.952 120Z" fill="#69D6CF" fill-opacity="0.27"/>
<path d="M128.961 57.9996H129.125C129.146 58.0015 129.168 57.9959 129.185 57.984C129.202 57.9721 129.214 57.9547 129.217 57.9354C129.651 55.9195 130.952 54.629 132.928 54.263C132.951 54.2571 132.97 54.2442 132.983 54.2266C132.996 54.209 133.002 54.1878 132.999 54.1667C132.995 54.152 132.995 54.1366 132.999 54.1218C132.997 54.1049 132.989 54.089 132.976 54.0764C132.963 54.0638 132.947 54.055 132.928 54.0512C130.796 53.6596 129.495 52.2342 129.153 50H129.04C129.019 50.0012 128.999 50.0089 128.983 50.0218C128.968 50.0346 128.957 50.0518 128.954 50.0706C128.578 52.2985 127.213 53.7045 125.073 54.0576C125.053 54.0607 125.034 54.0701 125.021 54.0843C125.008 54.0984 125.001 54.1163 125.002 54.1346C124.997 54.1567 125.002 54.1794 125.015 54.1984C125.028 54.2175 125.049 54.2313 125.073 54.2374C127.134 54.5776 128.478 55.9002 128.912 57.9868L128.961 57.9996Z" fill="white" fill-opacity="0.27"/>
<path d="M128.961 57.9996H129.125C129.146 58.0015 129.168 57.9959 129.185 57.984C129.202 57.9721 129.214 57.9547 129.217 57.9354C129.651 55.9195 130.952 54.629 132.928 54.263C132.951 54.2571 132.97 54.2442 132.983 54.2266C132.996 54.209 133.002 54.1878 132.999 54.1667C132.995 54.152 132.995 54.1366 132.999 54.1218C132.997 54.1049 132.989 54.089 132.976 54.0764C132.963 54.0638 132.947 54.055 132.928 54.0512C130.796 53.6596 129.495 52.2342 129.153 50H129.04C129.019 50.0012 128.999 50.0089 128.983 50.0218C128.968 50.0346 128.957 50.0518 128.954 50.0706C128.578 52.2985 127.213 53.7045 125.073 54.0576C125.053 54.0607 125.034 54.0701 125.021 54.0843C125.008 54.0984 125.001 54.1163 125.002 54.1346C124.997 54.1567 125.002 54.1794 125.015 54.1984C125.028 54.2175 125.049 54.2313 125.073 54.2374C127.134 54.5776 128.478 55.9002 128.912 57.9868L128.961 57.9996Z" fill="white" fill-opacity="0.27"/>
<path d="M27.9614 123H28.1249C28.1465 123.002 28.168 122.996 28.1852 122.984C28.2023 122.972 28.2138 122.955 28.2173 122.935C28.651 120.919 29.952 119.629 31.9283 119.263C31.9508 119.257 31.9703 119.244 31.9833 119.227C31.9963 119.209 32.002 119.188 31.9994 119.167C31.9955 119.152 31.9955 119.137 31.9994 119.122C31.9969 119.105 31.9888 119.089 31.9761 119.076C31.9634 119.064 31.9467 119.055 31.9283 119.051C29.7956 118.66 28.4946 117.234 28.1533 115H28.0396C28.0186 115.001 27.9987 115.009 27.9832 115.022C27.9677 115.035 27.9575 115.052 27.9543 115.071C27.5775 117.298 26.2126 118.704 24.0727 119.058C24.0526 119.061 24.0344 119.07 24.0214 119.084C24.0083 119.098 24.0013 119.116 24.0016 119.135C23.9972 119.157 24.002 119.179 24.0151 119.198C24.0283 119.217 24.0488 119.231 24.0727 119.237C26.1344 119.578 27.478 120.9 27.9116 122.987L27.9614 123Z" fill="white" fill-opacity="0.27"/>
<path fill-rule="evenodd" clip-rule="evenodd" d="M62 37.6992C65.2653 36.1717 67.4464 35.5752 71.5312 35.0923C72.577 34.9688 76.4619 35.147 77.8594 35.3828C83.2883 36.2986 88.0044 38.6533 91.9789 42.4323C93.582 43.9566 95.4761 46.2973 96.3153 47.7916C96.563 48.2327 96.8183 48.5934 96.8828 48.5936C96.9473 48.5938 97 45.5352 97 41.7969V37C97 35.8954 97.8954 35 99 35H100.281H101.562C102.667 35 103.562 35.8954 103.562 37V44.9769V54.9538L104.58 55.1223C106.057 55.3672 107.19 55.9463 108.228 56.9869C109.843 58.6067 110.281 59.9831 110.278 63.4375C110.275 66.6795 109.793 68.1477 108.213 69.7355C106.797 71.1591 105.037 71.7094 101.883 71.7156L100.281 71.7188V76.7188C100.281 79.4802 98.0427 81.7188 95.2812 81.7188H73.6406H54.5488C50.3797 81.7188 47 78.3391 47 74.17V66.6213C46.7301 60.3342 47.1657 55.5897 48.3067 52.3877C49.6443 48.5452 52.153 45.0275 55.8326 41.8345L56.5336 41.2209C57.7223 40.1798 60.4415 38.4281 62 37.6992ZM78.7544 75.7622C84.3959 73.633 88.4082 68.1835 88.4082 61.7969C88.4082 53.5558 81.7275 46.875 73.4863 46.875C67.8201 46.875 62.8915 50.0332 60.3649 54.6853C60.3628 54.6897 60.3606 54.6941 60.3583 54.6984C59.5883 56.1208 58.9087 58.3325 58.7012 60.0916C58.1401 64.8495 60.2283 70.0723 63.9056 73.1084C68.1161 76.5848 73.382 77.5881 78.4309 75.8759C78.5395 75.8391 78.6473 75.8012 78.7544 75.7622ZM83.3355 57.107C83.0242 56.292 82.0419 55.3823 81.2289 55.1566C79.0723 54.5573 77.0136 56.1012 77.0034 58.3253C76.9947 60.2344 78.3748 61.6105 80.3012 61.6133C82.6075 61.6167 84.1709 59.2947 83.3355 57.107ZM42.4789 86.0997C43.2083 85.7497 44.2602 85.3647 44.8166 85.2441C45.6334 85.067 48.1813 85.0225 58.0547 85.0123L70.2812 85V100V115H53.6406H41C38.7909 115 37 113.209 37 111V104.322C37 94.1994 37.0161 93.5809 37.3086 92.4369C37.7594 90.6744 38.457 89.4825 39.8961 88.0164C40.9161 86.9772 41.4028 86.6159 42.4789 86.0997ZM77 115V100V85L89.1484 85.0027C100.327 85.0052 102.145 84.9915 103.71 85.6146C104.054 85.7516 104.386 85.9195 104.802 86.1252C106.665 87.0442 108.242 88.6225 109.145 90.4688C110.275 92.7797 110.281 92.8613 110.281 104.603V111C110.281 113.209 108.49 115 106.281 115H93.6406H77ZM100.281 105V101.641V98.2812H93.6406H87V101.641V105H93.6406H100.281ZM92.002 61.7969C92.002 72.0228 83.7122 80.3125 73.4863 80.3125C63.2604 80.3125 54.9707 72.0228 54.9707 61.7969C54.9707 51.571 63.2604 43.2812 73.4863 43.2812C83.7122 43.2812 92.002 51.571 92.002 61.7969Z" fill="#69D6CF"/>
<g filter="url(#filter1_d_0_1)">
<mask id="path-8-inside-1_0_1" fill="white">
<rect x="86" y="98" width="15" height="8" rx="1"/>
</mask>
<rect x="86" y="98" width="15" height="8" rx="1" fill="white"/>
<rect x="86" y="98" width="15" height="8" rx="1" stroke="#19131F" stroke-width="4" mask="url(#path-8-inside-1_0_1)"/>
</g>
<circle cx="73.5" cy="61.5" r="15.5" fill="white"/>
<circle cx="81" cy="56" r="4" fill="#1E1F29"/>
<g filter="url(#filter2_d_0_1)">
<path d="M103.5 46.8178C113.502 45.8027 120.793 47.4913 122.934 52.1087C127.137 61.1727 109.166 78.0901 83.7097 89.8947C58.2535 101.699 34.2098 103.921 30.0067 94.8569C27.8259 90.1542 31.4146 83.3374 38.9284 76.2174L46.9715 70" stroke="url(#paint0_linear_0_1)"/>
</g>
<g filter="url(#filter3_d_0_1)">
<path d="M48.1003 53.0133C45.6895 52.9154 43.1902 52.8467 40.5869 52.8021C31.8158 52.8021 25.8135 56.6626 24.6142 61.2097C22.0661 70.8703 41.9953 84.5033 69.1275 91.6597C96.2596 98.8161 120.32 96.786 122.868 87.1253C124.012 82.7892 120.627 77.6529 114.096 72.6611C112.17 71.5482 110.299 70.4955 108.474 69.5" stroke="url(#paint1_linear_0_1)"/>
</g>
<defs>
<filter id="filter0_i_0_1" x="0" y="0" width="149" height="153" filterUnits="userSpaceOnUse" color-interpolation-filters="sRGB">
<feFlood flood-opacity="0" result="BackgroundImageFix"/>
<feBlend mode="normal" in="SourceGraphic" in2="BackgroundImageFix" result="shape"/>
<feColorMatrix in="SourceAlpha" type="matrix" values="0 0 0 0 0 0 0 0 0 0 0 0 0 0 0 0 0 0 127 0" result="hardAlpha"/>
<feOffset dy="4"/>
<feGaussianBlur stdDeviation="4.5"/>
<feComposite in2="hardAlpha" operator="arithmetic" k2="-1" k3="1"/>
<feColorMatrix type="matrix" values="0 0 0 0 0 0 0 0 0 0 0 0 0 0 0 0 0 0 0.09 0"/>
<feBlend mode="normal" in2="shape" result="effect1_innerShadow_0_1"/>
</filter>
<filter id="filter1_d_0_1" x="84" y="98" width="19" height="12" filterUnits="userSpaceOnUse" color-interpolation-filters="sRGB">
<feFlood flood-opacity="0" result="BackgroundImageFix"/>
<feColorMatrix in="SourceAlpha" type="matrix" values="0 0 0 0 0 0 0 0 0 0 0 0 0 0 0 0 0 0 127 0" result="hardAlpha"/>
<feOffset dy="2"/>
<feGaussianBlur stdDeviation="1"/>
<feComposite in2="hardAlpha" operator="out"/>
<feColorMatrix type="matrix" values="0 0 0 0 0 0 0 0 0 0 0 0 0 0 0 0 0 0 0.09 0"/>
<feBlend mode="normal" in2="BackgroundImageFix" result="effect1_dropShadow_0_1"/>
<feBlend mode="normal" in="SourceGraphic" in2="effect1_dropShadow_0_1" result="shape"/>
</filter>
<filter id="filter2_d_0_1" x="26.875" y="46.0334" width="99.1699" height="58.8987" filterUnits="userSpaceOnUse" color-interpolation-filters="sRGB">
<feFlood flood-opacity="0" result="BackgroundImageFix"/>
<feColorMatrix in="SourceAlpha" type="matrix" values="0 0 0 0 0 0 0 0 0 0 0 0 0 0 0 0 0 0 127 0" result="hardAlpha"/>
<feOffset dy="2"/>
<feGaussianBlur stdDeviation="1"/>
<feComposite in2="hardAlpha" operator="out"/>
<feColorMatrix type="matrix" values="0 0 0 0 0 0 0 0 0 0 0 0 0 0 0 0 0 0 0.09 0"/>
<feBlend mode="normal" in2="BackgroundImageFix" result="effect1_dropShadow_0_1"/>
<feBlend mode="normal" in="SourceGraphic" in2="effect1_dropShadow_0_1" result="shape"/>
</filter>
<filter id="filter3_d_0_1" x="21.8945" y="52.302" width="103.693" height="48.1357" filterUnits="userSpaceOnUse" color-interpolation-filters="sRGB">
<feFlood flood-opacity="0" result="BackgroundImageFix"/>
<feColorMatrix in="SourceAlpha" type="matrix" values="0 0 0 0 0 0 0 0 0 0 0 0 0 0 0 0 0 0 127 0" result="hardAlpha"/>
<feOffset dy="2"/>
<feGaussianBlur stdDeviation="1"/>
<feComposite in2="hardAlpha" operator="out"/>
<feColorMatrix type="matrix" values="0 0 0 0 0 0 0 0 0 0 0 0 0 0 0 0 0 0 0.09 0"/>
<feBlend mode="normal" in2="BackgroundImageFix" result="effect1_dropShadow_0_1"/>
<feBlend mode="normal" in="SourceGraphic" in2="effect1_dropShadow_0_1" result="shape"/>
</filter>
<linearGradient id="paint0_linear_0_1" x1="104.894" y1="80.0711" x2="84.8612" y2="47.8625" gradientUnits="userSpaceOnUse">
<stop stop-color="#EB5757"/>
<stop offset="1" stop-color="#FF8A00"/>
</linearGradient>
<linearGradient id="paint1_linear_0_1" x1="77.2902" y1="60.7125" x2="69.1275" y2="91.6597" gradientUnits="userSpaceOnUse">
<stop stop-color="#8B7EFF"/>
<stop offset="1" stop-color="#4335E3"/>
</linearGradient>
</defs>
</svg>
