<svg width="149" height="149" viewBox="0 0 149 149" fill="none" xmlns="http://www.w3.org/2000/svg">
<g filter="url(#filter0_i_0_1)">
<circle cx="74.5" cy="74.5" r="74.5" fill="#19131F"/>
</g>
<path d="M32.9518 36.9995H33.1561C33.1831 37.0019 33.21 36.9949 33.2315 36.98C33.2529 36.9651 33.2673 36.9434 33.2717 36.9193C33.8137 34.3993 35.4399 32.7863 37.9104 32.3288C37.9385 32.3214 37.9628 32.3053 37.9791 32.2833C37.9954 32.2612 38.0025 32.2347 37.9992 32.2084C37.9943 32.19 37.9943 32.1707 37.9992 32.1523C37.9962 32.1311 37.986 32.1113 37.9701 32.0955C37.9543 32.0797 37.9334 32.0687 37.9104 32.064C35.2444 31.5744 33.6182 29.7928 33.1917 27H33.0495C33.0233 27.0016 32.9984 27.0112 32.979 27.0272C32.9596 27.0433 32.9469 27.0648 32.9429 27.0883C32.4719 29.8731 30.7657 31.6306 28.0909 32.072C28.0658 32.0758 28.043 32.0877 28.0267 32.1053C28.0104 32.123 28.0017 32.1453 28.002 32.1683C27.9965 32.1959 28.0025 32.2243 28.0189 32.2481C28.0353 32.2718 28.061 32.2892 28.0909 32.2967C30.6679 32.7221 32.3475 34.3753 32.8895 36.9835L32.9518 36.9995Z" fill="#69D6CF" fill-opacity="0.27"/>
<path d="M109.952 125H110.156C110.183 125.002 110.21 124.995 110.231 124.98C110.253 124.965 110.267 124.943 110.272 124.919C110.814 122.399 112.44 120.786 114.91 120.329C114.939 120.321 114.963 120.305 114.979 120.283C114.995 120.261 115.002 120.235 114.999 120.208C114.994 120.19 114.994 120.171 114.999 120.152C114.996 120.131 114.986 120.111 114.97 120.096C114.954 120.08 114.933 120.069 114.91 120.064C112.244 119.574 110.618 117.793 110.192 115H110.05C110.023 115.002 109.998 115.011 109.979 115.027C109.96 115.043 109.947 115.065 109.943 115.088C109.472 117.873 107.766 119.631 105.091 120.072C105.066 120.076 105.043 120.088 105.027 120.105C105.01 120.123 105.002 120.145 105.002 120.168C104.996 120.196 105.002 120.224 105.019 120.248C105.035 120.272 105.061 120.289 105.091 120.297C107.668 120.722 109.347 122.375 109.89 124.983L109.952 125Z" fill="#69D6CF" fill-opacity="0.27"/>
<path d="M116.961 34.9996H117.125C117.146 35.0015 117.168 34.9959 117.185 34.984C117.202 34.9721 117.214 34.9547 117.217 34.9354C117.651 32.9195 118.952 31.629 120.928 31.263C120.951 31.2571 120.97 31.2442 120.983 31.2266C120.996 31.209 121.002 31.1878 120.999 31.1667C120.995 31.152 120.995 31.1366 120.999 31.1218C120.997 31.1049 120.989 31.089 120.976 31.0764C120.963 31.0638 120.947 31.055 120.928 31.0512C118.796 30.6596 117.495 29.2342 117.153 27H117.04C117.019 27.0012 116.999 27.0089 116.983 27.0218C116.968 27.0346 116.957 27.0518 116.954 27.0706C116.578 29.2985 115.213 30.7045 113.073 31.0576C113.053 31.0607 113.034 31.0701 113.021 31.0843C113.008 31.0984 113.001 31.1163 113.002 31.1346C112.997 31.1567 113.002 31.1794 113.015 31.1984C113.028 31.2175 113.049 31.2313 113.073 31.2374C115.134 31.5776 116.478 32.9002 116.912 34.9868L116.961 34.9996Z" fill="white" fill-opacity="0.27"/>
<path d="M30.9614 119H31.1249C31.1465 119.002 31.168 118.996 31.1852 118.984C31.2023 118.972 31.2138 118.955 31.2173 118.935C31.651 116.919 32.952 115.629 34.9283 115.263C34.9508 115.257 34.9703 115.244 34.9833 115.227C34.9963 115.209 35.002 115.188 34.9994 115.167C34.9955 115.152 34.9955 115.137 34.9994 115.122C34.9969 115.105 34.9888 115.089 34.9761 115.076C34.9634 115.064 34.9467 115.055 34.9283 115.051C32.7956 114.66 31.4946 113.234 31.1533 111H31.0396C31.0186 111.001 30.9987 111.009 30.9832 111.022C30.9677 111.035 30.9575 111.052 30.9543 111.071C30.5775 113.298 29.2126 114.704 27.0727 115.058C27.0526 115.061 27.0344 115.07 27.0214 115.084C27.0083 115.098 27.0013 115.116 27.0016 115.135C26.9972 115.157 27.002 115.179 27.0151 115.198C27.0283 115.217 27.0488 115.231 27.0727 115.237C29.1344 115.578 30.478 116.9 30.9116 118.987L30.9614 119Z" fill="white" fill-opacity="0.27"/>
<path d="M73.68 36.1598C74.435 35.4964 75.565 35.4964 76.32 36.1598L82.933 41.9697C83.401 42.3809 84.034 42.5505 84.645 42.4284L93.2769 40.7033C94.2625 40.5064 95.2411 41.0714 95.5633 42.0234L98.3853 50.3614C98.585 50.9516 99.0484 51.415 99.6386 51.6147L107.977 54.4367C108.929 54.7589 109.494 55.7375 109.297 56.7231L107.572 65.355C107.449 65.966 107.619 66.599 108.03 67.067L113.84 73.68C114.504 74.435 114.504 75.565 113.84 76.32L108.03 82.933C107.619 83.401 107.449 84.034 107.572 84.645L109.297 93.2769C109.494 94.2625 108.929 95.2411 107.977 95.5633L99.6386 98.3853C99.0484 98.585 98.585 99.0484 98.3853 99.6386L95.5633 107.977C95.2411 108.929 94.2625 109.494 93.2769 109.297L84.645 107.572C84.034 107.449 83.401 107.619 82.933 108.03L76.32 113.84C75.565 114.504 74.435 114.504 73.68 113.84L67.067 108.03C66.599 107.619 65.966 107.449 65.355 107.572L56.7231 109.297C55.7375 109.494 54.7589 108.929 54.4367 107.977L51.6147 99.6386C51.415 99.0484 50.9516 98.585 50.3614 98.3853L42.0234 95.5633C41.0714 95.2411 40.5064 94.2625 40.7033 93.2769L42.4284 84.645C42.5505 84.034 42.3809 83.401 41.9697 82.933L36.1598 76.32C35.4964 75.565 35.4964 74.435 36.1598 73.68L41.9697 67.067C42.3809 66.599 42.5505 65.966 42.4284 65.355L40.7033 56.7231C40.5064 55.7375 41.0714 54.7589 42.0234 54.4367L50.3614 51.6147C50.9516 51.415 51.415 50.9516 51.6147 50.3614L54.4367 42.0234C54.7589 41.0714 55.7375 40.5064 56.7231 40.7033L65.355 42.4284C65.966 42.5505 66.599 42.3809 67.067 41.9697L73.68 36.1598Z" fill="#69D6CF"/>
<path d="M40.5001 56.0949C31.7398 57.1076 25.81 59.9604 24.6146 64.4925C22.0665 74.1531 41.9958 87.7861 69.1279 94.9425C96.26 102.099 120.321 100.069 122.869 90.4081C124.012 86.0723 120.628 80.9365 114.098 75.945" stroke="url(#paint0_linear_0_1)"/>
<g filter="url(#filter1_d_0_1)">
<path d="M98.4991 50.7943C111.037 48.6198 120.449 50.035 122.933 55.3913C127.136 64.4552 109.165 81.3727 83.7091 93.1772C58.2529 104.982 34.2092 107.203 30.0061 98.1394C27.8254 93.4367 31.414 86.6199 38.9278 79.5" stroke="url(#paint1_linear_0_1)"/>
</g>
<mask id="path-9-outside-1_0_1" maskUnits="userSpaceOnUse" x="56.3223" y="60.072" width="39" height="30" fill="black">
<rect fill="white" x="56.3223" y="60.072" width="39" height="30"/>
<path fill-rule="evenodd" clip-rule="evenodd" d="M71.223 86.9998L71.2502 87.0001L71.2774 86.9998C72.1076 86.9885 72.9036 86.6673 73.5092 86.0992L73.5325 86.0774L91.1245 68.4853L91.1868 68.4094C91.7011 67.7827 91.964 66.9872 91.9242 66.1775C91.8844 65.3677 91.5449 64.6018 90.9716 64.0285C90.3984 63.4553 89.6324 63.1157 88.8227 63.076C88.013 63.0362 87.2174 63.299 86.5907 63.8133L86.5145 63.876L71.2509 79.1538L64.7363 72.6263L64.6597 72.5633C64.033 72.049 63.2374 71.7862 62.4277 71.826C61.618 71.8657 60.852 72.2053 60.2787 72.7785C59.7055 73.3518 59.366 74.1177 59.3262 74.9275C59.2864 75.7372 59.5493 76.5327 60.0636 77.1594L60.1259 77.2353L68.9679 86.0774L68.9912 86.0992C69.5968 86.6673 70.3928 86.9885 71.223 86.9998ZM63.3908 74.1093L71.2505 81.984L71.2502 81.9843L63.3908 74.1093Z"/>
</mask>
<path fill-rule="evenodd" clip-rule="evenodd" d="M71.223 86.9998L71.2502 87.0001L71.2774 86.9998C72.1076 86.9885 72.9036 86.6673 73.5092 86.0992L73.5325 86.0774L91.1245 68.4853L91.1868 68.4094C91.7011 67.7827 91.964 66.9872 91.9242 66.1775C91.8844 65.3677 91.5449 64.6018 90.9716 64.0285C90.3984 63.4553 89.6324 63.1157 88.8227 63.076C88.013 63.0362 87.2174 63.299 86.5907 63.8133L86.5145 63.876L71.2509 79.1538L64.7363 72.6263L64.6597 72.5633C64.033 72.049 63.2374 71.7862 62.4277 71.826C61.618 71.8657 60.852 72.2053 60.2787 72.7785C59.7055 73.3518 59.366 74.1177 59.3262 74.9275C59.2864 75.7372 59.5493 76.5327 60.0636 77.1594L60.1259 77.2353L68.9679 86.0774L68.9912 86.0992C69.5968 86.6673 70.3928 86.9885 71.223 86.9998ZM63.3908 74.1093L71.2505 81.984L71.2502 81.9843L63.3908 74.1093Z" fill="white"/>
<path d="M71.2502 87.0001L71.2093 89.9999L71.2502 90.0004L71.2911 89.9999L71.2502 87.0001ZM71.223 86.9998L71.2639 84L71.2638 84L71.223 86.9998ZM71.2774 86.9998L71.2366 84L71.2365 84L71.2774 86.9998ZM73.5092 86.0992L75.5617 88.2872L75.5617 88.2872L73.5092 86.0992ZM73.5325 86.0774L75.585 88.2653L75.6199 88.2325L75.6538 88.1987L73.5325 86.0774ZM91.1245 68.4853L93.2458 70.6067L93.35 70.5025L93.4435 70.3886L91.1245 68.4853ZM91.1868 68.4094L93.5058 70.3126V70.3126L91.1868 68.4094ZM91.9242 66.1775L94.9206 66.0303V66.0303L91.9242 66.1775ZM90.9716 64.0285L93.093 61.9072L93.093 61.9072L90.9716 64.0285ZM88.8227 63.076L88.9699 60.0796L88.8227 63.076ZM86.5907 63.8133L84.6875 61.4944L84.6875 61.4944L86.5907 63.8133ZM86.5145 63.876L84.6112 61.557L84.4968 61.6509L84.3921 61.7556L86.5145 63.876ZM71.2509 79.1538L69.1275 81.273L71.2498 83.3996L73.3733 81.2742L71.2509 79.1538ZM64.7363 72.6263L66.8598 70.5071L66.7546 70.4017L66.6396 70.3073L64.7363 72.6263ZM64.6597 72.5633L66.5629 70.2444L66.5629 70.2444L64.6597 72.5633ZM62.4277 71.826L62.5749 74.8223H62.5749L62.4277 71.826ZM60.2787 72.7785L62.4001 74.8998H62.4001L60.2787 72.7785ZM59.3262 74.9275L56.3298 74.7803V74.7803L59.3262 74.9275ZM60.0636 77.1594L57.7446 79.0626L57.7446 79.0627L60.0636 77.1594ZM60.1259 77.2353L57.8069 79.1386L57.9004 79.2525L58.0046 79.3567L60.1259 77.2353ZM68.9679 86.0774L66.8466 88.1987L66.8805 88.2325L66.9154 88.2653L68.9679 86.0774ZM68.9912 86.0992L66.9387 88.2872L66.9387 88.2872L68.9912 86.0992ZM71.2505 81.984L73.3594 84.1177L75.5036 81.9985L73.3739 79.8647L71.2505 81.984ZM63.3908 74.1093L65.5142 71.99L61.2674 76.2285L63.3908 74.1093ZM71.2502 81.9843L69.1268 84.1035L71.2357 86.2167L73.3591 84.118L71.2502 81.9843ZM71.2911 84.0004L71.2639 84L71.1822 89.9995L71.2093 89.9999L71.2911 84.0004ZM71.2365 84L71.2093 84.0004L71.2911 89.9999L71.3182 89.9995L71.2365 84ZM71.4567 83.9113C71.3969 83.9673 71.3185 83.9989 71.2366 84L71.3181 89.9995C72.8967 89.978 74.4103 89.3673 75.5617 88.2872L71.4567 83.9113ZM71.4799 83.8894L71.4566 83.9113L75.5617 88.2872L75.585 88.2653L71.4799 83.8894ZM89.0032 66.364L71.4111 83.9561L75.6538 88.1987L93.2458 70.6067L89.0032 66.364ZM88.8678 66.5062L88.8055 66.5821L93.4435 70.3886L93.5058 70.3126L88.8678 66.5062ZM88.9278 66.3246C88.931 66.3905 88.9097 66.4552 88.8678 66.5062L93.5058 70.3126C94.4926 69.1103 94.9969 67.5839 94.9206 66.0303L88.9278 66.3246ZM88.8503 66.1498C88.897 66.1965 88.9246 66.2588 88.9278 66.3246L94.9206 66.0303C94.8443 64.4767 94.1928 63.007 93.093 61.9072L88.8503 66.1498ZM88.6755 66.0723C88.7414 66.0756 88.8037 66.1032 88.8503 66.1498L93.093 61.9072C91.9931 60.8073 90.5234 60.1559 88.9699 60.0796L88.6755 66.0723ZM88.494 66.1323C88.545 66.0905 88.6097 66.0691 88.6755 66.0723L88.9699 60.0796C87.4163 60.0033 85.8899 60.5076 84.6875 61.4944L88.494 66.1323ZM88.4177 66.1949L88.494 66.1323L84.6875 61.4944L84.6112 61.557L88.4177 66.1949ZM73.3733 81.2742L88.6368 65.9963L84.3921 61.7556L69.1286 77.0335L73.3733 81.2742ZM62.6129 74.7455L69.1275 81.273L73.3744 77.0346L66.8598 70.5071L62.6129 74.7455ZM62.7564 74.8823L62.8331 74.9453L66.6396 70.3073L66.5629 70.2444L62.7564 74.8823ZM62.5749 74.8223C62.6407 74.8191 62.7054 74.8405 62.7564 74.8823L66.5629 70.2444C65.3605 69.2576 63.8341 68.7533 62.2805 68.8296L62.5749 74.8223ZM62.4001 74.8998C62.4467 74.8532 62.509 74.8256 62.5749 74.8223L62.2805 68.8296C60.7269 68.9059 59.2573 69.5573 58.1574 70.6572L62.4001 74.8998ZM62.3226 75.0746C62.3258 75.0088 62.3534 74.9465 62.4001 74.8998L58.1574 70.6572C57.0576 71.7571 56.4061 73.2267 56.3298 74.7803L62.3226 75.0746ZM62.3826 75.2562C62.3407 75.2052 62.3194 75.1405 62.3226 75.0746L56.3298 74.7803C56.2535 76.3339 56.7578 77.8603 57.7446 79.0626L62.3826 75.2562ZM62.4449 75.3321L62.3826 75.2562L57.7446 79.0627L57.8069 79.1386L62.4449 75.3321ZM71.0893 83.9561L62.2472 75.114L58.0046 79.3567L66.8466 88.1987L71.0893 83.9561ZM71.0438 83.9113L71.0205 83.8894L66.9154 88.2653L66.9387 88.2872L71.0438 83.9113ZM71.2638 84C71.1819 83.9989 71.1034 83.9673 71.0437 83.9113L66.9387 88.2872C68.0901 89.3673 69.6037 89.978 71.1823 89.9995L71.2638 84ZM73.3739 79.8647L65.5142 71.99L61.2675 76.2286L69.1272 84.1033L73.3739 79.8647ZM73.3591 84.118L73.3594 84.1177L69.1416 79.8503L69.1413 79.8506L73.3591 84.118ZM61.2674 76.2285L69.1268 84.1035L73.3736 79.8651L65.5142 71.9901L61.2674 76.2285Z" fill="#19131F" mask="url(#path-9-outside-1_0_1)"/>
<g filter="url(#filter2_d_0_1)">
<path d="M40.587 56.0847C31.7788 57.0886 25.8136 59.9452 24.6143 64.4923C22.0661 74.153 41.9954 87.7859 69.1276 94.9424C96.2597 102.099 120.32 100.069 122.868 90.408C124.012 86.0719 120.628 80.9355 114.096 75.9438" stroke="url(#paint2_linear_0_1)"/>
</g>
<mask id="path-12-inside-2_0_1" fill="white">
<path d="M93.5014 51.8136C95.2142 51.4145 96.8831 51.0744 98.5 50.794L93.5014 51.8136Z"/>
</mask>
<path d="M122.48 55.6015C123.442 57.6752 123.166 60.2629 121.709 63.2391C120.253 66.2114 117.65 69.4979 114.098 72.895C106.998 79.6857 96.1912 86.8379 83.4991 92.7234L83.9198 93.6306C96.684 87.7116 107.591 80.5028 114.789 73.6177C118.387 70.1769 121.08 66.7968 122.607 63.6789C124.132 60.565 124.527 57.639 123.387 55.1808L122.48 55.6015ZM83.4991 92.7234C70.8088 98.6082 58.4899 102.094 48.842 102.986C44.0158 103.432 39.8863 103.226 36.7222 102.365C33.555 101.504 31.4246 100.009 30.4601 97.9289L29.5528 98.3496C30.6898 100.801 33.1411 102.428 36.4597 103.33C39.7814 104.234 44.0419 104.434 48.9341 103.982C58.7229 103.077 71.1539 99.5504 83.9198 93.6306L83.4991 92.7234ZM30.4601 97.9289C29.2825 95.3895 29.8963 92.0831 32.1981 88.2755C34.4905 84.4834 38.3968 80.3028 43.571 76.1057L42.941 75.3291C37.7176 79.5661 33.7165 83.8307 31.3423 87.7581C28.9775 91.6701 28.1654 95.3576 29.5528 98.3496L30.4601 97.9289ZM98.5854 51.2867C104.823 50.2049 110.247 50.0233 114.4 50.7609C118.567 51.5012 121.34 53.1428 122.48 55.6015L123.387 55.1808C122.044 52.2833 118.869 50.5392 114.574 49.7763C110.265 49.0109 104.715 49.2088 98.4146 50.3014L98.5854 51.2867ZM93.5014 51.8136L93.2745 50.8397L93.7013 52.7934L93.5014 51.8136ZM98.5 50.794L98.6999 51.7738L98.3291 49.8087L98.5 50.794ZM93.7283 52.7875C95.4236 52.3925 97.0738 52.0563 98.6709 51.7793L98.3291 49.8087C96.6923 50.0926 95.0047 50.4366 93.2745 50.8397L93.7283 52.7875ZM93.7013 52.7934L98.6999 51.7738L98.3001 49.8142L93.3015 50.8338L93.7013 52.7934Z" fill="url(#paint3_linear_0_1)" mask="url(#path-12-inside-2_0_1)"/>
<defs>
<filter id="filter0_i_0_1" x="0" y="0" width="149" height="153" filterUnits="userSpaceOnUse" color-interpolation-filters="sRGB">
<feFlood flood-opacity="0" result="BackgroundImageFix"/>
<feBlend mode="normal" in="SourceGraphic" in2="BackgroundImageFix" result="shape"/>
<feColorMatrix in="SourceAlpha" type="matrix" values="0 0 0 0 0 0 0 0 0 0 0 0 0 0 0 0 0 0 127 0" result="hardAlpha"/>
<feOffset dy="4"/>
<feGaussianBlur stdDeviation="4.5"/>
<feComposite in2="hardAlpha" operator="arithmetic" k2="-1" k3="1"/>
<feColorMatrix type="matrix" values="0 0 0 0 0 0 0 0 0 0 0 0 0 0 0 0 0 0 0.09 0"/>
<feBlend mode="normal" in2="shape" result="effect1_innerShadow_0_1"/>
</filter>
<filter id="filter1_d_0_1" x="26.875" y="49.3159" width="99.1689" height="58.8989" filterUnits="userSpaceOnUse" color-interpolation-filters="sRGB">
<feFlood flood-opacity="0" result="BackgroundImageFix"/>
<feColorMatrix in="SourceAlpha" type="matrix" values="0 0 0 0 0 0 0 0 0 0 0 0 0 0 0 0 0 0 127 0" result="hardAlpha"/>
<feOffset dy="2"/>
<feGaussianBlur stdDeviation="1"/>
<feComposite in2="hardAlpha" operator="out"/>
<feColorMatrix type="matrix" values="0 0 0 0 0 0 0 0 0 0 0 0 0 0 0 0 0 0 0.09 0"/>
<feBlend mode="normal" in2="BackgroundImageFix" result="effect1_dropShadow_0_1"/>
<feBlend mode="normal" in="SourceGraphic" in2="effect1_dropShadow_0_1" result="shape"/>
</filter>
<filter id="filter2_d_0_1" x="21.8945" y="55.5879" width="103.693" height="48.1326" filterUnits="userSpaceOnUse" color-interpolation-filters="sRGB">
<feFlood flood-opacity="0" result="BackgroundImageFix"/>
<feColorMatrix in="SourceAlpha" type="matrix" values="0 0 0 0 0 0 0 0 0 0 0 0 0 0 0 0 0 0 127 0" result="hardAlpha"/>
<feOffset dy="2"/>
<feGaussianBlur stdDeviation="1"/>
<feComposite in2="hardAlpha" operator="out"/>
<feColorMatrix type="matrix" values="0 0 0 0 0 0 0 0 0 0 0 0 0 0 0 0 0 0 0.09 0"/>
<feBlend mode="normal" in2="BackgroundImageFix" result="effect1_dropShadow_0_1"/>
<feBlend mode="normal" in="SourceGraphic" in2="effect1_dropShadow_0_1" result="shape"/>
</filter>
<linearGradient id="paint0_linear_0_1" x1="76.8458" y1="65.6815" x2="69.1279" y2="94.9425" gradientUnits="userSpaceOnUse">
<stop stop-color="#8B7EFF"/>
<stop offset="1" stop-color="#4335E3"/>
</linearGradient>
<linearGradient id="paint1_linear_0_1" x1="104.894" y1="83.3536" x2="85.7559" y2="52.2658" gradientUnits="userSpaceOnUse">
<stop stop-color="#EB5757"/>
<stop offset="1" stop-color="#FF8A00"/>
</linearGradient>
<linearGradient id="paint2_linear_0_1" x1="76.8536" y1="65.6505" x2="69.1276" y2="94.9424" gradientUnits="userSpaceOnUse">
<stop stop-color="#8B7EFF"/>
<stop offset="1" stop-color="#4335E3"/>
</linearGradient>
<linearGradient id="paint3_linear_0_1" x1="104.894" y1="83.3534" x2="84.9301" y2="51.2307" gradientUnits="userSpaceOnUse">
<stop stop-color="#EB5757"/>
<stop offset="1" stop-color="#FF8A00"/>
</linearGradient>
</defs>
</svg>
