<svg width="170" height="151" viewBox="0 0 170 151" fill="none" xmlns="http://www.w3.org/2000/svg">
<path d="M116.539 103.285C132.378 86.9019 131.936 60.7812 115.554 44.9427C99.1705 29.1042 73.0499 29.5455 57.2113 45.9285C41.3728 62.3115 41.8142 88.4322 58.1972 104.271C74.5802 120.109 100.701 119.668 116.539 103.285Z" fill="url(#paint0_linear_1_3769)"/>
<path style="mix-blend-mode:multiply" opacity="0.15" d="M107.947 110.026C113.473 106.746 118.155 102.218 121.619 96.806C125.083 91.3936 127.234 85.2462 127.9 78.8546C124.283 81.927 121.011 85.5235 117.53 88.7512C108.861 96.7818 98.0644 103.046 86.2957 104.14C80.0742 104.72 73.8652 103.81 67.7619 102.726C62.9582 101.848 58.1091 100.784 53.7934 98.4919C53.4984 98.3269 53.2007 98.1537 52.9111 97.9777C58.8465 106.591 67.833 112.627 78.0512 114.864C88.2695 117.101 98.956 115.372 107.947 110.026V110.026Z" fill="url(#paint1_linear_1_3769)"/>
<g style="mix-blend-mode:multiply">
<path d="M78.5484 114.762C87.5724 109.219 96.2415 103.117 104.505 96.4935C112.749 89.9525 120.58 82.9068 127.952 75.397C128.028 72.622 127.824 69.8464 127.345 67.1121C119.088 75.9688 110.17 84.1849 100.668 91.6895C92.4958 98.2508 83.9124 104.283 74.9707 109.75C73.6027 110.576 72.2836 111.358 70.989 112.104L70.612 112.315C73.1691 113.394 75.8279 114.213 78.5484 114.762V114.762Z" fill="url(#paint2_linear_1_3769)"/>
</g>
<path opacity="0.3" d="M143.354 30.4486C137.497 23.1995 117.945 32.9837 107.768 38.834C109.663 39.8977 111.463 41.1225 113.149 42.4949C118.256 39.6154 123.608 37.1938 129.143 35.2585C135.744 33.1087 138.184 33.8052 138.516 34.2141C140.204 36.3052 137.813 44.6445 124.908 59.2978C124.182 60.1241 123.423 60.9617 122.637 61.827C113.862 71.2128 104.362 79.8932 94.2239 87.7877C86.0157 94.2986 77.4192 100.304 68.4819 105.772C67.1138 106.598 65.7947 107.38 64.5055 108.114C43.9848 119.918 33.3758 120.89 31.4687 118.507C30.0523 116.754 33.9484 106.515 48.5159 90.1274C47.6206 88.045 46.9153 85.886 46.4084 83.6767C39.6026 91.0693 33.872 98.4148 30.1593 104.528C25.0006 113.036 23.8511 118.84 26.6424 122.305C34.0152 131.411 58.626 118.427 70.2243 111.531L70.9862 111.078L71.5023 110.763C80.6659 105.168 89.4804 99.0207 97.8967 92.3543C108.102 84.3844 117.681 75.6442 126.55 66.2105L127.018 65.7018C135.984 56.0471 149.926 38.6084 143.354 30.4486Z" fill="url(#paint3_linear_1_3769)"/>
<path opacity="0.3" d="M65.7599 39.0999C60.7911 42.049 56.4992 46.0116 53.1635 50.7296C49.8278 55.4475 47.5231 60.8151 46.3996 66.4829C47.1907 65.9003 48.0038 65.3284 48.8364 64.7866C55.1747 60.6632 62.5727 57.9472 70.1298 57.9464C71.6692 57.9422 73.2092 58.0203 74.7601 58.0764C74.6829 62.1108 78.9615 66.2499 83.4948 63.5515C84.6219 62.9396 85.4919 61.9434 85.9465 60.7442C86.4011 59.545 86.4102 58.2224 85.972 57.0171C86.4563 56.8513 86.9489 56.6827 87.4134 56.4319C92.3642 54.1511 96.4079 50.2772 98.8989 45.4287C100.381 42.3626 100.282 38.9663 100.653 35.6567C94.942 33.6264 88.8532 32.8823 82.8214 33.4775C76.7897 34.0727 70.9638 35.9925 65.7599 39.0999V39.0999Z" fill="url(#paint4_linear_1_3769)"/>
<path d="M107.905 57.6621C103.333 60.3828 107.551 67.5052 112.128 64.7735C116.705 62.0419 112.485 54.9387 107.905 57.6621Z" fill="url(#paint5_linear_1_3769)"/>
<path opacity="0.3" d="M91.3236 67.3928C91.0722 67.5723 90.8973 67.8397 90.8337 68.142C90.7701 68.4444 90.8224 68.7596 90.9802 69.0252C91.1381 69.2908 91.39 69.4874 91.6859 69.5761C91.9819 69.6647 92.3004 69.6389 92.5783 69.5038C92.8298 69.3243 93.0046 69.0569 93.0682 68.7545C93.1318 68.4522 93.0795 68.137 92.9217 67.8714C92.7638 67.6058 92.5119 67.4092 92.216 67.3205C91.92 67.2319 91.6015 67.2577 91.3236 67.3928V67.3928Z" fill="url(#paint6_linear_1_3769)"/>
<path opacity="0.3" d="M107.116 43.918C106.992 43.8199 106.848 43.7496 106.695 43.712C106.541 43.6744 106.381 43.6704 106.226 43.7002C106.06 43.7078 105.901 43.7624 105.766 43.8576L105.512 44.0545C105.364 44.2094 105.259 44.4003 105.207 44.6085L105.168 44.9244C105.182 45.1388 105.253 45.3457 105.373 45.5237L105.504 45.7449C105.582 45.89 105.696 46.0121 105.836 46.0989C105.954 46.2042 106.099 46.2752 106.255 46.3041C106.569 46.3776 106.9 46.3299 107.181 46.1703L107.443 45.9707C107.589 45.8141 107.694 45.6238 107.749 45.4166C107.757 45.3134 107.771 45.2107 107.79 45.109C107.775 44.8917 107.704 44.6822 107.582 44.5015L107.451 44.2802C107.374 44.1317 107.258 44.0067 107.116 43.918V43.918Z" fill="url(#paint7_linear_1_3769)"/>
<path opacity="0.3" d="M115.056 87.5802C114.802 87.7594 114.625 88.028 114.561 88.3322C114.496 88.6364 114.55 88.9537 114.709 89.2204C114.869 89.4871 115.124 89.6836 115.422 89.7704C115.721 89.8572 116.041 89.8279 116.319 89.6884C116.573 89.5092 116.75 89.2406 116.815 88.9364C116.879 88.6322 116.826 88.315 116.666 88.0482C116.506 87.7815 116.252 87.585 115.953 87.4982C115.655 87.4114 115.334 87.4407 115.056 87.5802V87.5802Z" fill="url(#paint8_linear_1_3769)"/>
<path opacity="0.3" d="M81.3259 87.2688C81.1739 87.1398 80.9921 87.0507 80.797 87.0097C80.6078 86.9483 80.4052 86.9413 80.2123 86.9897C80.0062 87.0006 79.8072 87.0688 79.6376 87.1865L79.3132 87.4443C79.1292 87.6344 78.9978 87.869 78.9318 88.1251L78.8828 88.5179C78.9021 88.7878 78.9912 89.0481 79.1414 89.2732L79.4001 89.7074C79.4974 89.8899 79.6417 90.0432 79.818 90.1513C79.9736 90.2736 80.1532 90.3616 80.3451 90.4097C80.5369 90.4578 80.7368 90.4649 80.9316 90.4304C81.1377 90.4195 81.3367 90.3514 81.5063 90.2337L81.8226 89.9787C82.0089 89.7904 82.1406 89.5551 82.204 89.2978C82.2221 89.1632 82.243 89.0368 82.2529 88.905C82.2514 88.6339 82.1792 88.3678 82.0436 88.1329L81.7849 87.6987C81.6696 87.5198 81.5119 87.3722 81.3259 87.2688V87.2688Z" fill="url(#paint9_linear_1_3769)"/>
<path opacity="0.3" d="M53.8565 69.965C53.527 70.1829 53.2942 70.5193 53.2063 70.9044C53.1184 71.2894 53.1823 71.6936 53.3846 72.0328C53.5869 72.372 53.9121 72.6203 54.2927 72.726C54.6732 72.8316 55.0799 72.7867 55.4281 72.6003C55.7576 72.3825 55.9904 72.0461 56.0783 71.661C56.1662 71.2759 56.1024 70.8718 55.9001 70.5326C55.6978 70.1933 55.3725 69.9451 54.9919 69.8394C54.6114 69.7337 54.2047 69.7787 53.8565 69.965V69.965Z" fill="url(#paint10_linear_1_3769)"/>
<path d="M87.0762 107.092C86.7467 107.31 86.5139 107.646 86.426 108.032C86.3381 108.417 86.402 108.821 86.6043 109.16C86.8066 109.499 87.1318 109.747 87.5124 109.853C87.893 109.959 88.2996 109.914 88.6479 109.728C88.9773 109.51 89.2102 109.173 89.2981 108.788C89.386 108.403 89.3221 107.999 89.1198 107.66C88.9175 107.321 88.5923 107.072 88.2117 106.967C87.8311 106.861 87.4245 106.906 87.0762 107.092Z" fill="url(#paint11_linear_1_3769)"/>
<path d="M108.857 109.449C112.482 107.173 115.728 104.344 118.479 101.065C117.451 100.463 116.276 100.16 115.086 100.19C113.895 100.22 112.737 100.582 111.741 101.235C110.332 102.008 109.258 103.274 108.726 104.79C108.194 106.306 108.241 107.965 108.857 109.449V109.449Z" fill="url(#paint12_linear_1_3769)"/>
<defs>
<linearGradient id="paint0_linear_1_3769" x1="-8.19787" y1="58.9528" x2="114.209" y2="79.0515" gradientUnits="userSpaceOnUse">
<stop offset="0.01" stop-color="#B464BE"/>
<stop offset="0.99" stop-color="#712BE2"/>
</linearGradient>
<linearGradient id="paint1_linear_1_3769" x1="103.421" y1="113.184" x2="97.0318" y2="98.0203" gradientUnits="userSpaceOnUse">
<stop offset="0.01" stop-color="#B464BE"/>
<stop offset="0.99" stop-color="#712BE2"/>
</linearGradient>
<linearGradient id="paint2_linear_1_3769" x1="101.246" y1="87.4738" x2="105.769" y2="93.2987" gradientUnits="userSpaceOnUse">
<stop offset="0.01" stop-color="#B464BE"/>
<stop offset="0.99" stop-color="white" stop-opacity="0.15"/>
</linearGradient>
<linearGradient id="paint3_linear_1_3769" x1="23.1078" y1="111.473" x2="149.762" y2="35.3926" gradientUnits="userSpaceOnUse">
<stop offset="0.01" stop-color="#DDDFFD"/>
<stop offset="0.99" stop-color="#9181FA"/>
</linearGradient>
<linearGradient id="paint4_linear_1_3769" x1="47.8912" y1="63.999" x2="101.471" y2="31.8142" gradientUnits="userSpaceOnUse">
<stop offset="0.01" stop-color="#DDDFFD"/>
<stop offset="0.99" stop-color="#9181FA"/>
</linearGradient>
<linearGradient id="paint5_linear_1_3769" x1="115.418" y1="24.6442" x2="111.058" y2="56.1462" gradientUnits="userSpaceOnUse">
<stop offset="0.01" stop-color="#B464BE"/>
<stop offset="0.99" stop-color="#712BE2"/>
</linearGradient>
<linearGradient id="paint6_linear_1_3769" x1="91.8146" y1="65.1696" x2="93.8498" y2="63.9471" gradientUnits="userSpaceOnUse">
<stop offset="0.01" stop-color="#DDDFFD"/>
<stop offset="0.99" stop-color="#9181FA"/>
</linearGradient>
<linearGradient id="paint7_linear_1_3769" x1="106.21" y1="41.6397" x2="108.327" y2="40.3678" gradientUnits="userSpaceOnUse">
<stop offset="0.01" stop-color="#DDDFFD"/>
<stop offset="0.99" stop-color="#9181FA"/>
</linearGradient>
<linearGradient id="paint8_linear_1_3769" x1="115.695" y1="85.2975" x2="117.73" y2="84.0749" gradientUnits="userSpaceOnUse">
<stop offset="0.01" stop-color="#DDDFFD"/>
<stop offset="0.99" stop-color="#9181FA"/>
</linearGradient>
<linearGradient id="paint9_linear_1_3769" x1="80.1738" y1="85.7157" x2="82.8129" y2="84.1304" gradientUnits="userSpaceOnUse">
<stop offset="0.01" stop-color="#DDDFFD"/>
<stop offset="0.99" stop-color="#9181FA"/>
</linearGradient>
<linearGradient id="paint10_linear_1_3769" x1="54.1761" y1="68.3298" x2="56.7257" y2="66.7983" gradientUnits="userSpaceOnUse">
<stop offset="0.01" stop-color="#DDDFFD"/>
<stop offset="0.99" stop-color="#9181FA"/>
</linearGradient>
<linearGradient id="paint11_linear_1_3769" x1="41.0066" y1="56.2152" x2="85.99" y2="101.681" gradientUnits="userSpaceOnUse">
<stop offset="0.01" stop-color="#B464BE"/>
<stop offset="0.99" stop-color="#712BE2"/>
</linearGradient>
<linearGradient id="paint12_linear_1_3769" x1="108.1" y1="88.9875" x2="115.776" y2="103.236" gradientUnits="userSpaceOnUse">
<stop offset="0.01" stop-color="#B464BE"/>
<stop offset="0.99" stop-color="#712BE2"/>
</linearGradient>
</defs>
</svg>
