<svg width="104" height="106" viewBox="0 0 104 106" fill="none" xmlns="http://www.w3.org/2000/svg">
<path d="M52.0167 105.505C80.7264 105.505 104 81.8868 104 52.7524C104 23.6181 80.7264 0 52.0167 0C23.307 0 0.0332031 23.6181 0.0332031 52.7524C0.0332031 81.8868 23.307 105.505 52.0167 105.505Z" fill="url(#paint0_linear_1_3737)"/>
<path style="mix-blend-mode:multiply" opacity="0.15" d="M72.3971 4.20764C69.1752 5.0337 66.063 6.2501 63.1274 7.83061C56.8516 11.3724 52.1608 17.1886 46.4293 21.5914C43.8337 23.7427 40.7984 25.28 37.544 26.0917C33.3974 26.9528 29.1389 25.9942 24.9603 25.3769C19.1615 24.4041 13.2401 24.4646 7.46174 25.5556C2.59207 33.7599 0.0234521 43.1583 0.0332309 52.736C0.0332309 54.1982 0.0332319 55.6604 0.209339 57.0901C3.54083 55.7428 6.7542 54.1124 9.81516 52.2161C17.1636 47.7483 24.5921 42.5819 33.1253 41.9321C42.2668 41.2497 51.9527 45.8475 60.3418 42.062C63.2926 40.5589 65.9165 38.4707 68.0584 35.9208C73.0695 30.5108 77.264 24.3533 82.147 18.8133C83.6957 17.0467 85.3363 15.3655 87.062 13.7768C82.7449 9.7648 77.7856 6.52874 72.3971 4.20764Z" fill="url(#paint1_linear_1_3737)"/>
<path opacity="0.3" d="M103.281 44.1742C101.831 35.2369 98.1365 26.8292 92.5544 19.7615C86.9724 12.6937 79.6905 7.20411 71.4106 3.82161C63.1307 0.439113 54.1319 -0.722234 45.2813 0.449482C36.4306 1.6212 28.0266 5.08648 20.8789 10.5114C21.055 10.5114 21.2311 10.5114 21.4072 10.6089C24.0718 11.1125 26.6826 11.8741 29.204 12.8834C31.7269 13.8483 34.1506 15.0617 36.4403 16.5064C36.9847 16.853 37.5183 17.2104 38.0413 17.5786C50.9931 26.7417 58.9179 43.0207 73.7109 48.6257C78.0399 50.2018 82.6549 50.8032 87.2359 50.388C91.8168 49.9727 96.2538 48.5509 100.239 46.2212C101.3 45.614 102.317 44.9298 103.281 44.1742Z" fill="url(#paint2_linear_1_3737)"/>
<path d="M32.8367 6.97091C33.2888 6.97091 33.7363 6.88054 34.154 6.70496C34.5716 6.52939 34.951 6.27204 35.2707 5.94762C35.5903 5.62319 35.8438 5.23804 36.0168 4.81416C36.1898 4.39028 36.2788 3.93597 36.2788 3.47717C36.2751 3.15637 36.221 2.83822 36.1187 2.53467C33.9292 3.22926 31.7895 4.07627 29.7148 5.06966C30.0081 5.6511 30.456 6.13746 31.0079 6.47352C31.5597 6.80959 32.1933 6.9819 32.8367 6.97091Z" fill="#DDDFFD"/>
<path style="mix-blend-mode:multiply" opacity="0.15" d="M103.76 57.5774C101.006 61.1192 98.2204 64.6284 95.2266 67.959C87.622 76.4071 78.4485 83.913 67.5619 86.8699C56.0829 90.0055 43.7074 87.7635 32.7408 83.1169C26.2683 80.6192 20.3994 76.741 15.5304 71.7444C8.82229 64.271 5.62035 54.0032 5.10804 43.8654C4.92941 38.3797 5.36445 32.8913 6.40482 27.5051C2.68791 34.3826 0.529123 42.0146 0.0856388 49.8456C-0.357846 57.6765 0.925133 65.5093 3.84117 72.7735C6.7572 80.0378 11.2329 86.5508 16.9424 91.8382C22.6518 97.1256 29.4514 101.054 36.8459 103.339C44.2405 105.623 52.0439 106.205 59.6881 105.042C67.3323 103.879 74.6248 101.002 81.0346 96.6181C87.4445 92.2345 92.8103 86.4555 96.7416 79.7019C100.673 72.9483 103.07 65.39 103.76 57.5774Z" fill="url(#paint3_linear_1_3737)"/>
<path style="mix-blend-mode:multiply" opacity="0.15" d="M50.7528 99.6885C50.0736 99.6841 49.4011 99.8259 48.7798 100.105C48.1585 100.383 47.6026 100.793 47.1487 101.306C46.6948 101.819 46.3532 102.424 46.1466 103.08C45.9399 103.737 45.8729 104.431 45.9499 105.116C47.9748 105.354 50.0111 105.479 52.0496 105.49C53.2663 105.49 54.4671 105.49 55.6678 105.344C55.782 104.631 55.739 103.903 55.5421 103.209C55.3452 102.516 54.9992 101.876 54.529 101.335C54.0588 100.794 53.4762 100.366 52.8232 100.081C52.1702 99.7964 51.4631 99.6623 50.7528 99.6885Z" fill="url(#paint4_linear_1_3737)"/>
<g style="mix-blend-mode:overlay" opacity="0.2">
<path d="M68.8272 25.2802C68.8272 25.9461 68.6324 26.5971 68.2676 27.1506C67.9027 27.7042 67.3842 28.1353 66.7777 28.3894C66.1712 28.6435 65.5041 28.7092 64.8608 28.578C64.2175 28.4469 63.627 28.1249 63.1642 27.6529C62.7014 27.1808 62.387 26.58 62.261 25.9264C62.1349 25.2728 62.2028 24.596 62.4561 23.9816C62.7094 23.3673 63.1366 22.843 63.6837 22.4754C64.2308 22.1077 64.8731 21.9132 65.5292 21.9164C65.9637 21.9164 66.3939 22.0035 66.795 22.1728C67.1962 22.342 67.5605 22.5901 67.867 22.9026C68.1734 23.2152 68.416 23.5861 68.5808 23.9941C68.7456 24.4022 68.8293 24.8392 68.8272 25.2802Z" fill="url(#paint5_linear_1_3737)"/>
<path opacity="0.3" d="M63.2545 27.6528C62.7948 27.184 62.4822 26.5875 62.3562 25.9386C62.2302 25.2897 62.2964 24.6174 62.5464 24.0066C62.7965 23.3958 63.2192 22.874 63.7613 22.5068C64.3033 22.1397 64.9403 21.9437 65.5919 21.9437C66.2436 21.9437 66.8806 22.1397 67.4226 22.5068C67.9647 22.874 68.3874 23.3958 68.6374 24.0066C68.8875 24.6174 68.9537 25.2897 68.8277 25.9386C68.7017 26.5875 68.3891 27.184 67.9294 27.6528C67.6229 27.9653 67.2587 28.2132 66.8576 28.3824C66.4564 28.5516 66.0263 28.6387 65.5919 28.6387C65.1576 28.6387 64.7275 28.5516 64.3263 28.3824C63.9252 28.2132 63.561 27.9653 63.2545 27.6528V27.6528Z" stroke="url(#paint6_linear_1_3737)" stroke-width="0.324999" stroke-miterlimit="10"/>
</g>
<path d="M54.0031 54.8488C53.9999 55.3302 53.8564 55.7998 53.5906 56.1985C53.3248 56.5972 52.9486 56.9071 52.5096 57.0891C52.0705 57.2711 51.5881 57.3171 51.1234 57.2212C50.6586 57.1253 50.2322 56.8919 49.8979 56.5503C49.5637 56.2088 49.3366 55.7745 49.2452 55.3021C49.1538 54.8297 49.2023 54.3405 49.3845 53.896C49.5667 53.4516 49.8745 53.0718 50.2691 52.8047C50.6637 52.5376 51.1273 52.395 51.6016 52.395C51.9183 52.395 52.2319 52.4586 52.5243 52.5821C52.8167 52.7056 53.0822 52.8866 53.3054 53.1147C53.5286 53.3427 53.7051 53.6134 53.8249 53.911C53.9446 54.2086 54.0052 54.5273 54.0031 54.8488Z" fill="url(#paint7_linear_1_3737)"/>
<path opacity="0.3" d="M51.6016 57.2861C52.9279 57.2861 54.0031 56.1948 54.0031 54.8486C54.0031 53.5024 52.9279 52.4111 51.6016 52.4111C50.2754 52.4111 49.2002 53.5024 49.2002 54.8486C49.2002 56.1948 50.2754 57.2861 51.6016 57.2861Z" fill="url(#paint8_linear_1_3737)"/>
<path style="mix-blend-mode:multiply" opacity="0.32" d="M91.6566 20.7627L91.8007 20.5677L91.9768 20.324C92.0307 20.2465 92.0788 20.165 92.1209 20.0803L92.265 19.8529C92.309 19.7693 92.3465 19.6824 92.3771 19.5929C90.1951 16.8562 87.7495 14.3473 85.0767 12.1033H84.9806L84.7244 12.217L84.5003 12.347L84.2602 12.5094L84.02 12.6719L83.8279 12.8344C83.6813 12.9497 83.5423 13.0745 83.4116 13.208L83.0434 13.6142L82.8993 13.8092L82.7232 14.0529L82.5791 14.2966L82.4671 14.5078C82.4671 14.5078 82.387 14.6865 82.339 14.7677L82.2269 15.0114C82.2269 15.0926 82.2269 15.1739 82.2269 15.2713L82.1309 15.5313C82.1236 15.6178 82.1236 15.7047 82.1309 15.7912C82.1218 15.8831 82.1218 15.9756 82.1309 16.0674C82.1219 16.1701 82.1219 16.2734 82.1309 16.3761C82.122 16.4517 82.122 16.528 82.1309 16.6036C82.1309 16.7985 82.1309 16.9772 82.1309 17.1722C82.1309 17.3671 82.1309 17.5459 82.1309 17.7246C82.1231 17.8056 82.1231 17.8872 82.1309 17.9683C82.1232 18.0656 82.1232 18.1634 82.1309 18.2607C82.1218 18.3525 82.1218 18.4451 82.1309 18.5369C82.1217 18.6233 82.1217 18.7104 82.1309 18.7968L82.2269 19.073V19.3167L82.339 19.5604C82.339 19.6417 82.339 19.7391 82.4671 19.8204C82.5037 19.8996 82.5465 19.9756 82.5952 20.0478L82.7392 20.2915L82.9153 20.5352L83.0594 20.7302L83.4277 21.1526L83.8439 21.51L84.036 21.6725L84.2762 21.8512L84.5163 21.9974L84.7404 22.1274L84.9966 22.2573L85.2368 22.3711L85.4769 22.4523L85.7491 22.5498H86.0052H86.2774H86.5656H86.8057H87.35H87.9104H88.1345H88.4387H88.7109H88.967L89.2232 22.4523L89.4793 22.3711L89.7195 22.2573L89.9756 22.1274L90.1998 21.9974L90.4399 21.8512L90.68 21.6725L90.8722 21.51L91.2724 21.1526C91.4165 21.0064 91.5446 20.9089 91.6566 20.7627Z" fill="url(#paint9_linear_1_3737)"/>
<path d="M29.764 72.3619C34.5298 72.3619 38.3932 68.4413 38.3932 63.605C38.3932 58.7687 34.5298 54.8481 29.764 54.8481C24.9982 54.8481 21.1348 58.7687 21.1348 63.605C21.1348 68.4413 24.9982 72.3619 29.764 72.3619Z" fill="url(#paint10_linear_1_3737)"/>
<path opacity="0.3" d="M23.6641 69.7464C22.459 68.521 21.6388 66.9607 21.3072 65.2625C20.9756 63.5643 21.1474 61.8044 21.801 60.2053C22.4547 58.6062 23.5607 57.2396 24.9794 56.2781C26.3981 55.3166 28.0658 54.8035 29.7718 54.8035C31.4778 54.8035 33.1455 55.3166 34.5642 56.2781C35.9829 57.2396 37.089 58.6062 37.7426 60.2053C38.3962 61.8044 38.568 63.5643 38.2364 65.2625C37.9048 66.9607 37.0847 68.521 35.8795 69.7464C35.0791 70.5633 34.1274 71.2115 33.0792 71.6539C32.031 72.0963 30.907 72.324 29.7718 72.324C28.6366 72.324 27.5126 72.0963 26.4644 71.6539C25.4162 71.2115 24.4645 70.5633 23.6641 69.7464Z" fill="url(#paint11_linear_1_3737)"/>
<g style="mix-blend-mode:multiply">
<path d="M77.7764 62.7448C77.7764 63.3201 77.6083 63.8825 77.2934 64.3608C76.9785 64.8392 76.531 65.212 76.0073 65.4321C75.4837 65.6523 74.9075 65.7099 74.3516 65.5977C73.7957 65.4854 73.2851 65.2084 72.8843 64.8016C72.4835 64.3948 72.2106 63.8765 72.1 63.3123C71.9894 62.748 72.0462 62.1632 72.2631 61.6317C72.48 61.1002 72.8473 60.6459 73.3185 60.3263C73.7898 60.0067 74.3439 59.8361 74.9107 59.8361C75.6707 59.8361 76.3996 60.1425 76.937 60.688C77.4745 61.2335 77.7764 61.9734 77.7764 62.7448Z" fill="url(#paint12_linear_1_3737)"/>
<path opacity="0.3" d="M72.8618 64.8736C72.463 64.466 72.192 63.9477 72.083 63.384C71.9739 62.8203 72.0318 62.2365 72.2493 61.7061C72.4668 61.1758 72.8341 60.7226 73.3049 60.4039C73.7758 60.0851 74.3291 59.915 74.895 59.915C75.461 59.915 76.0143 60.0851 76.4851 60.4039C76.956 60.7226 77.3233 61.1758 77.5408 61.7061C77.7582 62.2365 77.8161 62.8203 77.7071 63.384C77.5981 63.9477 77.3271 64.466 76.9283 64.8736C76.6619 65.1458 76.3451 65.3618 75.9962 65.5092C75.6472 65.6566 75.273 65.7325 74.895 65.7325C74.5171 65.7325 74.1428 65.6566 73.7939 65.5092C73.4449 65.3618 73.1282 65.1458 72.8618 64.8736Z" fill="url(#paint13_linear_1_3737)"/>
</g>
<path d="M26.465 36.1989C28.2864 36.1989 29.763 34.7002 29.763 32.8514C29.763 31.0026 28.2864 29.5039 26.465 29.5039C24.6436 29.5039 23.167 31.0026 23.167 32.8514C23.167 34.7002 24.6436 36.1989 26.465 36.1989Z" fill="url(#paint14_linear_1_3737)"/>
<path opacity="0.3" d="M26.465 36.1989C28.2864 36.1989 29.763 34.7002 29.763 32.8514C29.763 31.0026 28.2864 29.5039 26.465 29.5039C24.6436 29.5039 23.167 31.0026 23.167 32.8514C23.167 34.7002 24.6436 36.1989 26.465 36.1989Z" stroke="url(#paint15_linear_1_3737)" stroke-width="0.324999" stroke-miterlimit="10"/>
<path style="mix-blend-mode:multiply" opacity="0.15" d="M97.2598 71.2243C97.2599 72.8434 97.8273 74.4098 98.8607 75.6434C100.539 72.095 101.822 68.3677 102.687 64.5308C101.158 64.8357 99.7814 65.6698 98.7915 66.8907C97.8016 68.1115 97.2602 69.6433 97.2598 71.2243Z" fill="url(#paint16_linear_1_3737)"/>
<path style="mix-blend-mode:multiply" opacity="0.15" d="M101.952 38.0654C100.623 38.4553 99.3102 38.894 98.0134 39.4139C91.9165 41.6802 86.6485 45.7846 82.9163 51.1764C80.4988 54.8806 79.0099 59.2996 76.0001 62.5489C72.526 66.2856 67.515 68.0565 62.648 69.4212C53.4425 72.0207 43.8687 73.7915 35.4315 78.3405C32.798 79.7661 30.3418 81.506 28.1151 83.5232C24.6891 86.5471 22.0405 90.3724 20.3984 94.6683C26.3176 99.2943 33.1568 102.559 40.4426 104.237C41.9495 100.733 44.1345 97.5709 46.8681 94.9393C49.6017 92.3076 52.8281 90.2597 56.3562 88.917C60.999 87.2924 65.962 86.805 70.7649 85.1153C72.1998 84.6602 73.5363 83.9324 74.7033 82.9708C76.1629 81.489 77.3263 79.7346 78.1294 77.8044C83.5247 66.8868 90.0886 55.4492 101.087 50.494C102.022 50.0736 102.979 49.7049 103.953 49.3893C103.697 45.5516 103.026 41.7542 101.952 38.0654Z" fill="url(#paint17_linear_1_3737)"/>
<defs>
<linearGradient id="paint0_linear_1_3737" x1="100.398" y1="149.777" x2="4.63066" y2="-36.7376" gradientUnits="userSpaceOnUse">
<stop offset="0.01" stop-color="#712BE2"/>
<stop offset="0.99" stop-color="white"/>
</linearGradient>
<linearGradient id="paint1_linear_1_3737" x1="0.0332309" y1="30.6407" x2="87.0299" y2="30.6407" gradientUnits="userSpaceOnUse">
<stop offset="0.01" stop-color="#712BE2"/>
<stop offset="0.99" stop-color="white"/>
</linearGradient>
<linearGradient id="paint2_linear_1_3737" x1="20.8789" y1="25.2795" x2="103.297" y2="25.2795" gradientUnits="userSpaceOnUse">
<stop offset="0.01" stop-color="#9181FA"/>
<stop offset="0.99" stop-color="white"/>
</linearGradient>
<linearGradient id="paint3_linear_1_3737" x1="51.1359" y1="11.2261" x2="52.7681" y2="102.823" gradientUnits="userSpaceOnUse">
<stop offset="0.01" stop-color="#712BE2"/>
<stop offset="0.99" stop-color="white"/>
</linearGradient>
<linearGradient id="paint4_linear_1_3737" x1="50.5767" y1="102.305" x2="38.8184" y2="-59.5525" gradientUnits="userSpaceOnUse">
<stop offset="0.01" stop-color="#722CE2"/>
<stop offset="0.15" stop-color="#9763EA"/>
<stop offset="0.3" stop-color="#B793F0"/>
<stop offset="0.45" stop-color="#D1BAF6"/>
<stop offset="0.59" stop-color="#E5D8FA"/>
<stop offset="0.73" stop-color="#F3EEFD"/>
<stop offset="0.86" stop-color="#FCFBFE"/>
<stop offset="0.99" stop-color="white"/>
</linearGradient>
<linearGradient id="paint5_linear_1_3737" x1="62.7596" y1="16.1639" x2="68.8135" y2="35.5482" gradientUnits="userSpaceOnUse">
<stop offset="0.01" stop-color="#722CE2"/>
<stop offset="0.15" stop-color="#9763EA"/>
<stop offset="0.3" stop-color="#B793F0"/>
<stop offset="0.45" stop-color="#D1BAF6"/>
<stop offset="0.59" stop-color="#E5D8FA"/>
<stop offset="0.73" stop-color="#F3EEFD"/>
<stop offset="0.86" stop-color="#FCFBFE"/>
<stop offset="0.99" stop-color="white"/>
</linearGradient>
<linearGradient id="paint6_linear_1_3737" x1="67.9698" y1="22.765" x2="62.9949" y2="27.6662" gradientUnits="userSpaceOnUse">
<stop offset="0.01" stop-color="white"/>
<stop offset="0.99" stop-color="white" stop-opacity="0"/>
</linearGradient>
<linearGradient id="paint7_linear_1_3737" x1="43.6128" y1="45.6675" x2="71.5289" y2="76.7472" gradientUnits="userSpaceOnUse">
<stop offset="0.01" stop-color="#722CE2"/>
<stop offset="0.15" stop-color="#9763EA"/>
<stop offset="0.3" stop-color="#B793F0"/>
<stop offset="0.45" stop-color="#D1BAF6"/>
<stop offset="0.59" stop-color="#E5D8FA"/>
<stop offset="0.73" stop-color="#F3EEFD"/>
<stop offset="0.86" stop-color="#FCFBFE"/>
<stop offset="0.99" stop-color="white"/>
</linearGradient>
<linearGradient id="paint8_linear_1_3737" x1="43.6128" y1="45.6674" x2="71.529" y2="76.7471" gradientUnits="userSpaceOnUse">
<stop offset="0.01" stop-color="#722CE2"/>
<stop offset="0.15" stop-color="#9763EA"/>
<stop offset="0.3" stop-color="#B793F0"/>
<stop offset="0.45" stop-color="#D1BAF6"/>
<stop offset="0.59" stop-color="#E5D8FA"/>
<stop offset="0.73" stop-color="#F3EEFD"/>
<stop offset="0.86" stop-color="#FCFBFE"/>
<stop offset="0.99" stop-color="white"/>
</linearGradient>
<linearGradient id="paint9_linear_1_3737" x1="89.3032" y1="27.0013" x2="86.3086" y2="16.0245" gradientUnits="userSpaceOnUse">
<stop offset="0.01" stop-color="#9181FA"/>
<stop offset="0.99" stop-color="white"/>
</linearGradient>
<linearGradient id="paint10_linear_1_3737" x1="24.3847" y1="50.3479" x2="50.3218" y2="112.385" gradientUnits="userSpaceOnUse">
<stop offset="0.01" stop-color="#722CE2"/>
<stop offset="0.15" stop-color="#9763EA"/>
<stop offset="0.3" stop-color="#B793F0"/>
<stop offset="0.45" stop-color="#D1BAF6"/>
<stop offset="0.59" stop-color="#E5D8FA"/>
<stop offset="0.73" stop-color="#F3EEFD"/>
<stop offset="0.86" stop-color="#FCFBFE"/>
<stop offset="0.99" stop-color="white"/>
</linearGradient>
<linearGradient id="paint11_linear_1_3737" x1="24.3845" y1="66.4808" x2="50.3216" y2="128.518" gradientUnits="userSpaceOnUse">
<stop offset="0.01" stop-color="#722CE2"/>
<stop offset="0.15" stop-color="#9763EA"/>
<stop offset="0.3" stop-color="#B793F0"/>
<stop offset="0.45" stop-color="#D1BAF6"/>
<stop offset="0.59" stop-color="#E5D8FA"/>
<stop offset="0.73" stop-color="#F3EEFD"/>
<stop offset="0.86" stop-color="#FCFBFE"/>
<stop offset="0.99" stop-color="white"/>
</linearGradient>
<linearGradient id="paint12_linear_1_3737" x1="73.3577" y1="56.4236" x2="75.8109" y2="66.0914" gradientUnits="userSpaceOnUse">
<stop offset="0.01" stop-color="#722CE2"/>
<stop offset="0.15" stop-color="#9763EA"/>
<stop offset="0.3" stop-color="#B793F0"/>
<stop offset="0.45" stop-color="#D1BAF6"/>
<stop offset="0.59" stop-color="#E5D8FA"/>
<stop offset="0.73" stop-color="#F3EEFD"/>
<stop offset="0.86" stop-color="#FCFBFE"/>
<stop offset="0.99" stop-color="white"/>
</linearGradient>
<linearGradient id="paint13_linear_1_3737" x1="73.3581" y1="56.4236" x2="75.8113" y2="66.0914" gradientUnits="userSpaceOnUse">
<stop offset="0.01" stop-color="#722CE2"/>
<stop offset="0.15" stop-color="#9763EA"/>
<stop offset="0.3" stop-color="#B793F0"/>
<stop offset="0.45" stop-color="#D1BAF6"/>
<stop offset="0.59" stop-color="#E5D8FA"/>
<stop offset="0.73" stop-color="#F3EEFD"/>
<stop offset="0.86" stop-color="#FCFBFE"/>
<stop offset="0.99" stop-color="white"/>
</linearGradient>
<linearGradient id="paint14_linear_1_3737" x1="26.465" y1="23.5889" x2="26.465" y2="46.0139" gradientUnits="userSpaceOnUse">
<stop offset="0.01" stop-color="#722CE2"/>
<stop offset="0.15" stop-color="#9763EA"/>
<stop offset="0.3" stop-color="#B793F0"/>
<stop offset="0.45" stop-color="#D1BAF6"/>
<stop offset="0.59" stop-color="#E5D8FA"/>
<stop offset="0.73" stop-color="#F3EEFD"/>
<stop offset="0.86" stop-color="#FCFBFE"/>
<stop offset="0.99" stop-color="white"/>
</linearGradient>
<linearGradient id="paint15_linear_1_3737" x1="28.9032" y1="30.3358" x2="23.9399" y2="35.2258" gradientUnits="userSpaceOnUse">
<stop offset="0.01" stop-color="white"/>
<stop offset="0.99" stop-color="white" stop-opacity="0"/>
</linearGradient>
<linearGradient id="paint16_linear_1_3737" x1="102.127" y1="98.5672" x2="90.3569" y2="-63.2559" gradientUnits="userSpaceOnUse">
<stop offset="0.01" stop-color="#722CE2"/>
<stop offset="0.15" stop-color="#9763EA"/>
<stop offset="0.3" stop-color="#B793F0"/>
<stop offset="0.45" stop-color="#D1BAF6"/>
<stop offset="0.59" stop-color="#E5D8FA"/>
<stop offset="0.73" stop-color="#F3EEFD"/>
<stop offset="0.86" stop-color="#FCFBFE"/>
<stop offset="0.99" stop-color="white"/>
</linearGradient>
<linearGradient id="paint17_linear_1_3737" x1="20.3984" y1="71.1271" x2="103.873" y2="71.1271" gradientUnits="userSpaceOnUse">
<stop offset="0.01" stop-color="#712BE2"/>
<stop offset="0.99" stop-color="white"/>
</linearGradient>
</defs>
</svg>
