<svg width="175" height="178" viewBox="0 0 175 178" fill="none" xmlns="http://www.w3.org/2000/svg">
<g filter="url(#filter0_d_1_3658)">
<g opacity="0.88">
<g opacity="0.03">
<path d="M156.101 52.8897C156.078 52.907 156.06 52.9289 156.047 52.9538C156.034 52.9787 156.027 53.0061 156.025 53.034C156.024 53.0619 156.029 53.0897 156.039 53.1156C156.05 53.1414 156.065 53.1645 156.086 53.1835C156.106 53.2024 156.13 53.2167 156.157 53.2253C156.183 53.2339 156.211 53.2366 156.239 53.2332C156.267 53.2299 156.294 53.2206 156.318 53.2059C156.342 53.1913 156.362 53.1716 156.378 53.1483C156.404 53.11 156.415 53.0639 156.41 53.0183C156.405 52.9727 156.384 52.9305 156.351 52.8993C156.317 52.8682 156.274 52.8501 156.228 52.8483C156.182 52.8466 156.137 52.8612 156.101 52.8897Z" fill="white"/>
</g>
<g opacity="0.04">
<path d="M134.325 37.1293C134.247 37.212 134.195 37.316 134.175 37.4281C134.156 37.5401 134.17 37.6552 134.216 37.7588C134.262 37.8623 134.338 37.9495 134.434 38.0095C134.53 38.0694 134.642 38.0994 134.755 38.0955C134.869 38.0916 134.979 38.0541 135.071 37.9876C135.164 37.9212 135.235 37.8289 135.275 37.7224C135.316 37.616 135.324 37.5001 135.298 37.3896C135.273 37.2791 135.215 37.1788 135.132 37.1016C135.022 36.9989 134.875 36.9441 134.724 36.9493C134.573 36.9545 134.43 37.0192 134.325 37.1293Z" fill="white"/>
</g>
<g opacity="0.03">
<path d="M132.453 45.9507C132.411 45.9962 132.383 46.0531 132.373 46.1143C132.363 46.1755 132.371 46.2381 132.396 46.2944C132.422 46.3507 132.463 46.398 132.516 46.4304C132.568 46.4629 132.629 46.4789 132.691 46.4765C132.753 46.4741 132.813 46.4534 132.863 46.4171C132.914 46.3807 132.952 46.3303 132.974 46.2722C132.996 46.2141 133 46.1509 132.986 46.0906C132.973 46.0304 132.941 45.9758 132.896 45.9337C132.866 45.9057 132.831 45.884 132.792 45.8698C132.754 45.8555 132.713 45.849 132.672 45.8505C132.631 45.8521 132.59 45.8618 132.553 45.879C132.515 45.8962 132.482 45.9205 132.453 45.9507Z" fill="white"/>
</g>
<g opacity="0.04">
<path d="M135.428 35.0871C135.348 35.1731 135.295 35.2808 135.276 35.3966C135.256 35.5123 135.272 35.631 135.32 35.7375C135.368 35.844 135.447 35.9335 135.546 35.9949C135.646 36.0562 135.761 36.0865 135.878 36.082C135.995 36.0775 136.109 36.0384 136.204 35.9695C136.3 35.9007 136.373 35.8053 136.414 35.6954C136.455 35.5854 136.463 35.4659 136.437 35.3519C136.411 35.2379 136.351 35.1345 136.266 35.0549C136.209 35.0014 136.143 34.9598 136.07 34.9324C135.997 34.905 135.919 34.8925 135.841 34.8955C135.763 34.8985 135.687 34.917 135.616 34.9499C135.545 34.9828 135.481 35.0294 135.428 35.0871Z" fill="white"/>
</g>
<g opacity="0.1">
<path d="M97.2833 60.7056C97.2715 60.7182 97.2636 60.734 97.2607 60.751C97.2578 60.768 97.2599 60.7854 97.2669 60.8009C97.2739 60.8165 97.2853 60.8295 97.2998 60.8385C97.3143 60.8474 97.3312 60.8517 97.3484 60.8509C97.3655 60.8502 97.3821 60.8444 97.3962 60.8342C97.4102 60.824 97.4209 60.81 97.4271 60.7939C97.4333 60.7777 97.4345 60.7602 97.4307 60.7435C97.427 60.7268 97.4183 60.7117 97.4059 60.7001C97.3892 60.6846 97.3669 60.6764 97.3439 60.6774C97.3209 60.6785 97.2991 60.6886 97.2833 60.7056Z" fill="white"/>
</g>
<g opacity="0.1">
<path d="M92.8108 55.1451C92.7761 55.1127 92.7747 55.0578 92.8077 55.0224C92.8407 54.9871 92.8956 54.9847 92.9303 55.017C92.965 55.0494 92.9664 55.1044 92.9334 55.1397C92.9004 55.1751 92.8456 55.1775 92.8108 55.1451Z" fill="white"/>
</g>
<g opacity="0.06">
<path d="M120.949 84.4383C120.909 84.4005 120.907 84.3367 120.945 84.2957C120.983 84.2548 121.047 84.2522 121.088 84.29C121.128 84.3278 121.13 84.3916 121.092 84.4326C121.054 84.4735 120.99 84.4761 120.949 84.4383Z" fill="white"/>
</g>
<g opacity="0.04">
<path d="M124.172 62.5108C124.135 62.4766 124.134 62.4186 124.168 62.3813C124.203 62.344 124.261 62.3414 124.298 62.3756C124.335 62.4098 124.336 62.4678 124.301 62.5051C124.266 62.5424 124.208 62.545 124.172 62.5108Z" fill="white"/>
</g>
<g opacity="0.04">
<path d="M126.088 41.5187C126.03 41.58 125.999 41.6612 126.001 41.7446C126.003 41.8281 126.038 41.9072 126.098 41.9649C126.16 42.021 126.242 42.0506 126.326 42.0474C126.409 42.0442 126.489 42.0084 126.547 41.9476C126.604 41.8855 126.633 41.8039 126.63 41.7204C126.627 41.637 126.591 41.5584 126.53 41.5017C126.47 41.4453 126.389 41.4154 126.306 41.4186C126.223 41.4217 126.144 41.4578 126.088 41.5187Z" fill="white"/>
</g>
<g opacity="0.04">
<path d="M122.066 36.6454C121.949 36.5369 121.944 36.3539 122.053 36.2368C122.162 36.1196 122.345 36.1126 122.461 36.2211C122.578 36.3295 122.583 36.5125 122.474 36.6296C122.365 36.7468 122.182 36.7538 122.066 36.6454Z" fill="white"/>
</g>
<g opacity="0.05">
<path d="M113 30.7895C112.97 30.8211 112.951 30.8607 112.944 30.9031C112.937 30.9456 112.942 30.9891 112.96 31.0281C112.977 31.0671 113.006 31.0999 113.042 31.1223C113.079 31.1447 113.121 31.1558 113.164 31.154C113.207 31.1523 113.249 31.1378 113.284 31.1125C113.319 31.0872 113.346 31.0521 113.361 31.0118C113.376 30.9714 113.379 30.9276 113.37 30.8858C113.36 30.844 113.338 30.8061 113.307 30.777C113.265 30.7379 113.209 30.7173 113.152 30.7196C113.094 30.722 113.039 30.7471 113 30.7895Z" fill="white"/>
</g>
<g opacity="0.03">
<path d="M141.777 54.6442C141.756 54.6768 141.747 54.7157 141.751 54.7541C141.756 54.7925 141.773 54.828 141.802 54.8542C141.83 54.8804 141.866 54.8957 141.905 54.8974C141.944 54.8992 141.982 54.8872 142.013 54.8636C142.032 54.849 142.048 54.8304 142.059 54.8092C142.07 54.7879 142.077 54.7645 142.078 54.7406C142.08 54.7166 142.076 54.6927 142.067 54.6706C142.058 54.6484 142.045 54.6286 142.027 54.6123C142.01 54.5961 141.989 54.5839 141.966 54.5767C141.944 54.5694 141.919 54.5672 141.896 54.5702C141.872 54.5733 141.849 54.5815 141.829 54.5942C141.808 54.607 141.791 54.6241 141.777 54.6442Z" fill="white"/>
</g>
<g opacity="0.03">
<path d="M155.398 80.1974C155.368 80.2307 155.353 80.2739 155.355 80.3178C155.357 80.3618 155.376 80.4031 155.408 80.4329C155.439 80.4624 155.482 80.478 155.525 80.4762C155.569 80.4744 155.61 80.4554 155.64 80.4233C155.67 80.3909 155.687 80.3482 155.686 80.3041C155.685 80.2601 155.668 80.2183 155.637 80.1875C155.604 80.1571 155.56 80.1411 155.516 80.143C155.471 80.1448 155.428 80.1644 155.398 80.1974Z" fill="white"/>
</g>
<g opacity="0.42">
<path d="M67.2251 83.4192C67.1752 83.3726 67.1729 83.2939 67.2201 83.2433C67.2673 83.1927 67.346 83.1894 67.3959 83.236C67.4459 83.2826 67.4481 83.3613 67.4009 83.4119C67.3537 83.4625 67.275 83.4657 67.2251 83.4192Z" fill="white"/>
</g>
<g opacity="0.29">
<path d="M73.9462 74.4227C73.9279 74.4424 73.918 74.4684 73.9188 74.4952C73.9196 74.5219 73.931 74.5471 73.9504 74.5653C73.9704 74.5823 73.9961 74.5911 74.0225 74.5901C74.0489 74.589 74.074 74.5781 74.0929 74.5595C74.1113 74.5398 74.1211 74.5138 74.1204 74.487C74.1196 74.4603 74.1082 74.4351 74.0888 74.4169C74.0693 74.3988 74.0434 74.3892 74.0166 74.3903C73.9899 74.3914 73.9646 74.403 73.9462 74.4227Z" fill="white"/>
</g>
<g opacity="0.12">
<path d="M100.488 76.5359C100.473 76.5541 100.465 76.5773 100.467 76.6007C100.468 76.6241 100.478 76.646 100.495 76.6619C100.512 76.6774 100.534 76.6856 100.557 76.6846C100.58 76.6836 100.602 76.6735 100.618 76.6565C100.634 76.6392 100.643 76.6164 100.643 76.5929C100.643 76.5694 100.634 76.547 100.618 76.5302C100.6 76.5149 100.576 76.507 100.552 76.5081C100.529 76.5092 100.506 76.5191 100.488 76.5359Z" fill="white"/>
</g>
<g opacity="0.1">
<path d="M93.6339 55.791C93.618 55.808 93.6094 55.8305 93.61 55.8535C93.6106 55.8765 93.6203 55.8981 93.637 55.9137C93.6537 55.9292 93.676 55.9374 93.6989 55.9364C93.7219 55.9354 93.7438 55.9253 93.7596 55.9083C93.7754 55.8913 93.784 55.8688 93.7834 55.8458C93.7828 55.8228 93.7731 55.8012 93.7565 55.7856C93.7398 55.77 93.7175 55.7619 93.6945 55.7629C93.6715 55.7639 93.6497 55.774 93.6339 55.791Z" fill="white"/>
</g>
<g opacity="0.07">
<path d="M102.566 43.7387C102.553 43.7528 102.545 43.7704 102.541 43.7892C102.538 43.8081 102.54 43.8274 102.548 43.8447C102.556 43.862 102.569 43.8765 102.585 43.8864C102.601 43.8963 102.62 43.9011 102.639 43.9003C102.658 43.8994 102.676 43.8929 102.692 43.8816C102.707 43.8704 102.719 43.8548 102.726 43.8368C102.733 43.8189 102.734 43.7994 102.73 43.7809C102.726 43.7624 102.716 43.7456 102.703 43.7327C102.684 43.7154 102.659 43.7064 102.634 43.7075C102.608 43.7086 102.584 43.7198 102.566 43.7387Z" fill="white"/>
</g>
<g opacity="0.25">
<path d="M75.4004 70.4863C75.3872 70.5003 75.3785 70.5179 75.3753 70.5368C75.372 70.5556 75.3744 70.5749 75.3822 70.5922C75.3899 70.6095 75.4026 70.624 75.4188 70.6339C75.4349 70.6438 75.4536 70.6487 75.4727 70.6478C75.4917 70.647 75.5102 70.6405 75.5258 70.6292C75.5414 70.6179 75.5533 70.6023 75.5602 70.5844C75.567 70.5664 75.5684 70.547 75.5642 70.5284C75.56 70.5099 75.5504 70.4931 75.5366 70.4803C75.5181 70.463 75.4933 70.4539 75.4678 70.455C75.4422 70.4562 75.418 70.4674 75.4004 70.4863Z" fill="white"/>
</g>
<g opacity="0.09">
<path d="M113.361 90.8089C113.339 90.8326 113.326 90.8638 113.327 90.896C113.327 90.9282 113.34 90.9589 113.362 90.9816C113.386 91.0039 113.418 91.0157 113.451 91.0144C113.484 91.013 113.515 90.9986 113.538 90.9743C113.559 90.9498 113.57 90.9181 113.569 90.886C113.567 90.8539 113.553 90.8237 113.53 90.8019C113.507 90.7804 113.476 90.7691 113.444 90.7704C113.413 90.7717 113.382 90.7856 113.361 90.8089Z" fill="white"/>
</g>
<g opacity="0.25">
<path d="M100.568 106.807C100.539 106.838 100.52 106.876 100.513 106.918C100.506 106.959 100.511 107.002 100.528 107.04C100.546 107.078 100.574 107.11 100.609 107.132C100.645 107.154 100.686 107.165 100.728 107.163C100.77 107.161 100.811 107.147 100.845 107.122C100.88 107.098 100.906 107.063 100.921 107.024C100.936 106.985 100.939 106.942 100.929 106.901C100.92 106.86 100.899 106.823 100.868 106.794C100.827 106.756 100.772 106.736 100.716 106.738C100.66 106.741 100.606 106.765 100.568 106.807Z" fill="white"/>
</g>
<g opacity="0.26">
<path d="M95.4289 103.78C95.3533 103.71 95.3499 103.591 95.4212 103.514C95.4926 103.438 95.6117 103.433 95.6873 103.503C95.7629 103.574 95.7664 103.693 95.695 103.769C95.6237 103.846 95.5045 103.851 95.4289 103.78Z" fill="white"/>
</g>
<g opacity="0.35">
<path d="M99.2437 116.142C99.2039 116.185 99.1775 116.238 99.168 116.295C99.1584 116.353 99.1661 116.412 99.19 116.465C99.2139 116.517 99.2529 116.562 99.3022 116.592C99.3515 116.623 99.4088 116.638 99.4669 116.635C99.525 116.633 99.5812 116.614 99.6285 116.58C99.6758 116.545 99.712 116.498 99.7326 116.444C99.7531 116.389 99.7571 116.33 99.744 116.273C99.7309 116.217 99.7013 116.165 99.6589 116.126C99.6308 116.1 99.5978 116.079 99.5617 116.066C99.5256 116.053 99.4872 116.046 99.4486 116.048C99.4101 116.049 99.3721 116.058 99.3369 116.075C99.3018 116.091 99.2701 116.114 99.2437 116.142Z" fill="white"/>
</g>
<g opacity="0.27">
<path d="M85.8744 95.3604C85.85 95.3866 85.8369 95.4212 85.8379 95.4568C85.8389 95.4923 85.854 95.5258 85.8798 95.5498C85.9056 95.5739 85.9401 95.5866 85.9756 95.5852C86.0111 95.5837 86.0447 95.5682 86.0691 95.542C86.0935 95.5158 86.1067 95.4812 86.1057 95.4457C86.1047 95.4101 86.0896 95.3766 86.0638 95.3526C86.038 95.3285 86.0035 95.3158 85.968 95.3173C85.9325 95.3187 85.8988 95.3343 85.8744 95.3604Z" fill="white"/>
</g>
<g opacity="0.5">
<path d="M94.5007 128.895C94.332 128.738 94.3238 128.472 94.4822 128.302C94.6407 128.133 94.9058 128.122 95.0745 128.28C95.2432 128.437 95.2514 128.702 95.093 128.872C94.9345 129.042 94.6693 129.052 94.5007 128.895Z" fill="white"/>
</g>
<g opacity="0.04">
<path d="M139.475 38.1203C139.402 38.1969 139.354 38.2932 139.336 38.397C139.318 38.5008 139.331 38.6074 139.374 38.7033C139.417 38.7991 139.487 38.8797 139.576 38.935C139.665 38.9903 139.769 39.0176 139.874 39.0136C139.979 39.0095 140.081 38.9743 140.166 38.9123C140.252 38.8503 140.317 38.7644 140.354 38.6655C140.391 38.5666 140.397 38.4593 140.373 38.3571C140.348 38.2549 140.294 38.1625 140.217 38.0917C140.115 37.9971 139.98 37.9469 139.841 37.9523C139.702 37.9576 139.57 38.0181 139.475 38.1203Z" fill="white"/>
</g>
</g>
<path d="M65.6161 115.958C62.4021 132.24 29.1037 143.98 29.1037 143.98C29.1037 143.98 37.8597 109.35 54.8543 105.921C67.3412 103.405 65.6161 115.958 65.6161 115.958Z" fill="url(#paint0_linear_1_3658)"/>
<path style="mix-blend-mode:color-dodge" d="M63.8625 114.354C61.6465 125.59 38.67 133.694 38.67 133.694C38.67 133.694 44.7139 109.797 56.4387 107.43C65.0546 105.694 63.8625 114.354 63.8625 114.354Z" fill="url(#paint1_linear_1_3658)"/>
<path d="M93.1755 52.396C93.1755 52.396 73.425 71.4961 55.5904 65.249C51.9453 69.3402 49.2619 72.0343 46.8735 76.5373C49.5222 77.1035 59.7834 84.4194 61.2072 93.0334L93.1755 52.396Z" fill="url(#paint2_linear_1_3658)"/>
<path d="M116.341 74.0048C116.341 74.0048 98.6615 95.0364 106.134 112.393C102.307 116.314 99.8059 119.178 95.4835 121.878C94.7309 119.272 86.7187 109.544 78.0265 108.723L116.341 74.0048Z" fill="url(#paint3_linear_1_3658)"/>
<path d="M116.342 74.0049L108.98 80.6799C104.701 88.7874 98.9719 103.008 103.96 114.662C104.639 113.934 105.373 113.196 106.149 112.406C98.6586 95.0333 116.342 74.0049 116.342 74.0049Z" fill="url(#paint4_linear_1_3658)"/>
<path d="M78.0403 108.736L78.1876 108.754L79.8701 107.077L78.0403 108.736Z" fill="url(#paint5_linear_1_3658)"/>
<path d="M106.887 111.08L94.6787 122.762C95.7972 125.082 93.7536 128.947 87.2632 135.02C92.6642 133.683 105.049 124.395 110.496 113.052C108.736 113.003 107.76 112.516 106.887 111.08Z" fill="url(#paint6_linear_1_3658)"/>
<path d="M87.2528 135.042C96.1754 129.479 97.7358 123.232 96.7663 120.774L94.6848 122.767C95.8068 125.089 93.7597 128.952 87.2528 135.042Z" fill="url(#paint7_linear_1_3658)"/>
<path d="M93.1769 52.399L87.0303 60.2067C79.2403 65.0404 65.4525 71.7447 53.4763 67.5765C54.1557 66.8481 54.8436 66.0682 55.5778 65.2389C73.4089 71.4827 93.1769 52.399 93.1769 52.399Z" fill="url(#paint8_linear_1_3658)"/>
<path d="M56.8492 64.4092L46.0452 77.4005C43.6537 76.446 39.9358 78.7504 34.3299 85.6476C35.2871 80.1668 43.6916 67.1656 54.6282 60.9426C54.8022 62.6983 55.3563 63.6383 56.8492 64.4092Z" fill="url(#paint9_linear_1_3658)"/>
<path d="M34.3138 85.6655C39.242 76.3775 45.3655 74.3862 47.885 75.1823L46.0456 77.4007C43.6506 76.443 39.9362 78.7506 34.3138 85.6655Z" fill="url(#paint10_linear_1_3658)"/>
<path d="M55.0855 101.931C55.0097 101.663 54.9953 101.38 55.0434 101.105C55.0914 100.829 55.2007 100.567 55.3631 100.339C59.3275 94.6809 86.3282 56.4914 101.244 40.4988C114.904 25.8534 132.193 26.3161 137.157 26.8136C137.564 26.8522 137.946 27.0237 138.244 27.3018C138.543 27.5799 138.74 27.949 138.807 28.3523C139.638 33.2598 141.313 50.4852 127.654 65.1306C112.748 81.1126 76.516 110.706 71.1513 115.064C70.9347 115.242 70.6811 115.369 70.4095 115.436C70.1379 115.504 69.8551 115.509 69.5821 115.452C63.7729 114.186 56.7287 107.523 55.0855 101.931Z" fill="url(#paint11_linear_1_3658)"/>
<path d="M60.4887 100.296C60.1407 99.5854 59.9914 98.7931 60.0568 98.0022C60.1221 97.2112 60.3996 96.4511 60.8599 95.802C66.4315 87.9141 88.5336 56.898 101.065 43.4618C111.602 32.1648 124.568 30.9293 130.778 31.0618C131.846 31.0901 132.865 31.5063 133.644 32.2328C134.423 32.9592 134.909 33.9464 135.011 35.0099C135.59 41.2089 135.245 54.2168 124.709 65.5138C112.177 78.95 82.7611 103.171 75.2833 109.274C74.6662 109.78 73.9253 110.11 73.1389 110.229C72.3525 110.349 71.55 110.254 70.8162 109.954C66.7352 108.264 62.4238 104.209 60.4887 100.296Z" fill="url(#paint12_linear_1_3658)"/>
<path d="M68.3887 113.696C66.644 115.123 65.6171 115.964 65.6171 115.964C61.2893 115.432 55.6529 110.089 54.8552 105.926C54.8552 105.926 55.6155 104.844 56.9248 103.004C58.3479 107.22 63.9872 112.546 68.3887 113.696Z" fill="#460091"/>
<path d="M68.3887 113.696C66.644 115.123 65.6171 115.964 65.6171 115.964C61.2893 115.432 55.6529 110.089 54.8552 105.926C54.8552 105.926 55.6155 104.844 56.9248 103.004C58.3479 107.22 63.9872 112.546 68.3887 113.696Z" fill="url(#paint13_linear_1_3658)"/>
<path d="M71.0879 113.834C69.2837 115.213 68.2215 116.014 68.2215 116.014C63.2128 114.847 56.0741 108.103 54.6165 103.325C54.6165 103.325 55.3418 102.21 56.588 100.317C58.7761 105.241 65.9036 111.955 71.0879 113.834Z" fill="url(#paint14_linear_1_3658)"/>
<path d="M74.5127 112.315C71.9805 114.39 70.4813 115.603 70.4813 115.603C64.207 114.836 56.0246 107.079 54.8685 101.042C54.8685 101.042 55.9746 99.4617 57.8647 96.7948C59.9238 102.94 68.1112 110.636 74.5127 112.315Z" fill="url(#paint15_linear_1_3658)"/>
<path d="M68.2803 99.063C64.0222 103.647 60.3149 108.713 57.235 114.157C62.4509 110.706 67.2467 106.655 71.5236 102.088C78.5182 94.5885 83.4638 87.8292 82.5688 86.9944C81.6737 86.1596 75.2749 91.5635 68.2803 99.063Z" fill="url(#paint16_linear_1_3658)"/>
<path d="M102.152 65.9989C97.701 61.8476 98.8869 53.3422 104.801 47.0015C110.715 40.6608 119.117 38.8859 123.568 43.0372C128.019 47.1884 126.833 55.6939 120.919 62.0346C115.005 68.3753 106.603 70.1502 102.152 65.9989Z" fill="url(#paint17_linear_1_3658)"/>
<path d="M104.158 63.8464C100.543 60.4744 101.507 53.5648 106.311 48.4133C111.116 43.2618 117.942 41.8193 121.557 45.1913C125.173 48.5633 124.209 55.473 119.404 60.6244C114.599 65.7759 107.773 67.2184 104.158 63.8464Z" fill="url(#paint18_linear_1_3658)"/>
<path style="mix-blend-mode:screen" opacity="0.53" d="M104.768 63.1916C101.406 60.0565 102.303 53.6317 106.771 48.8415C111.239 44.0513 117.585 42.7096 120.947 45.8448C124.308 48.9799 123.411 55.4047 118.944 60.1949C114.476 64.9851 108.129 66.3268 104.768 63.1916Z" fill="url(#paint19_linear_1_3658)"/>
<path d="M118.309 46.3521C118.076 47.5235 113.644 46.2794 109.397 50.1791C105.335 53.908 105.817 55.0723 105.3 54.7547C104.782 54.4372 104.604 52.1226 109.375 48.0494C113.972 44.1192 118.621 44.7788 118.309 46.3521Z" fill="url(#paint20_linear_1_3658)"/>
<path d="M107.349 62.6226C107.581 61.4512 112.013 62.6953 116.261 58.7957C120.323 55.0668 119.84 53.9025 120.358 54.22C120.875 54.5376 121.069 56.8277 116.266 60.9431C111.685 64.8556 107.036 64.1959 107.349 62.6226Z" fill="url(#paint21_linear_1_3658)"/>
</g>
<defs>
<filter id="filter0_d_1_3658" x="10.608" y="17.3885" width="164.299" height="154.335" filterUnits="userSpaceOnUse" color-interpolation-filters="sRGB">
<feFlood flood-opacity="0" result="BackgroundImageFix"/>
<feColorMatrix in="SourceAlpha" type="matrix" values="0 0 0 0 0 0 0 0 0 0 0 0 0 0 0 0 0 0 127 0" result="hardAlpha"/>
<feOffset dy="9.24776"/>
<feGaussianBlur stdDeviation="9.24776"/>
<feComposite in2="hardAlpha" operator="out"/>
<feColorMatrix type="matrix" values="0 0 0 0 0 0 0 0 0 0 0 0 0 0 0 0 0 0 0.09 0"/>
<feBlend mode="normal" in2="BackgroundImageFix" result="effect1_dropShadow_1_3658"/>
<feBlend mode="normal" in="SourceGraphic" in2="effect1_dropShadow_1_3658" result="shape"/>
</filter>
<linearGradient id="paint0_linear_1_3658" x1="61.7654" y1="108.863" x2="27.3199" y2="145.794" gradientUnits="userSpaceOnUse">
<stop stop-color="#FFDC4F"/>
<stop offset="1" stop-color="#FFF984" stop-opacity="0"/>
</linearGradient>
<linearGradient id="paint1_linear_1_3658" x1="56.1694" y1="114.862" x2="39.001" y2="133.269" gradientUnits="userSpaceOnUse">
<stop stop-color="#FFDC4F"/>
<stop offset="1" stop-color="#FFF984" stop-opacity="0"/>
</linearGradient>
<linearGradient id="paint2_linear_1_3658" x1="68.7828" y1="67.9796" x2="45.431" y2="93.0169" gradientUnits="userSpaceOnUse">
<stop stop-color="#C5C6ED"/>
<stop offset="0.99" stop-color="#AB7BB3"/>
</linearGradient>
<linearGradient id="paint3_linear_1_3658" x1="104.54" y1="97.227" x2="77.1785" y2="126.564" gradientUnits="userSpaceOnUse">
<stop stop-color="#C5C6ED"/>
<stop offset="0.99" stop-color="#AB7BB3"/>
</linearGradient>
<linearGradient id="paint4_linear_1_3658" x1="117.885" y1="82.737" x2="103.436" y2="102.128" gradientUnits="userSpaceOnUse">
<stop stop-color="#FFF5DB"/>
<stop offset="0.99" stop-color="#C5C6ED"/>
</linearGradient>
<linearGradient id="paint5_linear_1_3658" x1="104.96" y1="73.1026" x2="90.5029" y2="92.4939" gradientUnits="userSpaceOnUse">
<stop stop-color="#FFF5DB"/>
<stop offset="0.99" stop-color="#C5C6ED"/>
</linearGradient>
<linearGradient id="paint6_linear_1_3658" x1="109.356" y1="111.988" x2="87.5903" y2="135.325" gradientUnits="userSpaceOnUse">
<stop stop-color="#8B7EFF"/>
<stop offset="1" stop-color="#4335E3"/>
</linearGradient>
<linearGradient id="paint7_linear_1_3658" x1="98.1096" y1="122.027" x2="86.5673" y2="134.402" gradientUnits="userSpaceOnUse">
<stop stop-color="#8B7EFF"/>
<stop offset="1" stop-color="#4335E3"/>
</linearGradient>
<linearGradient id="paint8_linear_1_3658" x1="84.3586" y1="51.4669" x2="66.0169" y2="67.2272" gradientUnits="userSpaceOnUse">
<stop stop-color="#FFF5DB"/>
<stop offset="0.99" stop-color="#C5C6ED"/>
</linearGradient>
<linearGradient id="paint9_linear_1_3658" x1="55.7701" y1="62.0076" x2="34.0046" y2="85.3442" gradientUnits="userSpaceOnUse">
<stop stop-color="#8B7EFF"/>
<stop offset="1" stop-color="#4335E3"/>
</linearGradient>
<linearGradient id="paint10_linear_1_3658" x1="46.5434" y1="73.9311" x2="35.0011" y2="86.3065" gradientUnits="userSpaceOnUse">
<stop stop-color="#8B7EFF"/>
<stop offset="1" stop-color="#4335E3"/>
</linearGradient>
<linearGradient id="paint11_linear_1_3658" x1="106.95" y1="60.8552" x2="66.1197" y2="104.632" gradientUnits="userSpaceOnUse">
<stop stop-color="#FFF5DB"/>
<stop offset="0.99" stop-color="#C5C6ED"/>
</linearGradient>
<linearGradient id="paint12_linear_1_3658" x1="100.332" y1="67.9488" x2="64.0664" y2="106.832" gradientUnits="userSpaceOnUse">
<stop stop-color="#FFFDF7"/>
<stop offset="0.99" stop-color="#C5C6ED"/>
</linearGradient>
<linearGradient id="paint13_linear_1_3658" x1="62.6567" y1="108.35" x2="58.9413" y2="112.333" gradientUnits="userSpaceOnUse">
<stop stop-color="#FF7E7E"/>
<stop offset="1" stop-color="#E33535"/>
</linearGradient>
<linearGradient id="paint14_linear_1_3658" x1="63.8396" y1="107.074" x2="60.1242" y2="111.058" gradientUnits="userSpaceOnUse">
<stop stop-color="#FF7E7E"/>
<stop offset="1" stop-color="#E33535"/>
</linearGradient>
<linearGradient id="paint15_linear_1_3658" x1="66.1903" y1="104.553" x2="60.7963" y2="110.337" gradientUnits="userSpaceOnUse">
<stop stop-color="#FF7E7E"/>
<stop offset="1" stop-color="#E33535"/>
</linearGradient>
<linearGradient id="paint16_linear_1_3658" x1="82.5688" y1="86.9944" x2="57.235" y2="114.157" gradientUnits="userSpaceOnUse">
<stop stop-color="#8B7EFF"/>
<stop offset="1" stop-color="#4335E3"/>
</linearGradient>
<linearGradient id="paint17_linear_1_3658" x1="123.568" y1="43.0372" x2="102.152" y2="65.9989" gradientUnits="userSpaceOnUse">
<stop stop-color="#FF7E7E"/>
<stop offset="1" stop-color="#E33535"/>
</linearGradient>
<linearGradient id="paint18_linear_1_3658" x1="97.7174" y1="70.7519" x2="118.945" y2="47.9917" gradientUnits="userSpaceOnUse">
<stop stop-color="#21F5F4"/>
<stop offset="1" stop-color="#D7A1FF"/>
</linearGradient>
<linearGradient id="paint19_linear_1_3658" x1="98.7756" y1="69.6162" x2="118.516" y2="48.4507" gradientUnits="userSpaceOnUse">
<stop stop-color="#21F5F4"/>
<stop offset="1" stop-color="#D7A1FF"/>
</linearGradient>
<linearGradient id="paint20_linear_1_3658" x1="122.675" y1="44.5137" x2="107.035" y2="51.1452" gradientUnits="userSpaceOnUse">
<stop stop-color="white" stop-opacity="0.9"/>
<stop offset="0.99" stop-color="white" stop-opacity="0"/>
</linearGradient>
<linearGradient id="paint21_linear_1_3658" x1="102.667" y1="61.8995" x2="117.924" y2="58.5057" gradientUnits="userSpaceOnUse">
<stop stop-color="white" stop-opacity="0.9"/>
<stop offset="0.99" stop-color="white" stop-opacity="0"/>
</linearGradient>
</defs>
</svg>
