<svg width="249" height="255" viewBox="0 0 249 255" fill="none" xmlns="http://www.w3.org/2000/svg">
<path d="M145.366 51.4671L14.4756 143.591L136.453 240.792L207.67 106.179L145.366 51.4671Z" fill="url(#paint0_linear_1_3643)" fill-opacity="0.09"/>
<path d="M192.315 96.1875C189.318 99.505 177.957 94.0863 166.945 84.1052C155.933 74.1241 149.447 63.3619 152.444 60.0444C153.38 59.0064 155.143 58.8271 157.468 59.369C162.548 60.5763 170.258 65.3349 177.83 72.13C185.402 78.9251 190.838 86.2761 192.52 91.1553C193.265 93.3956 193.251 95.1496 192.315 96.1875Z" fill="#B4AEEB"/>
<path d="M232.89 113.056C227.051 119.496 199.581 104.122 171.54 78.7026C143.499 53.2835 125.47 27.4496 131.344 21.0004C132.678 19.5426 135.142 19.2028 138.48 19.8781C149.768 22.1093 171.066 35.7519 192.691 55.3693C216.089 76.599 232.439 98.075 233.9 108.373C234.088 109.18 234.095 110.018 233.921 110.828C233.746 111.638 233.394 112.399 232.89 113.056Z" fill="url(#paint1_linear_1_3643)"/>
<path d="M232.891 113.056C227.051 119.496 199.581 104.122 171.54 78.7027C143.5 53.2837 125.471 27.4498 131.344 21.0005C132.678 19.5427 135.142 19.2029 138.48 19.8783C137.737 20.7811 137.326 21.9107 137.313 23.0796C136.967 24.1774 137.985 29.7294 146.233 41.2392C155.415 53.4254 165.789 64.6662 177.201 74.7948C188.402 85.1748 200.614 94.4078 213.653 102.356C221.516 106.935 226.589 108.71 229.483 109.259C230.853 109.469 232.254 109.19 233.44 108.471L233.835 108.295C234.045 109.108 234.069 109.959 233.906 110.783C233.742 111.607 233.395 112.384 232.891 113.056Z" fill="url(#paint2_linear_1_3643)"/>
<path d="M217.139 72.1852L173.006 33.2024C174.904 31.3111 177 31.4789 179.698 30.7984C187.815 28.7293 198.723 32.0672 207.594 40.0977C216.466 48.1283 220.757 58.6528 219.538 66.935C219.282 68.8858 218.447 70.715 217.139 72.1852Z" fill="url(#paint3_linear_1_3643)"/>
<path d="M218.695 93.9237C218.327 94.3727 217.804 94.6677 217.23 94.7506C216.655 94.8335 216.07 94.6983 215.59 94.3716L206.803 86.4076L159.862 43.7872L151.828 36.4874C151.633 36.2352 151.494 35.9446 151.419 35.6347C151.345 35.3248 151.337 35.0027 151.395 34.6895C151.454 34.3762 151.578 34.0789 151.76 33.8171C151.942 33.5554 152.177 33.335 152.45 33.1705L154.39 31.6947C154.855 31.3111 155.433 31.0908 156.036 31.0676L172.193 30.8987C173.93 30.832 175.622 31.454 176.902 32.6292L218.011 69.9134C219.135 70.9814 218.865 73.5596 218.883 75.239L219.61 91.9866C219.597 92.3546 219.509 92.716 219.351 93.049C219.194 93.382 218.971 93.6795 218.695 93.9237Z" fill="url(#paint4_linear_1_3643)"/>
<path d="M164.972 35.566C164.592 35.9282 164.084 36.1254 163.559 36.1147C163.034 36.1039 162.535 35.8861 162.17 35.5087C161.994 35.3139 161.859 35.0858 161.773 34.8378C161.687 34.5898 161.652 34.3271 161.669 34.0652C161.687 33.8034 161.757 33.5477 161.875 33.3135C161.994 33.0792 162.158 32.8712 162.359 32.7017C162.547 32.5281 162.768 32.3932 163.008 32.3049C163.249 32.2166 163.505 32.1766 163.761 32.1871C164.017 32.1976 164.268 32.2584 164.501 32.3661C164.734 32.4738 164.943 32.6263 165.116 32.8148C165.29 33.0033 165.425 33.2241 165.513 33.4647C165.601 33.7054 165.642 33.961 165.631 34.2171C165.621 34.4732 165.56 34.7247 165.452 34.9573C165.344 35.1899 165.192 35.399 165.003 35.5726L164.972 35.566Z" fill="url(#paint5_linear_1_3643)"/>
<path d="M172.979 44.0643C172.694 44.316 172.342 44.4784 171.965 44.5316C171.589 44.5848 171.205 44.5263 170.862 44.3635C170.519 44.2007 170.23 43.9406 170.033 43.6156C169.836 43.2905 169.739 42.9148 169.754 42.535C169.768 42.1552 169.894 41.788 170.115 41.4789C170.336 41.1699 170.644 40.9326 170.998 40.7965C171.353 40.6603 171.74 40.6313 172.111 40.7131C172.483 40.7949 172.822 40.9838 173.087 41.2565C173.444 41.6433 173.634 42.1562 173.613 42.6826C173.593 43.209 173.365 43.7059 172.979 44.0643Z" fill="url(#paint6_linear_1_3643)"/>
<path d="M181.207 52.2997C181.029 52.4925 180.814 52.6479 180.575 52.7569C180.337 52.8658 180.079 52.926 179.817 52.934C179.554 52.942 179.293 52.8977 179.048 52.8035C178.803 52.7094 178.58 52.5673 178.39 52.3857C178.206 52.2021 178.06 51.9833 177.962 51.7423C177.863 51.5012 177.815 51.2429 177.818 50.9826C177.822 50.7223 177.878 50.4654 177.983 50.2272C178.088 49.9889 178.239 49.7742 178.429 49.5958C178.602 49.3959 178.814 49.2335 179.052 49.1186C179.29 49.0036 179.55 48.9385 179.814 48.9273C180.078 48.9161 180.342 48.9589 180.589 49.0533C180.836 49.1476 181.061 49.2914 181.25 49.4758C181.44 49.6603 181.59 49.8815 181.691 50.1259C181.792 50.3703 181.842 50.6328 181.837 50.8972C181.833 51.1616 181.775 51.4224 181.667 51.6636C181.558 51.9047 181.402 52.1212 181.207 52.2997Z" fill="url(#paint7_linear_1_3643)"/>
<path d="M189.641 60.3189C189.467 60.5052 189.258 60.6555 189.026 60.761C188.794 60.8665 188.543 60.9253 188.288 60.9339C188.033 60.9425 187.779 60.9009 187.541 60.8114C187.302 60.7218 187.083 60.5861 186.897 60.412C186.71 60.2379 186.56 60.0288 186.455 59.7967C186.349 59.5645 186.29 59.3139 186.282 59.059C186.273 58.8041 186.315 58.55 186.404 58.3113C186.494 58.0725 186.629 57.8537 186.804 57.6674C186.978 57.481 187.187 57.3308 187.419 57.2253C187.651 57.1198 187.902 57.061 188.157 57.0524C188.411 57.0437 188.665 57.0854 188.904 57.1749C189.143 57.2645 189.362 57.4002 189.548 57.5743C189.734 57.7484 189.885 57.9575 189.99 58.1896C190.096 58.4218 190.155 58.6724 190.163 58.9273C190.172 59.1822 190.13 59.4362 190.041 59.675C189.951 59.9138 189.815 60.1326 189.641 60.3189Z" fill="url(#paint8_linear_1_3643)"/>
<path d="M198.325 68.0817C198.062 68.3564 197.725 68.5482 197.355 68.6333C196.985 68.7183 196.598 68.6929 196.242 68.5602C195.886 68.4275 195.577 68.1933 195.353 67.8866C195.129 67.58 194.999 67.2143 194.981 66.8349C194.963 66.4555 195.056 66.079 195.25 65.7522C195.443 65.4253 195.728 65.1623 196.07 64.9959C196.411 64.8294 196.794 64.7667 197.17 64.8156C197.547 64.8646 197.901 65.0229 198.189 65.271C198.384 65.4454 198.543 65.657 198.656 65.8934C198.768 66.1298 198.833 66.3862 198.846 66.6478C198.858 66.9094 198.819 67.171 198.729 67.4171C198.64 67.6633 198.502 67.8892 198.325 68.0817Z" fill="url(#paint9_linear_1_3643)"/>
<path d="M207.32 75.4551C206.998 75.8749 206.524 76.1518 206 76.2262C205.477 76.3007 204.945 76.1669 204.518 75.8535C204.317 75.6845 204.152 75.4775 204.031 75.2442C203.911 75.011 203.837 74.7562 203.816 74.4945C203.794 74.2328 203.824 73.9694 203.905 73.7195C203.986 73.4697 204.115 73.2382 204.286 73.0386C204.439 72.8257 204.635 72.6462 204.86 72.511C205.085 72.3758 205.335 72.2877 205.596 72.2521C205.856 72.2164 206.121 72.2339 206.374 72.3035C206.627 72.3731 206.864 72.4933 207.069 72.6569C207.274 72.8206 207.445 73.0242 207.569 73.2554C207.693 73.4867 207.77 73.7408 207.793 74.0024C207.817 74.264 207.787 74.5276 207.705 74.7773C207.624 75.027 207.493 75.2576 207.32 75.4551Z" fill="url(#paint10_linear_1_3643)"/>
<path d="M216.639 82.4418C216.495 82.6586 216.309 82.8444 216.092 82.9885C215.875 83.1325 215.631 83.2318 215.376 83.2806C215.12 83.3294 214.857 83.3267 214.602 83.2726C214.348 83.2185 214.106 83.1141 213.892 82.9656C213.469 82.6462 213.19 82.1722 213.115 81.6472C213.04 81.1222 213.177 80.5891 213.494 80.1643C213.791 79.7333 214.246 79.4376 214.76 79.3423C215.275 79.247 215.806 79.3599 216.237 79.6561C216.657 79.9747 216.934 80.4454 217.009 80.9666C217.084 81.4879 216.951 82.0177 216.639 82.4418Z" fill="url(#paint11_linear_1_3643)"/>
<path d="M152.446 60.0445L81.7401 120.519L140.566 174.525L192.317 96.1876L152.446 60.0445Z" fill="url(#paint12_linear_1_3643)" fill-opacity="0.17"/>
<defs>
<linearGradient id="paint0_linear_1_3643" x1="212.209" y1="43.9561" x2="83.9014" y2="181.055" gradientUnits="userSpaceOnUse">
<stop offset="0.01" stop-color="white"/>
<stop offset="0.99" stop-color="white" stop-opacity="0"/>
</linearGradient>
<linearGradient id="paint1_linear_1_3643" x1="196.244" y1="54.4563" x2="180.648" y2="70.5331" gradientUnits="userSpaceOnUse">
<stop offset="0.01" stop-color="#292EF9"/>
<stop offset="0.99" stop-color="#9181FA"/>
</linearGradient>
<linearGradient id="paint2_linear_1_3643" x1="176.093" y1="103.713" x2="191.195" y2="31.182" gradientUnits="userSpaceOnUse">
<stop offset="0.01" stop-color="#292EF9"/>
<stop offset="0.99" stop-color="#9181FA"/>
</linearGradient>
<linearGradient id="paint3_linear_1_3643" x1="180.523" y1="27.0961" x2="224" y2="66.4441" gradientUnits="userSpaceOnUse">
<stop offset="0.01" stop-color="#DDDFFD"/>
<stop offset="0.99" stop-color="#9181FA"/>
</linearGradient>
<linearGradient id="paint4_linear_1_3643" x1="184.382" y1="67.186" x2="202.696" y2="45.3695" gradientUnits="userSpaceOnUse">
<stop offset="0.01" stop-color="#292EF9"/>
<stop offset="0.99" stop-color="#9181FA"/>
</linearGradient>
<linearGradient id="paint5_linear_1_3643" x1="160.802" y1="42.2802" x2="166.684" y2="32.3366" gradientUnits="userSpaceOnUse">
<stop offset="0.01" stop-color="white"/>
<stop offset="0.99" stop-color="white" stop-opacity="0"/>
</linearGradient>
<linearGradient id="paint6_linear_1_3643" x1="169.288" y1="47.5062" x2="174.951" y2="41.2499" gradientUnits="userSpaceOnUse">
<stop offset="0.01" stop-color="white"/>
<stop offset="0.99" stop-color="white" stop-opacity="0"/>
</linearGradient>
<linearGradient id="paint7_linear_1_3643" x1="176.097" y1="54.9903" x2="183.459" y2="50.0166" gradientUnits="userSpaceOnUse">
<stop offset="0.01" stop-color="white"/>
<stop offset="0.99" stop-color="white" stop-opacity="0"/>
</linearGradient>
<linearGradient id="paint8_linear_1_3643" x1="186.392" y1="63.8808" x2="191.236" y2="57.3963" gradientUnits="userSpaceOnUse">
<stop offset="0.01" stop-color="white"/>
<stop offset="0.99" stop-color="white" stop-opacity="0"/>
</linearGradient>
<linearGradient id="paint9_linear_1_3643" x1="195.552" y1="70.6979" x2="199.126" y2="66.1598" gradientUnits="userSpaceOnUse">
<stop offset="0.01" stop-color="white"/>
<stop offset="0.99" stop-color="white" stop-opacity="0"/>
</linearGradient>
<linearGradient id="paint10_linear_1_3643" x1="203.368" y1="78.8603" x2="208.128" y2="73.6018" gradientUnits="userSpaceOnUse">
<stop offset="0.01" stop-color="white"/>
<stop offset="0.99" stop-color="white" stop-opacity="0"/>
</linearGradient>
<linearGradient id="paint11_linear_1_3643" x1="210.609" y1="90.5814" x2="217.802" y2="79.4965" gradientUnits="userSpaceOnUse">
<stop offset="0.01" stop-color="white"/>
<stop offset="0.99" stop-color="white" stop-opacity="0"/>
</linearGradient>
<linearGradient id="paint12_linear_1_3643" x1="216.077" y1="33.3884" x2="109.846" y2="150.767" gradientUnits="userSpaceOnUse">
<stop offset="0.01" stop-color="white"/>
<stop offset="0.99" stop-color="white" stop-opacity="0"/>
</linearGradient>
</defs>
</svg>
